SplineFontDB: 3.0
FontName: Untitled1
FullName: Untitled1
FamilyName: Untitled1
Weight: Regular
Copyright: Copyright (c) 2018, Yuansheng Zhao
UComments: "2018-4-26: Created with FontForge (http://fontforge.org)"
Version: 001.000
ItalicAngle: 0
UnderlinePosition: -100
UnderlineWidth: 50
Ascent: 800
Descent: 200
InvalidEm: 0
LayerCount: 2
Layer: 0 0 "Back" 1
Layer: 1 0 "Fore" 0
XUID: [1021 70 263418660 25263]
StyleMap: 0x0000
FSType: 0
OS2Version: 0
OS2_WeightWidthSlopeOnly: 0
OS2_UseTypoMetrics: 1
CreationTime: 1524682829
ModificationTime: 1524929848
OS2TypoAscent: 0
OS2TypoAOffset: 1
OS2TypoDescent: 0
OS2TypoDOffset: 1
OS2TypoLinegap: 90
OS2WinAscent: 0
OS2WinAOffset: 1
OS2WinDescent: 0
OS2WinDOffset: 1
HheadAscent: 0
HheadAOffset: 1
HheadDescent: 0
HheadDOffset: 1
OS2Vendor: 'PfEd'
DEI: 91125
Encoding: UnicodeFull
UnicodeInterp: none
NameList: AGL For New Fonts
DisplaySize: -48
AntiAlias: 1
FitToEm: 0
WinInfo: 162 27 9
BeginChars: 1114112 217

StartChar: six
Encoding: 54 54 0
Width: 692
Flags: W
HStem: -5 36<-0.573315 70.1888 195.015 266.525 395.098 475.898 612.158 694.277> 249 33<240.006 429.907>
VStem: -2 178<4 93.5> 489 208<1 90.5>
LayerCount: 2
Fore
SplineSet
27 -5 m 0
 10 -5 -2 0 -2 8 c 0
 -2 17 9 24 31 31 c 0
 65 41 95 58 117 108 c 0
 192 279 236 393 304 578 c 0
 311 597 316 615 318 636 c 1
 330 640 342 643 354 651 c 0
 366 659 369 679 373 685 c 0
 374 686 377 686 378 684 c 0
 381 678 382 670 385 662 c 0
 449 459 530 223 563 128 c 0
 591 48 624 35 664 28 c 0
 687 24 697 14 697 5 c 0
 697 -3 685 -5 668 -5 c 0
 640 -5 574 1 529 1 c 0
 490 1 448 0 424 0 c 0
 407 0 395 4 395 12 c 0
 395 21 410 28 428 31 c 0
 472 38 489 54 489 76 c 0
 489 105 465 188 450 238 c 0
 447 248 441 249 423 249 c 2
 234 249 l 2
 228 249 222 245 217 231 c 0
 208 205 176 100 176 87 c 0
 176 58 202 38 234 30 c 0
 257 24 267 19 267 10 c 0
 267 2 255 -1 238 -1 c 0
 220 -1 184 1 147 1 c 0
 103 1 60 -5 27 -5 c 0
261 282 m 2
 416 282 l 2
 426 282 430 282 430 287 c 0
 430 289 429 293 428 297 c 2
 350 541 l 2
 346 553 344 559 341 559 c 0
 339 559 337 553 333 542 c 2
 242 297 l 2
 241 294 240 291 240 289 c 0
 240 282 248 282 261 282 c 2
EndSplineSet
EndChar

StartChar: seven
Encoding: 55 55 1
Width: 587
Flags: W
HStem: -5 29<19.6924 97.1038> -4 41<222.575 367.993> 343 28<219.903 339.939> 627 30<30.0088 101.681 217.08 352.292>
VStem: 130 78<50.5126 335.62 374.395 607.62> 420 86<428.462 574.281> 453 94<115.164 269.043>
LayerCount: 2
Fore
SplineSet
48 -5 m 0xba
 31 -5 19 -2 19 6 c 0
 19 15 29 20 52 24 c 0
 102 33 130 51 130 99 c 2
 130 549 l 2
 130 597 112 618 63 622 c 0
 40 624 30 633 30 642 c 0
 30 650 42 653 59 653 c 0
 113 653 122 652 163 652 c 0
 201 652 216 657 274 657 c 0
 430 657 506 617 506 508 c 0xbc
 506 463 487 427 472 412 c 0
 451 391 438 382 405 369 c 0
 400 367 399 361 405 359 c 0
 465 339 547 310 547 194 c 0
 547 84 484 51 443 30 c 0
 401 9 349 -4 273 -4 c 0x7a
 255 -4 218 0 178 0 c 0
 126 0 106 -5 48 -5 c 0xba
254 371 m 0
 290 371 334 377 375 400 c 0
 389 408 420 437 420 495 c 0
 420 552 397 627 274 627 c 0
 219 627 208 612 208 582 c 2
 208 408 l 2
 208 373 238 371 254 371 c 0
287 37 m 0x7a
 375 37 453 103 453 189 c 0
 453 266 406 303 379 318 c 0
 361 328 325 343 265 343 c 0
 222 343 208 320 208 307 c 2
 208 108 l 2
 208 52 236 37 287 37 c 0x7a
EndSplineSet
EndChar

StartChar: eight
Encoding: 56 56 2
Width: 710
Flags: W
HStem: -15 31<339.76 506.413> 632 31<330.78 512.297>
VStem: 46 101<225.428 434.419> 614 34<476.228 539.064>
LayerCount: 2
Fore
SplineSet
407 -15 m 0
 220 -15 46 119 46 323 c 0
 46 517 227 663 432 663 c 0
 509 663 542 654 610 637 c 0
 630 632 637 621 639 603 c 0
 642 572 646 540 648 488 c 0
 649 473 620 464 614 487 c 0
 601 538 587 574 552 598 c 0
 519 620 470 632 415 632 c 0
 259 632 147 494 147 347 c 0
 147 184 256 16 422 16 c 0
 518 16 577 62 621 141 c 0
 630 158 655 159 655 138 c 0
 655 122 640 70 628 41 c 0
 618 22 617 21 596 14 c 0
 547 -6 472 -15 407 -15 c 0
EndSplineSet
EndChar

StartChar: nine
Encoding: 57 57 3
Width: 754
Flags: W
HStem: -7 35<29.2661 112.208 209.995 451.599> 628 31<29.7439 95.0725 230.398 425.508>
VStem: 129 80<62.1482 605.889> 624 95<224.093 444.954>
LayerCount: 2
Fore
SplineSet
371 -7 m 0
 351 -7 242 0 163 0 c 0
 123 0 111 -5 58 -5 c 0
 41 -5 29 -2 29 8 c 0
 29 19 39 20 62 24 c 0
 112 33 129 51 129 99 c 2
 129 549 l 2
 129 597 112 613 62 622 c 0
 39 626 29 629 29 640 c 0
 29 649 41 653 58 653 c 0
 109 653 121 651 169 651 c 0
 212 651 313 659 340 659 c 0
 611 659 719 517 719 342 c 0
 719 150 562 -7 371 -7 c 0
359 28 m 0
 515 28 624 151 624 325 c 0
 624 517 482 628 345 628 c 0
 258 628 209 627 209 567 c 2
 209 121 l 2
 209 40 284 28 359 28 c 0
EndSplineSet
EndChar

StartChar: colon
Encoding: 58 58 4
Width: 564
Flags: W
HStem: -5 40<235.438 454.011> -5 29<37.6924 113.925> 320 32<225.086 384.55> 618 35<46.1729 128.247 229.59 447.859>
VStem: 144 80<44.9696 319.486 352 605.889> 397 32<245.13 308.422 363.353 422.255> 480 25<526.084 573.315>
LayerCount: 2
Fore
SplineSet
66 -5 m 0x7e
 49 -5 37 -2 37 6 c 0
 37 15 47 20 70 24 c 0x7e
 120 33 144 51 144 99 c 2
 144 549 l 2
 144 597 127 613 77 622 c 0
 54 626 44 633 44 642 c 0
 44 650 56 653 73 653 c 0
 148 653 180 650 250 650 c 0
 294 650 345 651 387 651 c 2
 472 653 l 2
 479 653 489 651 490 644 c 0
 497 606 505 568 505 541 c 0
 505 529 497 526 491 526 c 0
 484 526 482 529 480 536 c 0
 473 558 467 581 458 591 c 0
 439 612 416 618 391 618 c 2
 260 618 l 2
 249 618 224 605 224 586 c 2
 224 374 l 2
 224 362 232 352 242 352 c 2
 341 352 l 2
 380 352 389 364 399 401 c 0
 403 416 409 423 417 423 c 0
 422 423 430 417 430 407 c 0
 430 398 427 353 427 337 c 0
 427 317 429 268 429 260 c 0
 429 251 428 243 420 243 c 0
 410 243 402 254 397 275 c 0
 389 306 377 320 351 320 c 2
 258 320 l 2
 235 320 224 317 224 294 c 2
 224 102 l 2
 224 51 245 35 290 35 c 2
 364 35 l 2xbe
 407 35 434 39 455 52 c 0
 476 66 491 89 512 129 c 0
 516 137 521 143 528 142 c 0
 535 141 539 136 539 128 c 0
 539 110 520 39 508 12 c 0
 504 3 502 -5 494 -5 c 0
 366 -5 281 1 181 1 c 0
 136 1 120 -5 66 -5 c 0x7e
EndSplineSet
EndChar

StartChar: semicolon
Encoding: 59 59 5
Width: 512
Flags: W
HStem: -5 29<30.6924 104.863 240.561 311.308> 319 31<212.195 373.625> 617 33<39.9696 111.41 215.339 425.655> 640 20G<450 465.5>
VStem: 130 80<46.2759 316.741 350.008 603.448> 396 32<256.771 305.032> 461 24<529.355 573.023>
LayerCount: 2
Fore
SplineSet
59 -5 m 0xee
 42 -5 30 -2 30 6 c 0
 30 15 40 20 63 24 c 0
 113 33 130 51 130 100 c 2
 130 522 l 2
 130 582 119 613 69 622 c 0
 46 626 36 633 36 642 c 0
 36 650 48 653 65 653 c 0
 138 653 168 650 237 650 c 2
 363 650 l 2xee
 406 650 438 660 462 660 c 0xde
 469 660 479 658 480 651 c 0
 483 628 485 564 485 550 c 0
 485 538 482 529 476 529 c 0
 469 529 463 534 461 541 c 0
 455 563 447 580 438 590 c 0
 419 611 396 617 371 617 c 2
 244 617 l 2
 213 617 211 593 210 567 c 0
 209 542 209 502 209 467 c 0
 209 433 209 396 210 372 c 0
 210 361 211 350 220 350 c 0
 262 350 312 353 336 353 c 0
 365 353 387 371 397 394 c 0
 399 399 410 411 415 411 c 0
 420 411 429 404 428 395 c 0
 426 372 425 356 425 340 c 0
 425 320 426 301 428 272 c 0
 428 263 427 255 419 255 c 0
 406 255 398 271 396 278 c 0
 386 309 365 318 349 318 c 0
 332 318 315 319 299 319 c 0
 276 319 255 319 234 317 c 0
 221 316 210 309 210 292 c 0
 210 231 210 167 213 101 c 0
 215 58 229 33 279 24 c 0
 302 20 312 15 312 6 c 0
 312 -2 300 -5 283 -5 c 0
 229 -5 223 2 185 2 c 0
 136 2 113 -5 59 -5 c 0xee
EndSplineSet
EndChar

StartChar: less
Encoding: 60 60 6
Width: 729
Flags: W
HStem: -14 37<315.229 500.441> 256 34<437.011 535.328 642.232 692.897> 625 38<314.976 508.896>
VStem: 45 99<204.234 428.131> 560 65<72.4729 237.12> 594 38<492.515 555.002>
LayerCount: 2
Fore
SplineSet
392 -14 m 0xf8
 207 -14 45 126 45 311 c 0
 45 509 214 663 413 663 c 0
 459 663 586 643 613 630 c 0
 619 627 621 625 622 618 c 0
 627 579 632 538 632 512 c 0
 632 502 625 492 617 492 c 0
 603 492 598 507 594 519 c 0xf4
 586 540 579 553 563 572 c 0
 550 588 499 625 404 625 c 0
 249 625 144 482 144 324 c 0
 144 134 273 23 406 23 c 0
 483 23 516 48 528 60 c 0
 543 75 558 102 558 137 c 0
 558 154 560 177 560 195 c 0
 560 209 559 220 555 225 c 0
 538 247 477 256 457 256 c 0
 452 256 437 263 437 273 c 0
 437 283 452 290 457 290 c 0
 506 290 528 286 583 286 c 0
 618 286 636 290 672 290 c 0
 677 290 693 287 693 274 c 0
 693 265 677 257 672 256 c 0
 643 248 634 234 630 207 c 0
 626 178 625 157 625 132 c 2
 625 105 l 2
 625 98 628 95 631 89 c 0
 635 82 644 77 644 72 c 0
 644 67 644 55 630 53 c 0
 610 50 519 -14 392 -14 c 0xf8
EndSplineSet
EndChar

StartChar: equal
Encoding: 61 61 7
Width: 810
Flags: W
HStem: -5 29<37.1389 109.095 251.062 321.861 501.139 571.913 699.378 769.861> 307 38<210 601.981> 622 31<44.3628 116.701 235.842 310.637 503.363 576.241 697.262 767.637>
VStem: 130 80<53.9455 307 345 603.314> 602 80<45.1995 307 345 604.033>
LayerCount: 2
Fore
SplineSet
66 -5 m 0
 49 -5 37 0 37 8 c 0
 37 17 46 20 69 24 c 0
 119 33 130 51 130 99 c 2
 130 551 l 2
 130 597 127 613 77 622 c 0
 54 626 44 631 44 640 c 0
 44 648 53 653 73 653 c 0
 127 653 136 650 176 650 c 0
 217 650 228 653 282 653 c 0
 302 653 311 648 311 640 c 0
 311 631 301 626 278 622 c 0
 228 613 210 590 210 551 c 2
 210 354 l 2
 210 346 218 345 224 345 c 2
 595 345 l 2
 600 345 602 348 602 357 c 2
 602 552 l 2
 602 588 586 613 536 622 c 0
 513 626 503 631 503 640 c 0
 503 648 514 653 532 653 c 0
 586 653 603 650 648 650 c 0
 684 650 685 653 739 653 c 0
 758 653 768 648 768 640 c 0
 768 631 758 626 735 622 c 0
 685 613 682 590 682 552 c 2
 682 100 l 2
 682 51 688 33 738 24 c 0
 761 20 770 17 770 8 c 0
 770 0 758 -5 741 -5 c 0
 687 -5 678 0 637 0 c 0
 595 0 584 -5 530 -5 c 0
 513 -5 501 0 501 8 c 0
 501 17 510 20 533 24 c 0
 575 32 602 54 602 97 c 2
 602 292 l 2
 602 299 603 307 597 307 c 2
 215 307 l 2
 210 307 210 304 210 296 c 2
 210 106 l 2
 210 64 244 32 290 24 c 0
 313 20 322 17 322 8 c 0
 322 0 310 -5 293 -5 c 0
 239 -5 222 0 176 0 c 0
 133 0 120 -5 66 -5 c 0
EndSplineSet
EndChar

StartChar: greater
Encoding: 62 62 8
Width: 340
Flags: W
HStem: -5 29<19.6924 97.1038 243.602 321.308> 622 31<31.0745 107.441 235.205 312.926>
VStem: 130 80<46.75 604.158>
LayerCount: 2
Fore
SplineSet
48 -5 m 0
 31 -5 19 -2 19 6 c 0
 19 15 29 20 52 24 c 0
 102 33 130 51 130 98 c 2
 130 550 l 2
 130 597 113 613 63 622 c 0
 40 626 30 633 30 642 c 0
 30 650 42 653 59 653 c 0
 113 653 130 650 176 650 c 0
 219 650 231 653 285 653 c 0
 302 653 314 650 314 642 c 0
 314 633 304 626 281 622 c 0
 231 613 210 597 210 550 c 2
 210 98 l 2
 210 51 239 33 289 24 c 0
 312 20 322 15 322 6 c 0
 322 -2 310 -5 293 -5 c 0
 239 -5 222 0 176 0 c 0
 126 0 102 -5 48 -5 c 0
EndSplineSet
EndChar

StartChar: question
Encoding: 63 63 9
Width: 340
Flags: W
HStem: -200 41<26.5867 94.2663> 622 31<32.1602 107.232 225.944 298.926>
VStem: 130 80<-51.6008 606.023>
LayerCount: 2
Fore
SplineSet
34 -200 m 0
 -34 -200 -69 -182 -69 -151 c 0
 -69 -128 -45 -104 -30 -104 c 0
 -13 -104 3 -111 17 -129 c 0
 34 -151 47 -159 64 -159 c 0
 111 -159 130 -98 130 -1 c 2
 130 551 l 2
 130 597 112 613 64 622 c 0
 42 626 31 633 31 642 c 0
 31 650 43 653 60 653 c 0
 114 653 131 650 177 650 c 0
 214 650 217 653 271 653 c 0
 288 653 300 650 300 642 c 0
 300 633 290 626 267 622 c 0
 217 613 210 597 210 551 c 2
 210 47 l 2
 210 -37 163 -108 131 -146 c 0
 104 -178 73 -200 34 -200 c 0
EndSplineSet
EndChar

StartChar: at
Encoding: 64 64 10
Width: 681
Flags: W
HStem: -5 29<31.6924 105.863 244.783 312.308 608.044 687.308> 323 22<211.264 231.372> 622 31<32.0745 108.441 226.967 296.926 408.311 456.01 576.716 672.827>
VStem: 131 80<50.6023 322.99 345.01 605.863>
LayerCount: 2
Fore
SplineSet
60 -5 m 0
 43 -5 31 -2 31 6 c 0
 31 15 41 20 64 24 c 0
 114 33 131 51 131 101 c 2
 131 551 l 2
 131 597 114 613 64 622 c 0
 41 626 31 633 31 642 c 0
 31 650 43 653 60 653 c 0
 114 653 128 651 172 651 c 0
 210 651 215 653 269 653 c 0
 286 653 298 650 298 642 c 0
 298 633 288 626 265 622 c 0
 215 613 211 590 211 551 c 2
 211 364 l 2
 211 359 211 345 216 345 c 0
 223 345 236 355 243 363 c 2
 443 567 l 2
 453 577 458 588 458 597 c 0
 458 608 451 617 439 620 c 0
 416 626 408 631 408 640 c 0
 408 648 420 651 437 651 c 2
 491 651 l 2
 548 651 640 655 653 655 c 0
 666 655 675 651 675 644 c 0
 675 635 665 628 642 624 c 0
 592 615 536 597 490 558 c 0
 418 497 368 448 298 371 c 0
 293 366 296 360 303 353 c 2
 545 95 l 2
 588 47 598 36 655 24 c 0
 678 19 688 15 688 6 c 0
 688 -2 676 -5 659 -5 c 0
 600 -5 575 0 520 0 c 0
 495 0 484 -1 439 -1 c 0
 422 -1 410 2 410 10 c 0
 410 19 418 23 437 27 c 0
 457 32 465 39 465 47 c 0
 465 55 458 63 450 72 c 2
 238 306 l 2
 230 314 220 323 215 323 c 0
 210 323 211 309 211 302 c 0
 211 239 213 190 216 110 c 0
 218 67 230 33 280 24 c 0
 303 20 313 15 313 6 c 0
 313 -2 301 -5 284 -5 c 0
 230 -5 224 2 186 2 c 0
 137 2 114 -5 60 -5 c 0
EndSplineSet
EndChar

StartChar: A
Encoding: 65 65 11
Width: 584
Flags: W
HStem: -5 40<220.001 480.925> -5 29<27.3563 55 55.0618 94.228> 622 31<37.0745 116.488 238.822 330.926>
VStem: 130 80<47.25 603.136> 541 34<139.048 159.894>
LayerCount: 2
Fore
SplineSet
55 -5 m 2x78
 37 -5 27 0 27 7 c 0
 27 19 45 23 49 24 c 0x78
 101 34 130 52 130 96 c 2
 130 560 l 2
 130 608 119 613 69 622 c 0
 46 626 36 633 36 642 c 0
 36 650 48 653 65 653 c 0
 119 653 133 650 177 650 c 0
 226 650 249 653 303 653 c 0
 320 653 332 650 332 642 c 0
 332 633 322 626 299 622 c 0
 249 613 210 606 210 567 c 2
 210 96 l 2
 210 55 221 35 287 35 c 2
 411 35 l 2xb8
 447 35 476 49 489 61 c 0
 515 84 524 96 541 132 c 0
 544 140 554 162 563 162 c 0
 571 162 575 152 575 144 c 0
 575 142 574 140 574 139 c 0
 560 87 551 54 547 12 c 0
 546 3 543 -5 533 -5 c 0
 399 -5 290 0 190 0 c 0
 140 0 55 -5 55 -5 c 2x78
EndSplineSet
EndChar

StartChar: B
Encoding: 66 66 12
Width: 901
Flags: W
HStem: -5 29<19.6924 83.1305 195.757 261.308 585.692 653.169 789.765 864.308> 624 31<42.8083 117.013 776.216 842.344>
VStem: 657 78<325.525 456.672> 669 88<45.3904 347.143>
LayerCount: 2
Fore
SplineSet
48 -5 m 0xe0
 31 -5 19 -2 19 6 c 0
 19 15 29 20 52 24 c 0
 85 30 107 55 114 102 c 0
 138 282 155 444 155 528 c 0
 155 538 155 551 154 561 c 0
 153 572 152 583 139 594 c 0
 115 614 94 618 64 624 c 0
 51 627 42 635 42 644 c 0
 42 654 56 655 76 655 c 0
 102 655 200 647 226 647 c 0
 235 647 242 641 245 631 c 0
 252 607 257 579 267 554 c 2
 425 153 l 2
 429 143 443 140 448 150 c 2
 645 560 l 1
 651 582 659 614 663 635 c 0
 665 643 668 648 673 648 c 2
 709 648 l 2
 749 648 800 656 823 656 c 0
 829 656 844 655 844 646 c 0
 844 637 838 633 818 625 c 0
 800 618 777 610 759 602 c 0
 745 596 735 583 735 568 c 0xe0
 735 382 749 246 757 95 c 0
 759 54 782 33 832 24 c 0
 855 20 865 15 865 6 c 0
 865 -2 853 -5 836 -5 c 0
 782 -5 765 0 719 0 c 0
 678 0 668 -5 614 -5 c 0
 597 -5 585 -2 585 6 c 0
 585 15 595 21 618 24 c 0
 657 29 669 49 669 96 c 0xd0
 669 240 663 329 657 464 c 0
 655 478 648 477 641 464 c 2
 411 -5 l 2
 408 -12 396 -13 393 -4 c 0
 341 152 284 296 209 471 c 0
 206 478 197 478 196 471 c 0
 177 330 164 238 164 102 c 0
 164 66 188 32 229 24 c 0
 252 20 262 15 262 6 c 0
 262 -2 250 -5 233 -5 c 0
 179 -5 176 0 139 0 c 0
 103 0 102 -5 48 -5 c 0xe0
EndSplineSet
EndChar

StartChar: C
Encoding: 67 67 13
Width: 792
Flags: W
HStem: -5 30<33.9015 94.2885 206 275.099> 619 31<542.182 616.256 699.5 778.979> 620 38<13.6632 87.8053>
VStem: 142 37<306.848 499.991> 643 43<136.004 599.75>
LayerCount: 2
Fore
SplineSet
668 -17 m 0xd8
 656 -17 614 2 582 46 c 0
 564 71 237 456 214 484 c 0
 204 496 198 500 193 500 c 0
 186 500 184 487 184 479 c 0
 182 380 179 227 179 104 c 0
 179 68 193 33 243 24 c 0
 266 20 276 15 276 6 c 0
 276 -2 264 -5 247 -5 c 0
 193 -5 190 0 153 0 c 0
 117 0 116 -5 62 -5 c 0
 45 -5 33 -2 33 6 c 0
 33 15 43 19 66 25 c 0
 104 35 120 66 124 107 c 0
 132 182 142 342 142 507 c 0
 142 578 102 601 43 620 c 0
 37 622 12 632 12 644 c 0
 12 656 28 658 35 658 c 0xb8
 113 656 117 653 189 653 c 0
 201 653 206 645 213 636 c 0
 232 609 586 180 606 156 c 0
 611 150 623 136 631 136 c 0
 636 136 640 142 641 157 c 0
 642 195 643 381 643 564 c 0
 642 590 607 615 585 619 c 0
 562 623 540 630 540 639 c 0
 540 647 564 650 581 650 c 2
 638 650 l 2
 686 650 692 653 753 653 c 0
 770 653 782 650 782 642 c 0
 782 633 772 626 749 622 c 0
 699 613 688 601 686 568 c 0
 685 550 684 263 684 105 c 0
 684 57 689 21 689 8 c 0
 689 -13 678 -17 668 -17 c 0xd8
EndSplineSet
EndChar

StartChar: D
Encoding: 68 68 14
Width: 763
Flags: W
HStem: -14 40<298.5 491.695> 622 42<268.656 467.154>
VStem: 45 96<219.043 439.023> 622 96<211.183 430.95>
LayerCount: 2
Fore
SplineSet
377 -14 m 0
 201 -14 45 118 45 315 c 0
 45 495 164 664 386 664 c 0
 562 664 718 532 718 335 c 0
 718 155 599 -14 377 -14 c 0
392 26 m 0
 545 26 622 129 622 286 c 0
 622 471 537 622 370 622 c 0
 219 622 141 521 141 365 c 0
 141 179 225 26 392 26 c 0
EndSplineSet
EndChar

StartChar: E
Encoding: 69 69 15
Width: 552
Flags: W
HStem: -5 29<24.6924 100.631 239.305 309.308> 254 31<259.022 374.679> 622 31<37.0745 105.304> 630 28<221.934 347.601>
VStem: 130 80<45.1651 603.448> 441 86<373.102 559.429>
LayerCount: 2
Fore
SplineSet
53 -5 m 0xdc
 36 -5 24 -2 24 6 c 0
 24 15 34 20 57 24 c 0
 107 33 130 51 130 100 c 2
 130 522 l 2
 130 582 119 613 69 622 c 0
 46 626 36 633 36 642 c 0
 36 650 48 653 65 653 c 0xec
 119 653 122 652 163 652 c 0
 203 652 246 658 274 658 c 0
 426 658 527 592 527 480 c 0
 527 357 456 254 303 254 c 0
 274 254 258 265 258 273 c 0
 258 278 267 287 274 287 c 0
 280 287 293 285 320 285 c 0
 400 285 441 355 441 473 c 0
 441 579 371 630 274 630 c 0
 236 630 210 618 210 588 c 2
 210 111 l 2
 210 63 227 33 277 24 c 0
 300 20 310 15 310 6 c 0
 310 -2 298 -5 281 -5 c 0
 227 -5 221 2 183 2 c 0
 132 2 107 -5 53 -5 c 0xdc
EndSplineSet
EndChar

StartChar: F
Encoding: 70 70 16
Width: 763
Flags: W
HStem: -248 56<669.518 839.545> 622 42<268.656 467.154>
VStem: 45 96<218.097 439.023> 622 96<207.247 430.95>
LayerCount: 2
Fore
SplineSet
744 -248 m 0
 648 -248 587 -219 523 -173 c 0
 471 -136 430 -108 365 -54 c 0
 318 -15 278 -3 250 10 c 0
 141 61 45 151 45 315 c 0
 45 495 164 664 386 664 c 0
 562 664 718 532 718 335 c 0
 718 183 634 40 475 -2 c 0
 468 -4 467 -7 467 -9 c 0
 467 -12 468 -15 471 -18 c 0
 510 -60 548 -93 598 -129 c 0
 665 -177 715 -192 793 -192 c 0
 817 -192 840 -189 849 -185 c 0
 855 -183 862 -181 868 -181 c 0
 874 -181 879 -183 879 -189 c 0
 879 -201 876 -206 861 -215 c 0
 823 -238 781 -248 744 -248 c 0
392 26 m 0
 545 26 622 129 622 286 c 0
 622 471 537 622 370 622 c 0
 219 622 141 521 141 365 c 0
 141 179 225 26 392 26 c 0
EndSplineSet
EndChar

StartChar: G
Encoding: 71 71 17
Width: 713
Flags: W
HStem: -21 46<603.627 713.254> -5 29<24.6924 100.631 240.775 309.308> 627 30<36.0088 108.406 228.013 345.755>
VStem: 130 80<46.2739 306.04 331.373 612.383> 413 90<411.17 575.094>
LayerCount: 2
Fore
SplineSet
637 -21 m 0xb8
 580 -21 534 -10 499 33 c 0
 450 93 416 134 347 246 c 0
 336 264 324 275 304 285 c 0
 275 299 243 304 225 306 c 0
 214 307 210 298 210 286 c 2
 210 110 l 2
 210 67 227 33 277 24 c 0
 300 20 310 15 310 6 c 0
 310 -2 298 -5 281 -5 c 0
 227 -5 221 2 183 2 c 0
 132 2 107 -5 53 -5 c 0
 36 -5 24 -2 24 6 c 0
 24 15 34 20 57 24 c 0x78
 107 33 130 51 130 100 c 2
 130 526 l 2
 130 602 126 616 69 622 c 0
 46 624 36 633 36 642 c 0
 36 650 48 653 65 653 c 0
 119 653 122 652 163 652 c 0
 201 652 220 657 278 657 c 0
 424 657 503 602 503 493 c 0
 503 403 440 353 385 325 c 0
 380 323 381 318 385 312 c 0
 447 218 494 143 588 58 c 0
 623 27 656 25 703 25 c 0
 713 25 718 22 718 14 c 0
 718 -15 662 -21 637 -21 c 0xb8
263 329 m 0
 355 329 413 400 413 477 c 0
 413 558 392 627 266 627 c 0
 223 627 215 603 212 534 c 0
 211 500 210 444 210 364 c 0
 210 331 230 329 263 329 c 0
EndSplineSet
EndChar

StartChar: H
Encoding: 72 72 18
Width: 465
Flags: W
HStem: -16 33<159.323 279.728> 630 34<185.799 307.974>
VStem: 40 36<109.573 170.919> 60 77<460.175 570.462> 338 84<85.9917 218.808>
LayerCount: 2
Fore
SplineSet
204 -16 m 0xd8
 148 -16 100 1 63 32 c 0
 58 37 52 44 50 52 c 0
 43 79 42 129 40 157 c 0xe8
 40 166 49 171 60 171 c 0xd8
 67 171 74 168 76 160 c 0xe8
 102 57 161 17 218 17 c 0
 287 17 338 65 338 139 c 0
 338 221 296 247 225 291 c 0
 147 340 60 385 60 482 c 0
 60 583 128 664 269 664 c 0
 317 664 352 651 374 642 c 0
 384 638 392 627 395 617 c 0
 403 589 415 550 415 518 c 0
 415 510 408 507 400 507 c 0
 388 507 375 513 372 521 c 0
 344 591 309 630 252 630 c 0
 192 630 137 600 137 516 c 0
 137 456 202 416 277 370 c 0
 347 327 422 280 422 180 c 0
 422 61 335 -16 204 -16 c 0xd8
EndSplineSet
EndChar

StartChar: I
Encoding: 73 73 19
Width: 670
Flags: W
HStem: -5 29<185.692 261.52 411.207 487.308> 610 32<109.25 287.844 384.786 599.483> 674 20G<77.5 82.5>
VStem: 296 80<48.375 606.061> 619 35<523.175 592.637>
LayerCount: 2
Fore
SplineSet
214 -5 m 0
 197 -5 185 -2 185 6 c 0
 185 15 195 20 218 24 c 0
 268 33 296 54 296 102 c 2
 296 490 l 2
 296 581 291 603 275 606 c 0
 256 610 238 610 204 610 c 2
 157 610 l 2
 125 610 89 597 75 571 c 0
 69 560 49 533 34 533 c 0
 29 533 27 539 27 546 c 0
 27 552 29 560 32 566 c 0
 51 604 57 629 63 671 c 0
 66 693 75 694 80 694 c 0
 85 694 99 673 105 662 c 0
 113 648 147 642 175 642 c 2
 527 642 l 2
 573 642 600 647 622 657 c 0
 638 665 645 677 661 677 c 0
 665 677 668 664 668 654 c 0
 668 647 665 632 664 626 c 0
 658 589 654 593 654 567 c 2
 654 555 l 2
 654 543 648 523 638 523 c 0
 628 523 624 538 619 564 c 0
 614 592 591 610 527 610 c 2
 426 610 l 2
 381 610 376 605 376 495 c 2
 376 102 l 2
 376 54 405 33 455 24 c 0
 478 20 488 15 488 6 c 0
 488 -2 476 -5 459 -5 c 0
 405 -5 388 0 342 0 c 0
 292 0 268 -5 214 -5 c 0
EndSplineSet
EndChar

StartChar: J
Encoding: 74 74 20
Width: 738
Flags: W
HStem: -14 50<292.425 478.672> 620 33<25.4669 83.9594 202.114 256.781 515.06 566.939 662.499 726.313>
VStem: 103 80<153.613 606.064> 588 57<323.395 604.72> 592 43<161.769 455.301>
LayerCount: 2
Fore
SplineSet
372 -14 m 0xe8
 193 -14 103 87 103 240 c 2
 103 547 l 2
 103 595 79 614 57 620 c 0
 34 626 24 633 24 642 c 0
 24 650 36 653 53 653 c 0
 83 653 112 650 149 650 c 0
 180 650 208 652 229 652 c 0
 246 652 258 649 258 641 c 0
 258 632 247 628 225 621 c 0
 209 616 183 589 183 549 c 2
 183 268 l 2
 183 108 271 36 393 36 c 0
 530 36 592 140 592 296 c 0xe8
 592 340 590 434 588 511 c 0
 587 562 575 612 547 620 c 0
 533 624 514 631 514 640 c 0
 514 648 526 651 543 651 c 0
 573 651 589 650 618 650 c 0
 650 650 676 653 699 653 c 0
 716 653 728 650 728 642 c 0
 728 633 718 627 695 622 c 0
 660 615 647 587 645 547 c 0xf0
 638 432 638 342 635 250 c 0
 630 95 519 -14 372 -14 c 0xe8
EndSplineSet
EndChar

StartChar: K
Encoding: 75 75 21
Width: 672
Flags: W
HStem: 620 33<1.64938 63.9711 195.406 280.972 407.755 479.575 603.579 676.313>
VStem: 0 184<570.5 646>
LayerCount: 2
Fore
SplineSet
318 -12 m 0
 314 -12 309 -10 307 -5 c 0
 301 9 292 38 286 56 c 2
 103 547 l 2
 89 584 67 610 33 620 c 0
 11 627 0 633 0 642 c 0
 0 650 12 653 29 653 c 0
 60 653 105 650 151 650 c 0
 191 650 233 652 253 652 c 0
 270 652 282 649 282 641 c 0
 282 632 272 623 249 621 c 0
 211 617 184 605 184 582 c 0
 184 559 192 542 195 533 c 2
 339 153 l 2
 341 148 346 145 350 154 c 2
 487 514 l 2
 514 585 483 614 440 620 c 0
 420 623 407 631 407 640 c 0
 407 648 419 651 436 651 c 0
 462 651 497 650 535 650 c 0
 574 650 623 653 649 653 c 0
 666 653 678 650 678 642 c 0
 678 633 668 627 645 622 c 0
 596 611 562 571 547 535 c 2
 359 79 l 2
 355 69 339 19 328 -5 c 0
 326 -9 322 -12 318 -12 c 0
EndSplineSet
EndChar

StartChar: L
Encoding: 76 76 22
Width: 916
Flags: W
HStem: 620 33<1.64938 66.5039 189.109 238.926 266.649 333.392 613.369 689.313 711.06 766.25 860.08 928.313>
VStem: 0 187<577.5 646>
LayerCount: 2
Fore
SplineSet
335 -16 m 0
 332 -16 326 -1 321 12 c 2
 105 554 l 2
 89 588 67 610 33 620 c 0
 11 627 0 633 0 642 c 0
 0 650 12 653 29 653 c 0
 60 653 84 650 118 650 c 0
 155 650 191 652 211 652 c 0
 228 652 240 649 240 641 c 0
 240 632 230 627 207 621 c 0
 191 617 187 603 187 588 c 0
 187 567 195 545 195 545 c 1
 256 389 292 303 359 152 c 0
 366 137 370 140 374 151 c 2
 452 344 l 2
 456 354 458 361 458 367 c 0
 458 375 455 383 450 396 c 2
 393 538 l 2
 376 581 332 610 298 620 c 0
 276 627 265 633 265 642 c 0
 265 650 277 653 294 653 c 0
 325 653 352 650 388 650 c 0
 418 650 445 652 465 652 c 0
 482 652 494 649 494 641 c 0
 494 624 453 622 453 599 c 0
 453 596 454 594 455 591 c 0
 459 579 491 497 500 478 c 0
 507 462 510 460 518 478 c 0
 534 514 553 574 558 591 c 0
 559 594 559 596 559 598 c 0
 559 622 522 624 522 641 c 0
 522 649 534 652 551 652 c 0
 580 652 584 650 603 650 c 0
 626 650 638 653 662 653 c 0
 679 653 691 650 691 642 c 0
 691 633 681 627 658 622 c 0
 615 612 607 602 590 574 c 0
 579 555 553 494 537 451 c 0
 533 441 528 420 531 413 c 2
 634 148 l 2
 637 141 641 145 645 154 c 0
 678 242 722 388 767 541 c 0
 771 553 773 566 773 577 c 0
 773 597 765 614 743 620 c 0
 729 624 710 631 710 640 c 0
 710 648 722 651 739 651 c 0
 765 651 785 650 811 650 c 0
 844 650 876 653 901 653 c 0
 918 653 930 650 930 642 c 0
 930 633 920 627 897 622 c 0
 848 611 826 563 815 534 c 2
 638 11 l 2
 636 5 629 -12 622 -12 c 0
 617 -12 609 -2 605 7 c 0
 552 126 529 199 482 316 c 0
 478 325 476 323 471 310 c 0
 423 197 399 133 357 15 c 0
 352 1 343 -16 335 -16 c 0
EndSplineSet
EndChar

StartChar: M
Encoding: 77 77 23
Width: 707
Flags: W
HStem: -5 33<-3.35062 67.7729 203.123 267.861 395.055 453.346 626.864 697.313> 622 33<19.6494 91.1203 243.386 317.637 443.217 513.033 626.879 693.56>
LayerCount: 2
Fore
SplineSet
24 -5 m 0
 7 -5 -5 -2 -5 6 c 0
 -5 15 6 21 28 28 c 0
 62 38 129 72 171 124 c 2
 296 280 l 2
 310 299 320 314 301 341 c 2
 167 529 l 2
 117 599 85 612 51 622 c 0
 29 629 18 635 18 644 c 0
 18 652 30 655 47 655 c 0
 80 655 140 650 190 650 c 0
 230 650 271 652 289 652 c 0
 306 652 318 649 318 641 c 0
 318 632 308 628 285 621 c 0
 252 611 234 606 234 590 c 0
 234 578 244 560 267 528 c 2
 358 400 l 2
 372 379 377 382 388 397 c 2
 495 538 l 2
 511 558 521 576 521 589 c 0
 521 604 508 614 476 620 c 0
 462 623 443 631 443 640 c 0
 443 648 455 651 472 651 c 0
 496 651 523 650 553 650 c 0
 592 650 640 656 667 656 c 0
 684 656 696 653 696 645 c 0
 696 636 686 631 663 625 c 0
 625 615 577 562 533 510 c 2
 418 374 l 2
 400 353 397 349 404 334 c 2
 559 111 l 2
 589 67 628 36 666 26 c 0
 689 20 699 15 699 6 c 0
 699 -2 687 -5 670 -5 c 0
 642 -5 574 1 527 1 c 0
 486 1 448 0 424 0 c 0
 407 0 395 3 395 11 c 0
 395 20 414 27 428 31 c 0
 448 37 472 53 472 78 c 0
 472 88 469 99 460 111 c 2
 356 262 l 2
 346 276 341 276 334 267 c 2
 199 93 l 2
 193 85 190 77 190 70 c 0
 190 51 208 36 235 30 c 0
 258 24 268 19 268 10 c 0
 268 2 256 -1 239 -1 c 0
 221 -1 186 1 150 1 c 0
 105 1 57 -5 24 -5 c 0
EndSplineSet
EndChar

StartChar: N
Encoding: 78 78 24
Width: 578
Flags: W
HStem: -5 29<153.692 226.247 382.521 455.308> 620 33<1.64938 59.1406 191.55 253.781 385.06 452.318 540.619 617.641>
VStem: 264 80<52.5 323.281> 458 163<579 646>
LayerCount: 2
Fore
SplineSet
182 -5 m 0
 165 -5 153 -2 153 6 c 0
 153 15 163 20 186 24 c 0
 236 33 264 60 264 108 c 2
 264 256 l 2
 264 283 244 321 239 330 c 2
 122 522 l 2
 107 546 67 610 33 620 c 0
 11 627 0 633 0 642 c 0
 0 650 12 653 29 653 c 0
 59 653 100 650 146 650 c 0
 177 650 205 652 226 652 c 0
 243 652 255 649 255 641 c 0
 255 632 244 626 222 621 c 0
 203 616 190 611 190 596 c 0
 190 588 194 576 203 560 c 2
 295 390 l 2
 309 364 317 352 323 352 c 0
 331 352 338 362 356 390 c 0
 386 437 406 474 440 534 c 0
 453 556 458 573 458 585 c 0
 458 610 436 617 417 620 c 0
 403 622 384 631 384 640 c 0
 384 648 396 651 413 651 c 0
 443 651 459 650 488 650 c 0
 529 650 569 653 592 653 c 0
 609 653 621 650 621 642 c 0
 621 633 596 625 568 617 c 0
 533 607 516 581 480 526 c 0
 426 443 415 425 369 350 c 0
 343 307 344 299 344 260 c 2
 344 108 l 2
 344 63 373 33 423 24 c 0
 446 20 456 15 456 6 c 0
 456 -2 444 -5 427 -5 c 0
 373 -5 356 0 310 0 c 0
 260 0 236 -5 182 -5 c 0
EndSplineSet
EndChar

StartChar: O
Encoding: 79 79 25
Width: 603
Flags: W
HStem: -5 41<180.367 484.865> 609 37<120.191 437.997>
VStem: 36 37<506.312 565.741>
LayerCount: 2
Fore
SplineSet
533 -5 m 0
 419 -5 320 -2 231 -2 c 0
 191 -2 150 -3 112 -3 c 2
 35 -3 l 2
 29 -3 28 11 28 11 c 1
 28 21 63 73 86 104 c 0
 222 290 306 401 434 593 c 0
 436 596 438 598 438 601 c 0
 438 605 434 608 419 609 c 0
 383 610 326 611 273 611 c 0
 234 611 196 611 171 609 c 0
 139 606 91 584 73 535 c 0
 68 523 60 503 45 503 c 0
 39 503 36 508 36 514 c 0
 36 522 40 533 43 541 c 0
 50 562 67 617 70 659 c 0
 71 674 80 676 85 676 c 0
 90 676 105 667 116 662 c 0
 129 656 168 646 202 646 c 2
 328 646 l 2
 411 646 485 647 559 649 c 0
 565 649 574 636 570 631 c 2
 509 550 l 2
 371 364 295 262 171 70 c 0
 169 67 168 62 168 58 c 0
 168 50 172 42 179 41 c 0
 208 38 248 36 292 36 c 0
 337 36 386 38 433 41 c 0
 492 46 531 81 557 150 c 0
 560 158 569 171 579 171 c 0
 585 171 588 167 588 158 c 0
 588 147 562 36 551 12 c 0
 547 4 543 -5 533 -5 c 0
EndSplineSet
EndChar

StartChar: Q
Encoding: 81 81 26
Width: 720
Flags: W
HStem: -2 35<-3.49805 59.0059 198.837 268.543 373.498 447.109 661.12 726.649> 233 54<245.007 407.997>
LayerCount: 2
Fore
SplineSet
22 -5 m 0
 7 -5 -4 -1 -4 11 c 0
 -4 24 6 29 20 33 c 0
 58 44 88 66 103 100 c 0
 168 251 221 386 277 540 c 0
 296 594 299 617 302 621 c 0
 327 627 345 632 370 641 c 0
 393 650 411 667 419 676 c 0
 425 679 430 682 435 673 c 0
 439 664 442 657 445 646 c 0
 501 466 564 273 620 103 c 0
 633 63 663 43 703 33 c 0
 717 29 727 24 727 12 c 0
 727 2 718 -3 707 -3 c 0
 667 -3 590 2 545 2 c 0
 506 2 436 -2 395 -2 c 0
 383 -2 373 3 373 12 c 0
 373 23 384 30 397 33 c 0
 447 44 471 57 462 93 c 0
 454 130 440 177 430 218 c 0
 427 228 423 233 412 233 c 2
 235 233 l 2
 225 233 221 227 218 216 c 0
 206 180 192 139 183 105 c 0
 174 65 187 47 245 33 c 0
 259 30 269 23 269 12 c 0
 269 3 261 -2 246 -2 c 0
 207 -2 177 1 137 1 c 0
 97 1 62 -5 22 -5 c 0
263 287 m 2
 393 287 l 2
 404 287 408 289 408 294 c 0
 408 298 407 300 406 304 c 2
 339 530 l 2
 337 537 335 541 333 541 c 0
 331 541 329 536 326 530 c 2
 247 304 l 2
 246 302 245 299 245 296 c 0
 245 289 254 287 263 287 c 2
EndSplineSet
EndChar

StartChar: R
Encoding: 82 82 27
Width: 626
Flags: W
HStem: -5 36<17.3301 83.3123> -4 55<267.371 377.577> 324 45<258.753 373.427> 613 44<18.6938 92.5105 260 375.48>
VStem: 102 154<62.2877 319.359 372.515 604.691> 413 146<435.968 577.154> 431 165<107.175 269.554>
LayerCount: 2
Fore
SplineSet
37 -5 m 0xba
 24 -5 17 2 17 10 c 0
 17 18 24 27 39 31 c 0
 84 43 102 53 102 96 c 2
 102 551 l 2
 102 595 88 609 41 619 c 0
 24 622 18 631 18 640 c 0
 18 648 26 655 39 655 c 0
 102 655 125 648 175 648 c 0
 222 648 247 657 317 657 c 0
 476 657 559 617 559 508 c 0xbc
 559 467 539 429 509 404 c 0
 488 385 465 373 436 366 c 0
 431 365 430 357 436 356 c 0
 506 341 596 310 596 194 c 0
 596 82 532 49 491 28 c 0
 447 7 393 -4 316 -4 c 0x7a
 271 -4 229 0 179 0 c 0
 136 0 80 -5 37 -5 c 0xba
296 369 m 0
 328 369 354 375 381 396 c 0
 391 405 413 432 413 487 c 0
 413 570 382 613 309 613 c 0
 271 613 256 599 256 571 c 2
 256 404 l 2
 256 378 280 369 296 369 c 0
317 51 m 0x7a
 378 51 431 110 431 187 c 0
 431 255 399 287 381 302 c 0
 369 311 342 324 302 324 c 0
 280 324 256 313 256 291 c 2
 256 115 l 2
 256 72 278 51 317 51 c 0x7a
EndSplineSet
EndChar

StartChar: S
Encoding: 83 83 28
Width: 709
Flags: W
HStem: -14 52<330.012 528.521> 613 51<333.768 527.219>
VStem: 29 168<203.012 429.913> 608 39<470.203 532.805> 621 37<135.234 175.674>
LayerCount: 2
Fore
SplineSet
405 -14 m 0xe8
 198 -14 29 118 29 316 c 0
 29 499 184 664 433 664 c 0
 498 664 565 648 616 630 c 0
 628 625 637 617 639 601 c 0
 645 556 647 515 647 481 c 0
 647 459 616 457 608 481 c 0xf0
 599 513 588 544 563 567 c 0
 535 594 489 613 422 613 c 0
 284 613 197 485 197 345 c 0
 197 168 274 38 424 38 c 0
 523 38 579 78 621 166 c 0
 632 189 658 187 658 166 c 0
 658 139 650 96 636 52 c 0
 631 36 623 28 609 22 c 0
 558 0 488 -14 405 -14 c 0xe8
EndSplineSet
EndChar

StartChar: T
Encoding: 84 84 29
Width: 766
Flags: W
HStem: -7 51<232.257 457.074> -3 35<18.2554 87.0242> 606 53<263.113 447.983> 619 36<18.1846 86.748>
VStem: 105 154<69.3378 598.829> 572 168<213.475 451.035>
LayerCount: 2
Fore
SplineSet
382 -7 m 0xac
 313 -7 215 0 179 0 c 0
 139 0 83 -3 38 -3 c 0
 28 -3 18 2 18 11 c 0
 18 23 25 29 39 32 c 0
 90 43 105 55 105 97 c 2
 105 551 l 2
 105 595 92 607 39 619 c 0
 25 622 18 628 18 640 c 0
 18 649 28 655 38 655 c 0x5c
 83 655 139 650 180 650 c 0
 220 650 335 659 384 659 c 0
 586 659 740 526 740 336 c 0
 740 157 609 -7 382 -7 c 0xac
367 44 m 0xac
 503 44 572 149 572 309 c 0
 572 487 493 606 356 606 c 0
 292 606 259 604 259 568 c 2
 259 132 l 2
 259 66 298 44 367 44 c 0xac
EndSplineSet
EndChar

StartChar: U
Encoding: 85 85 30
Width: 575
Flags: W
HStem: -5 36<20.3691 86.3123> 0 43<264.679 472.103> 310 44<258.065 410.378> 611 42<265.333 446.804> 619 36<20.3165 87.0979> 640 20G<483.5 490.5>
VStem: 105 153<49.3368 309.906 354.13 602.449> 427 33<224.584 287.999 374.79 431.872> 495 32<492.37 545.057>
LayerCount: 2
Fore
SplineSet
41 -5 m 0xa380
 28 -5 20 2 20 10 c 0
 20 18 27 27 42 31 c 0
 87 43 105 53 105 96 c 2
 105 551 l 2
 105 595 91 608 43 619 c 0xab80
 26 623 20 631 20 640 c 0x2780
 20 648 29 655 42 655 c 0x2b80
 91 655 146 650 192 650 c 0
 260 650 346 651 408 653 c 0x3380
 450 653 481 660 486 660 c 0x2780
 495 660 509 655 511 641 c 0
 516 593 527 546 527 511 c 0
 527 499 521 492 514 492 c 0
 507 492 499 497 495 508 c 0
 481 542 473 565 459 580 c 0
 443 596 422 611 387 611 c 2
 312 611 l 2
 283 611 258 594 258 567 c 2
 258 378 l 2
 258 361 268 354 283 354 c 2
 371 354 l 2
 406 354 417 381 429 414 c 0
 433 427 441 433 449 433 c 0
 455 433 462 425 461 411 c 0
 459 386 457 355 457 330 c 0
 457 305 458 275 460 249 c 0
 462 231 458 223 450 223 c 0
 440 223 431 233 427 248 c 0
 415 289 402 310 376 310 c 2
 283 310 l 2
 266 310 258 302 258 287 c 2
 258 97 l 2
 258 58 275 43 311 43 c 2
 397 43 l 2
 426 43 454 50 473 65 c 0
 496 83 514 113 530 145 c 0
 535 154 541 157 549 157 c 0
 556 157 559 147 559 138 c 0
 559 105 541 55 527 9 c 0
 524 0 514 -4 505 -4 c 0
 471 -4 297 0 179 0 c 0x7380
 138 0 82 -5 41 -5 c 0xa380
EndSplineSet
EndChar

StartChar: V
Encoding: 86 86 31
Width: 546
Flags: W
HStem: -3 35<18.3458 85.902 284.501 356.872> 311 44<259.166 422.111> 606 44<265.213 453.843> 619 36<22.3165 87.2849> 641 20G<482.5 502>
VStem: 105 154<51.2178 310.046 355.021 598.641> 436 34<237.697 296.069 372.856 423.872> 495 32<487.571 547.4>
LayerCount: 2
Fore
SplineSet
38 -3 m 0xe7
 28 -3 18 2 18 11 c 0
 18 22 25 29 39 32 c 0
 90 43 105 55 105 98 c 2
 105 546 l 2
 105 592 93 608 45 619 c 0
 28 623 22 631 22 640 c 0
 22 648 31 655 44 655 c 0xd7
 93 655 148 650 193 650 c 2
 368 650 l 2xe7
 422 650 468 661 497 661 c 0xcf
 507 661 521 656 522 642 c 0
 525 596 527 539 527 507 c 0
 527 495 521 487 515 487 c 0
 508 487 497 492 495 503 c 0
 485 536 476 563 459 580 c 0
 442 598 420 606 387 606 c 2
 312 606 l 2
 279 606 259 588 259 560 c 2
 259 475 l 1
 259 379 l 2
 259 362 268 355 282 355 c 2
 379 355 l 2
 413 355 426 378 438 407 c 0
 442 418 451 425 458 425 c 0
 464 425 472 417 471 403 c 0
 468 375 466 350 466 331 c 0
 466 305 467 292 470 262 c 0
 471 244 467 236 460 236 c 0
 449 236 440 247 436 260 c 0
 425 299 409 311 386 311 c 2
 339 311 l 2
 319 311 299 311 280 310 c 0
 265 310 258 302 258 287 c 0
 258 227 259 160 260 99 c 0
 260 56 280 44 336 32 c 0
 350 29 357 24 357 12 c 0
 357 2 350 -3 339 -3 c 0
 295 -3 222 2 183 2 c 0
 142 2 83 -3 38 -3 c 0xe7
EndSplineSet
EndChar

StartChar: W
Encoding: 87 87 32
Width: 719
Flags: W
HStem: -14 53<308.806 456.95> 267 37<379.447 461.459 635.625 693.839> 612 52<331.472 511.437>
VStem: 29 167<196.072 430.624> 489 126<76.7966 245.913>
LayerCount: 2
Fore
SplineSet
379 -14 m 0
 186 -14 29 119 29 314 c 0
 29 498 177 664 406 664 c 0
 460 664 564 645 607 628 c 0
 618 624 625 618 627 604 c 0
 634 558 639 514 639 486 c 0
 639 473 632 466 622 466 c 0
 606 466 600 475 595 487 c 0
 584 512 568 542 547 564 c 0
 523 588 487 612 420 612 c 0
 275 612 196 483 196 340 c 0
 196 159 265 39 395 39 c 0
 429 39 450 54 464 64 c 0
 477 74 487 100 487 129 c 0
 488 146 489 193 489 211 c 0
 489 225 484 239 467 246 c 0
 448 257 421 263 403 267 c 0
 392 269 379 277 379 289 c 0
 379 298 391 304 400 304 c 0
 445 304 511 299 553 299 c 0
 592 299 636 303 677 303 c 0
 686 303 694 298 694 288 c 0
 694 276 685 270 674 267 c 0
 636 257 627 245 622 218 c 0
 616 189 615 169 615 143 c 2
 615 111 l 2
 615 104 621 98 628 91 c 0
 634 84 638 78 638 70 c 0
 638 61 633 51 619 49 c 0
 597 46 514 -14 379 -14 c 0
EndSplineSet
EndChar

StartChar: X
Encoding: 88 88 33
Width: 801
Flags: W
HStem: -3 35<19.2554 83.5073 279.4 342.872 460.128 524.295 717.899 780.745> 302 54<254 547> 619 36<20.2845 84.1398 275.387 340.918 460.093 526.297 718.076 780.745>
VStem: 100 154<51.3266 302 356 601.123> 547 154<49.8368 302 356 601.642>
LayerCount: 2
Fore
SplineSet
39 -3 m 0
 29 -3 19 2 19 11 c 0
 19 23 26 29 40 32 c 0
 86 43 100 55 100 97 c 2
 100 551 l 2
 100 595 89 607 42 619 c 0
 28 622 20 629 20 640 c 0
 20 649 30 655 40 655 c 0
 86 655 137 650 177 650 c 0
 216 650 279 654 323 654 c 0
 335 654 341 649 341 639 c 0
 341 627 334 623 320 619 c 0
 266 604 254 590 254 550 c 2
 254 370 l 2
 254 359 261 356 270 356 c 2
 534 356 l 2
 543 356 547 359 547 370 c 2
 547 550 l 2
 547 590 536 604 482 619 c 0
 468 623 460 627 460 639 c 0
 460 649 467 654 479 654 c 0
 523 654 587 650 627 650 c 0
 666 650 715 655 761 655 c 0
 771 655 781 649 781 640 c 0
 781 629 774 622 760 619 c 0
 712 607 701 593 701 551 c 2
 701 98 l 2
 701 55 714 43 760 32 c 0
 774 29 781 23 781 11 c 0
 781 2 771 -3 762 -3 c 0
 721 -3 665 2 625 2 c 0
 585 2 523 -3 478 -3 c 0
 467 -3 460 2 460 12 c 0
 460 24 467 28 481 32 c 0
 532 46 547 60 547 98 c 2
 547 285 l 2
 547 296 544 302 535 302 c 2
 268 302 l 2
 258 302 254 296 254 286 c 2
 254 99 l 2
 254 62 271 46 322 32 c 0
 336 28 343 24 343 12 c 0
 343 2 336 -3 325 -3 c 0
 281 -3 217 2 177 2 c 0
 136 2 80 -3 39 -3 c 0
EndSplineSet
EndChar

StartChar: Y
Encoding: 89 89 34
Width: 364
Flags: W
HStem: -3 35<16.3458 85.8376 282.633 347.872> 619 36<18.2554 86.748 280.387 346.791>
VStem: 105 154<50.3777 601.387>
LayerCount: 2
Fore
SplineSet
36 -3 m 0
 26 -3 16 2 16 11 c 0
 16 22 23 29 37 32 c 0
 88 43 105 55 105 97 c 2
 105 551 l 2
 105 595 92 607 39 619 c 0
 25 622 18 629 18 640 c 0
 18 649 28 655 38 655 c 0
 83 655 141 650 182 650 c 0
 221 650 284 654 328 654 c 0
 340 654 347 649 347 640 c 0
 347 627 339 623 325 619 c 0
 271 604 259 591 259 550 c 2
 259 98 l 2
 259 59 275 46 327 32 c 0
 341 28 348 24 348 12 c 0
 348 2 341 -3 330 -3 c 0
 286 -3 222 2 182 2 c 0
 140 2 82 -3 36 -3 c 0
EndSplineSet
EndChar

StartChar: Z
Encoding: 90 90 35
Width: 370
Flags: W
HStem: -200 42<34.8256 96.5118> 619 36<36.2832 104.748 297.02 361.815>
VStem: 123 154<-3.67926 602.211>
LayerCount: 2
Fore
SplineSet
57 -200 m 0
 -36 -200 -82 -179 -82 -142 c 0
 -82 -115 -53 -84 -31 -84 c 0
 -16 -84 -2 -93 11 -108 c 0
 36 -138 45 -158 61 -158 c 0
 100 -158 123 -109 123 7 c 2
 123 551 l 2
 123 595 110 607 57 619 c 0
 44 622 36 629 36 640 c 0
 36 649 46 655 56 655 c 0
 102 655 159 650 200 650 c 0
 239 650 300 654 344 654 c 0
 355 654 362 649 362 640 c 0
 362 627 355 623 341 619 c 0
 287 604 277 591 277 550 c 2
 277 86 l 2
 277 32 242 -47 197 -106 c 0
 156 -159 107 -200 57 -200 c 0
EndSplineSet
EndChar

StartChar: bracketleft
Encoding: 91 91 36
Width: 763
Flags: W
HStem: -6 38<18.1716 91.8732 278.729 346.957 410.029 467.083 694.684 771.914> 298 33<259.002 291.997> 619 35<18.3458 85.9604 279.546 343.716 442.008 495.874 652.081 754.416>
VStem: 106 153<49.1086 297.996 331.004 602.229>
LayerCount: 2
Fore
SplineSet
46 -6 m 0
 33 -6 18 2 18 11 c 0
 18 22 27 29 44 32 c 0
 95 42 106 55 106 98 c 2
 106 551 l 2
 106 595 92 607 39 619 c 0
 25 622 18 629 18 640 c 0
 18 649 28 655 38 655 c 0
 84 655 140 650 181 650 c 0
 220 650 281 654 326 654 c 0
 337 654 344 649 344 640 c 0
 344 627 336 623 322 619 c 0
 268 604 259 590 259 550 c 2
 259 347 l 2
 259 337 263 331 269 331 c 0
 276 331 284 338 294 347 c 2
 486 554 l 2
 497 566 505 576 505 585 c 0
 505 598 491 609 464 615 c 0
 450 619 442 625 442 637 c 0
 442 646 453 651 462 651 c 2
 531 651 l 2
 598 651 660 654 729 654 c 0
 742 654 755 649 755 640 c 0
 755 628 739 621 725 619 c 0
 658 610 610 587 571 557 c 0
 511 510 459 453 398 395 c 0
 389 387 389 376 399 365 c 2
 638 97 l 2
 666 67 688 47 741 32 c 0
 755 28 772 24 772 12 c 0
 772 2 759 -5 734 -5 c 0
 673 -5 618 2 555 2 c 0
 511 2 477 -3 430 -3 c 0
 420 -3 410 3 410 12 c 0
 410 23 417 30 430 33 c 0
 459 39 471 48 472 60 c 0
 472 70 465 80 455 93 c 2
 292 282 l 2
 283 293 275 298 268 298 c 0
 262 298 259 292 259 282 c 0
 259 221 259 164 262 100 c 0
 264 62 269 46 320 32 c 0
 334 28 347 24 347 12 c 0
 347 2 332 -4 318 -4 c 0
 256 -4 222 4 184 4 c 0
 142 4 112 -6 46 -6 c 0
EndSplineSet
EndChar

StartChar: backslash
Encoding: 92 92 37
Width: 586
Flags: W
HStem: -5 56<264.45 479.912> -5 36<21.4102 86.3123> 619 36<19.2554 88.448 281.367 349.815>
VStem: 105 154<56.7998 600.487>
LayerCount: 2
Fore
SplineSet
42 -5 m 0x70
 29 -5 21 2 21 10 c 0
 21 19 30 27 42 31 c 0x70
 87 43 105 54 105 95 c 2
 105 553 l 2
 105 597 93 607 40 619 c 0
 26 622 19 629 19 640 c 0
 19 649 29 655 39 655 c 0
 85 655 141 650 182 650 c 0
 223 650 288 654 332 654 c 0
 343 654 350 649 350 640 c 0
 350 627 343 623 329 619 c 0
 274 604 259 593 259 553 c 2
 259 103 l 2
 259 66 273 51 313 51 c 2
 415 51 l 2xb0
 445 51 468 62 486 78 c 0
 509 100 525 126 539 157 c 0
 551 183 558 189 566 189 c 0
 576 189 580 177 580 169 c 0
 580 166 576 154 576 149 c 0
 560 90 552 62 547 14 c 0
 546 5 542 -5 531 -5 c 0
 476 -5 301 0 184 0 c 0
 142 0 74 -5 42 -5 c 0x70
EndSplineSet
EndChar

StartChar: bracketright
Encoding: 93 93 38
Width: 917
Flags: W
HStem: -3 35<20.6289 81.0856 205.338 277.733 555.457 625.703 828.846 894.82> 621 36<43.3537 115.405 809.308 873.5>
VStem: 630 144<224.012 427.625> 643 252<12 97>
LayerCount: 2
Fore
SplineSet
44 -3 m 0xe0
 28 -3 20 2 20 11 c 0
 20 22 34 24 48 29 c 0
 79 40 105 66 110 108 c 0
 122 201 137 369 148 518 c 0
 149 525 149 538 149 552 c 0
 149 575 141 589 125 598 c 0
 108 608 91 616 69 621 c 0
 53 625 43 631 43 642 c 0
 43 654 54 657 70 657 c 0
 109 657 197 652 260 652 c 0
 270 652 281 643 284 634 c 0
 293 608 300 587 310 561 c 2
 457 210 l 2
 459 205 465 203 468 210 c 2
 611 542 l 1
 620 589 626 617 631 634 c 0
 634 643 638 647 647 647 c 2
 690 647 l 2
 746 649 815 658 849 658 c 0
 863 658 874 654 874 643 c 0
 874 631 864 627 851 623 c 0
 843 620 830 614 823 611 c 0
 788 594 771 578 774 534 c 0xe0
 781 340 787 271 798 97 c 0
 801 63 829 43 871 32 c 0
 885 28 895 24 895 12 c 0
 895 2 885 -3 874 -3 c 0
 830 -3 760 2 720 2 c 0
 680 2 624 -3 578 -3 c 0
 566 -3 555 2 555 11 c 0
 555 22 565 29 579 32 c 0
 628 42 644 56 643 97 c 0xd0
 637 220 635 344 630 457 c 0
 630 467 624 466 620 456 c 2
 429 2 l 2
 422 -17 405 -11 400 0 c 0
 334 154 259 305 199 453 c 0
 195 465 183 461 182 446 c 0
 175 346 175 208 175 104 c 0
 175 67 199 44 250 32 c 0
 263 29 278 24 278 12 c 0
 278 2 264 -3 253 -3 c 0
 198 -3 192 1 151 1 c 0
 107 1 54 -3 44 -3 c 0xe0
EndSplineSet
EndChar

StartChar: asciicircum
Encoding: 94 94 39
Width: 809
Flags: W
HStem: -3 35<31.543 83.438 211.319 283.75> 620 38<10.4293 77.7757 545.009 617.892 723.751 798.971>
VStem: 129 48<296.875 479.991> 648 59<333.849 595.326> 648 49<207.004 367.27>
LayerCount: 2
Fore
SplineSet
680 -19 m 0xe8
 663 -19 620 0 578 51 c 1
 468 169 303 350 193 468 c 0
 189 473 183 480 180 480 c 0
 174 480 173 467 173 460 c 0
 172 369 177 213 177 111 c 0
 177 67 204 44 256 32 c 0
 270 29 284 24 284 12 c 0
 284 2 271 -3 259 -3 c 0
 204 -3 188 1 148 1 c 0
 104 1 65 -3 55 -3 c 0
 46 -3 31 2 31 11 c 0
 31 22 43 27 57 32 c 0
 89 44 105 73 108 114 c 0
 116 188 129 344 129 508 c 0
 129 577 89 601 38 620 c 0
 27 623 10 630 10 642 c 0
 10 654 22 658 36 658 c 0
 84 658 158 653 230 653 c 0
 240 653 246 648 251 642 c 0
 355 525 520 336 624 220 c 0
 628 215 635 207 640 207 c 0
 645 207 648 213 648 222 c 0xe8
 649 305 650 453 646 555 c 0
 644 592 618 607 572 618 c 0
 558 621 545 627 545 639 c 0
 545 648 558 653 570 653 c 0
 617 653 635 652 667 652 c 0
 707 652 722 655 774 655 c 0
 789 655 799 649 799 640 c 0
 799 629 789 623 773 620 c 0
 726 611 708 597 707 558 c 0xf0
 707 438 697 267 697 158 c 0
 697 112 708 42 708 26 c 0
 708 -7 697 -19 680 -19 c 0xe8
EndSplineSet
EndChar

StartChar: underscore
Encoding: 95 95 40
Width: 760
Flags: W
HStem: -14 46<316.95 469.188> 617 47<289.797 441.75>
VStem: 29 165<206.575 438.157> 565 166<211.911 439.71>
LayerCount: 2
Fore
SplineSet
375 -14 m 0
 191 -14 29 118 29 315 c 0
 29 495 153 664 384 664 c 0
 569 664 731 532 731 335 c 0
 731 155 607 -14 375 -14 c 0
393 32 m 0
 507 32 565 135 565 284 c 0
 565 448 503 617 365 617 c 0
 252 617 194 514 194 367 c 0
 194 203 255 32 393 32 c 0
EndSplineSet
EndChar

StartChar: grave
Encoding: 96 96 41
Width: 607
Flags: W
HStem: -3 35<17.3458 85.2857 283.501 356.854> 234 37<288.892 383.633> 616 44<22.1122 93.7567 267.073 381.862>
VStem: 105 154<51.2178 604.043> 431 151<361.245 551.433>
LayerCount: 2
Fore
SplineSet
37 -3 m 0
 27 -3 17 2 17 11 c 0
 17 22 24 29 38 32 c 0
 89 43 105 55 105 98 c 2
 105 546 l 2
 105 592 93 608 45 619 c 0
 28 623 22 631 22 640 c 0
 22 648 31 655 44 655 c 0
 89 655 139 650 179 650 c 0
 226 650 251 660 317 660 c 0
 479 660 582 586 582 467 c 0
 582 341 503 234 340 234 c 0
 305 234 287 245 287 260 c 0
 287 270 298 276 305 276 c 0
 319 276 327 271 346 271 c 0
 402 271 431 339 431 442 c 0
 431 565 388 616 317 616 c 0
 279 616 260 600 260 565 c 2
 259 100 l 2
 259 57 279 44 335 32 c 0
 349 29 357 24 357 12 c 0
 357 2 350 -3 338 -3 c 0
 294 -3 222 2 183 2 c 0
 141 2 82 -3 37 -3 c 0
EndSplineSet
EndChar

StartChar: a
Encoding: 97 97 42
Width: 760
Flags: W
HStem: -248 72<703.316 852.252> 614 50<283.198 444.247>
VStem: 29 165<206.832 438.923> 565 166<210.03 444.405>
LayerCount: 2
Fore
SplineSet
729 -248 m 0
 650 -248 560 -220 491 -171 c 0
 442 -136 405 -110 358 -67 c 0
 330 -43 294 -8 244 11 c 0
 156 45 29 127 29 315 c 0
 29 495 153 664 384 664 c 0
 569 664 731 532 731 335 c 0
 731 198 659 67 521 13 c 0
 514 11 510 7 510 2 c 0
 510 -2 512 -4 515 -7 c 0
 546 -38 573 -63 623 -103 c 0
 689 -156 743 -176 799 -176 c 0
 814 -176 826 -175 834 -174 c 0
 842 -172 849 -171 857 -171 c 0
 873 -171 884 -177 884 -191 c 0
 884 -203 879 -211 864 -220 c 0
 835 -238 787 -248 729 -248 c 0
393 34 m 0
 507 34 565 129 565 284 c 0
 565 453 503 614 365 614 c 0
 252 614 194 519 194 367 c 0
 194 197 255 34 393 34 c 0
EndSplineSet
EndChar

StartChar: b
Encoding: 98 98 43
Width: 760
Flags: W
HStem: -21 79<640.213 743.621> -3 35<17.3458 85.2857 283.501 356.854> 311 32<263.381 310.64> 613 44<22.7722 97.0994 268.345 368.153>
VStem: 105 154<51.2178 310.994 344.844 606.051> 411 149<418.424 569.6>
LayerCount: 2
Fore
SplineSet
645 -21 m 0xbc
 542 -21 495 19 456 71 c 0
 412 128 375 182 331 270 c 0
 325 284 316 295 304 301 c 0
 292 308 279 311 270 311 c 0
 262 311 259 303 259 291 c 2
 259 100 l 2
 259 58 279 44 335 32 c 0
 349 29 357 24 357 12 c 0
 357 2 350 -3 338 -3 c 0
 294 -3 222 2 183 2 c 0
 141 2 82 -3 37 -3 c 0
 27 -3 17 2 17 11 c 0
 17 22 24 29 38 32 c 0x7c
 89 43 105 55 105 98 c 2
 105 547 l 2
 105 595 94 609 45 619 c 0
 28 622 22 631 22 640 c 0
 22 648 31 655 44 655 c 0
 107 655 129 648 179 648 c 0
 225 648 245 657 317 657 c 0
 472 657 560 604 560 496 c 0
 560 406 492 361 432 341 c 0
 427 339 428 334 431 329 c 0
 490 239 546 161 610 101 c 0
 654 59 703 58 750 58 c 0
 760 58 765 52 765 40 c 0
 765 -4 714 -21 645 -21 c 0xbc
297 343 m 0
 372 343 411 398 411 474 c 0
 411 566 376 613 301 613 c 0
 271 613 260 596 260 521 c 0
 259 491 259 444 259 380 c 0
 259 352 273 343 297 343 c 0
EndSplineSet
EndChar

StartChar: c
Encoding: 99 99 44
Width: 494
Flags: W
HStem: -14 45<161.13 290.804> 616 48<200.049 337.343>
VStem: 24 41<145.455 209.997> 43 132<413.5 555.528> 327 130<88.888 193.011> 399 44<478.277 546.812>
LayerCount: 2
Fore
SplineSet
219 -14 m 0xd8
 161 -14 107 -1 61 28 c 0
 52 34 44 42 40 52 c 0
 27 88 22 144 24 197 c 0
 24 206 33 210 44 210 c 0
 56 210 60 207 65 198 c 0
 94 98 154 31 232 31 c 0
 295 31 327 82 327 128 c 0xe8
 327 192 290 218 213 261 c 0
 130 308 43 356 43 471 c 0
 43 587 144 664 276 664 c 0
 327 664 377 651 404 640 c 0
 420 633 425 628 431 608 c 0
 438 580 443 539 443 491 c 0
 443 484 436 478 425 478 c 0
 413 478 402 484 399 494 c 0xd4
 377 574 332 616 268 616 c 0
 207 616 175 586 175 526 c 0
 175 479 228 443 310 395 c 0
 417 330 457 278 457 187 c 0
 457 50 362 -14 219 -14 c 0xd8
EndSplineSet
EndChar

StartChar: d
Encoding: 100 100 45
Width: 695
Flags: W
HStem: -3 35<183.457 256.588 459.367 528.82> 608 41<126.021 274.661 443.173 601.952> 675 20G<679.5 692>
VStem: 280 153<52.4685 601.945> 631 45<499.292 579.862>
LayerCount: 2
Fore
SplineSet
206 -3 m 0
 196 -3 183 2 183 11 c 0
 183 22 193 29 207 32 c 0
 258 43 280 56 280 98 c 2
 280 511 l 2
 280 589 274 597 264 602 c 0
 252 608 229 608 217 608 c 2
 195 608 l 2
 153 608 111 585 89 554 c 0
 79 540 54 503 34 503 c 0
 23 503 20 512 20 521 c 0
 20 528 22 539 26 546 c 0
 51 596 62 626 66 673 c 0
 68 692 78 699 91 699 c 0
 101 699 110 676 123 665 c 0
 136 654 176 649 195 649 c 2
 571 649 l 2
 604 649 629 657 640 664 c 0
 661 676 671 695 688 695 c 0
 696 695 699 688 699 678 c 0
 699 672 698 664 697 657 c 0
 687 618 676 587 676 554 c 2
 676 535 l 2
 676 513 672 498 659 498 c 0
 647 498 640 510 631 538 c 0
 616 586 591 608 533 608 c 2
 481 608 l 2
 446 608 433 594 433 502 c 2
 433 99 l 2
 433 60 453 46 505 32 c 0
 519 28 529 24 529 12 c 0
 529 2 519 -3 508 -3 c 0
 464 -3 396 2 356 2 c 0
 314 2 252 -3 206 -3 c 0
EndSplineSet
EndChar

StartChar: e
Encoding: 101 101 46
Width: 745
Flags: W
HStem: -14 87<328.607 479.825> 610 44<257.963 326.523> 618 37<11.502 68.6271 494.441 556.779 672.538 735.466>
VStem: 90 155<162.513 599.632> 587 55<169.389 589.794>
LayerCount: 2
Fore
SplineSet
373 -14 m 0xb8
 185 -14 90 93 90 253 c 2
 90 538 l 2
 90 575 72 609 39 618 c 0
 19 624 11 631 11 640 c 0
 11 649 22 655 37 655 c 0xb8
 79 655 128 650 167 650 c 0
 205 650 264 654 302 654 c 0
 318 654 329 649 329 639 c 0
 329 625 304 620 282 610 c 0xd8
 262 601 245 578 245 533 c 2
 245 271 l 2
 245 134 318 73 407 73 c 0
 528 73 587 145 587 292 c 0
 587 344 589 422 587 483 c 0
 585 572 572 596 534 615 c 0
 519 622 494 626 494 639 c 0
 494 649 506 653 524 653 c 0
 572 653 589 651 620 651 c 0
 657 651 672 655 710 655 c 0
 725 655 736 652 736 640 c 0
 736 631 727 624 709 619 c 0
 664 606 649 579 647 531 c 0
 643 430 642 350 642 262 c 0
 641 99 522 -14 373 -14 c 0xb8
EndSplineSet
EndChar

StartChar: f
Encoding: 102 102 47
Width: 706
Flags: W
HStem: 618 36<0.457031 60.4922 272.419 349.155 446.953 519.513 643.711 710.326>
LayerCount: 2
Fore
SplineSet
348 -17 m 0
 339 -17 333 -12 328 -1 c 0
 319 19 302 57 293 86 c 2
 96 550 l 2
 83 582 63 608 24 618 c 0
 10 623 0 627 0 640 c 0
 0 649 10 654 21 654 c 0
 61 654 127 650 167 650 c 0
 207 650 283 654 323 654 c 0
 335 654 350 649 350 640 c 0
 350 629 335 621 321 619 c 0
 282 610 264 602 264 579 c 0
 264 570 267 559 269 551 c 2
 398 189 l 2
 401 181 404 178 408 190 c 2
 525 497 l 2
 551 565 536 610 477 618 c 0
 463 621 446 629 446 640 c 0
 446 649 461 653 475 653 c 0
 516 653 531 651 571 651 c 0
 610 651 642 656 681 656 c 0
 696 656 711 652 711 640 c 0
 711 628 698 625 684 620 c 0
 642 609 619 582 595 523 c 2
 443 159 l 2
 411 85 391 40 371 -1 c 0
 366 -12 361 -17 348 -17 c 0
EndSplineSet
EndChar

StartChar: g
Encoding: 103 103 48
Width: 1020
Flags: W
HStem: 618 36<0.671875 64.8088 544.625 600.232 730.455 795.641 815.953 870.342 955.297 1025.24>
VStem: 661 135<586.5 645>
LayerCount: 2
Fore
SplineSet
992 656 m 0
 1010 656 1026 652 1026 640 c 0
 1026 628 1009 625 995 620 c 0
 953 609 934 581 921 550 c 2
 688 4 l 2
 683 -7 678 -14 668 -14 c 0
 657 -14 650 -8 644 5 c 0
 621 55 586 125 531 249 c 0
 527 258 521 257 517 248 c 0
 476 168 434 87 392 7 c 0
 386 -6 382 -17 370 -17 c 0
 359 -17 355 -4 349 9 c 2
 97 554 l 2
 82 585 68 608 29 618 c 0
 15 623 0 627 0 640 c 0
 0 649 14 654 26 654 c 0
 66 654 121 650 159 650 c 0
 198 650 241 654 281 654 c 0
 287 654 292 653 296 652 c 0
 299 653 302 654 306 654 c 0
 346 654 409 650 448 650 c 0
 486 650 528 654 568 654 c 0
 588 654 601 649 601 640 c 0
 601 627 584 623 565 615 c 0
 542 609 540 594 546 579 c 0
 555 555 581 483 593 456 c 0
 602 437 606 444 611 456 c 0
 624 484 647 548 656 570 c 0
 659 575 661 584 661 589 c 0
 661 620 612 617 612 639 c 0
 612 647 614 653 635 653 c 0
 670 653 674 650 693 650 c 0
 714 651 728 655 766 655 c 0
 782 655 796 651 796 639 c 0
 796 626 783 623 769 619 c 0
 728 608 714 586 698 556 c 0
 678 518 651 461 630 417 c 0
 623 402 625 385 632 367 c 2
 709 190 l 2
 713 178 718 184 721 192 c 0
 771 304 824 436 862 539 c 0
 875 572 875 581 874 588 c 0
 872 603 863 614 846 618 c 0
 832 622 815 629 815 640 c 0
 815 649 829 653 844 653 c 0
 883 653 895 650 914 651 c 0
 936 652 955 656 992 656 c 0
491 294 m 2
 495 302 497 307 497 313 c 0
 497 318 495 324 492 332 c 2
 389 551 l 2
 376 584 348 608 309 618 c 0
 304 620 300 621 297 623 c 0
 292 622 286 620 279 619 c 0
 257 614 257 603 257 588 c 0
 257 579 261 563 262 559 c 0
 315 432 367 318 419 191 c 0
 425 176 428 174 436 190 c 2
 491 294 l 2
EndSplineSet
EndChar

StartChar: h
Encoding: 104 104 49
Width: 750
Flags: W
HStem: -2 36<-3.2594 69.5709 196.42 264.269 377.581 450.065 678.46 742.528> 619 35<18.351 76.6167 307.258 382.328 473.756 537.645 660.607 728.044>
LayerCount: 2
Fore
SplineSet
25 -7 m 0
 9 -7 -5 -3 -5 9 c 0
 -5 22 8 25 22 30 c 0
 60 41 100 65 146 124 c 2
 267 281 l 2
 284 303 286 325 267 350 c 2
 125 550 l 2
 101 584 81 608 42 619 c 0
 28 623 18 628 18 640 c 0
 18 650 28 654 39 654 c 0
 100 654 165 648 228 648 c 0
 271 648 312 654 355 654 c 0
 368 654 383 649 383 640 c 0
 383 629 368 622 354 619 c 0
 314 609 295 601 295 579 c 0
 295 572 301 558 311 544 c 2
 406 414 l 2
 419 397 428 394 440 412 c 2
 523 526 l 2
 541 550 547 568 547 581 c 0
 547 598 535 609 503 618 c 0
 490 622 473 629 473 640 c 0
 473 649 486 653 504 653 c 0
 544 653 557 650 595 650 c 0
 634 650 657 657 697 657 c 0
 712 657 729 653 729 641 c 0
 729 629 713 625 699 621 c 0
 669 612 633 584 608 554 c 2
 471 385 l 2
 456 366 454 355 470 332 c 2
 637 95 l 2
 658 65 684 41 709 34 c 0
 723 31 745 22 745 9 c 0
 745 0 734 -5 719 -5 c 0
 644 -5 586 2 523 1 c 0
 483 1 443 -2 404 -2 c 0
 392 -2 377 4 377 13 c 0
 377 24 394 31 406 34 c 0
 432 40 463 51 463 74 c 0
 463 81 460 88 454 97 c 2
 345 251 l 2
 329 274 319 280 301 254 c 2
 207 119 l 2
 190 93 189 76 190 68 c 0
 192 49 208 36 236 32 c 0
 251 29 266 21 266 10 c 0
 266 1 252 -3 237 -3 c 0
 198 -3 159 -1 135 -1 c 0
 95 -1 65 -7 25 -7 c 0
EndSplineSet
EndChar

StartChar: i
Encoding: 105 105 50
Width: 654
Flags: W
HStem: -6 37<164.251 237.928 440.316 513.915> 618 36<0.457031 58.6798 261.934 334.155 420.845 496.293 611.153 682.283>
VStem: 262 154<51.6912 332.234> 505 178<572 646>
LayerCount: 2
Fore
SplineSet
193 -6 m 0
 176 -6 164 1 164 10 c 0
 164 22 178 28 194 31 c 0
 245 41 262 67 262 110 c 2
 262 248 l 2
 262 294 247 322 231 349 c 2
 102 548 l 2
 85 576 63 608 24 618 c 0
 10 623 0 627 0 640 c 0
 0 649 10 654 21 654 c 0
 78 654 125 648 183 648 c 0
 226 648 263 654 308 654 c 0
 320 654 335 649 335 640 c 0
 335 629 320 622 306 619 c 0
 270 610 255 603 255 581 c 0
 255 572 259 559 266 546 c 2
 369 369 l 2
 375 356 382 351 387 351 c 0
 393 351 398 357 405 369 c 0
 437 424 464 476 493 537 c 0
 500 550 505 566 505 578 c 0
 505 604 477 616 451 618 c 0
 437 620 420 629 420 640 c 0
 420 649 435 653 449 653 c 0
 487 653 516 649 551 649 c 0
 586 649 616 656 653 656 c 0
 668 656 683 652 683 640 c 0
 683 628 667 624 652 619 c 0
 613 609 585 584 565 551 c 0
 522 481 485 424 444 354 c 0
 427 325 416 297 416 257 c 2
 416 110 l 2
 416 61 433 44 485 31 c 0
 501 27 514 23 514 11 c 0
 514 1 503 -5 488 -5 c 0
 444 -5 379 2 339 2 c 0
 297 2 238 -6 193 -6 c 0
EndSplineSet
EndChar

StartChar: j
Encoding: 106 106 51
Width: 596
Flags: W
HStem: -4 51<239.005 476.561> 604 45<137.548 372.998> 666 20G<76 88.5>
VStem: 548 33<127.83 173.76>
LayerCount: 2
Fore
SplineSet
521 -4 m 0
 492 -4 367 -1 258 0 c 2
 113 -3 l 1
 36 -5 l 2
 23 -5 19 19 22 24 c 2
 80 119 l 2
 175 275 272 422 368 577 c 0
 370 583 373 588 373 594 c 0
 373 599 370 604 358 604 c 2
 280 604 l 1
 209 604 l 2
 155 604 110 572 80 519 c 0
 71 504 59 485 39 485 c 0
 28 485 25 493 25 502 c 0
 25 510 28 521 32 529 c 0
 53 576 56 605 61 659 c 0
 63 679 69 686 83 686 c 0
 94 686 116 666 134 659 c 0
 158 649 183 649 220 649 c 2
 338 649 l 2
 386 649 515 654 565 654 c 0
 574 654 585 635 581 630 c 2
 513 522 l 2
 422 380 335 223 249 89 c 0
 241 77 239 69 239 63 c 0
 239 55 246 51 261 50 c 0
 279 49 315 47 336 47 c 0
 391 47 433 50 467 64 c 0
 502 78 526 107 548 161 c 0
 553 170 559 174 568 174 c 0
 575 174 581 169 581 160 c 0
 581 128 560 59 548 15 c 0
 544 2 535 -4 521 -4 c 0
EndSplineSet
EndChar

StartChar: l
Encoding: 108 108 52
Width: 718
Flags: W
HStem: -5 36<-0.573315 70.1888 195.015 266.525 369.098 449.898 638.158 720.277> 1 45<502.315 580.09> 249 33<240.006 403.907>
VStem: -2 178<4 93.5> 463 45<46.4775 178.478>
LayerCount: 2
Fore
SplineSet
27 -5 m 0xb8
 10 -5 -2 0 -2 8 c 0
 -2 17 9 24 31 31 c 0
 65 41 95 58 117 108 c 0
 192 279 236 393 304 578 c 0
 311 597 316 615 318 636 c 1
 330 640 368 643 380 651 c 0
 392 659 395 679 399 685 c 0
 400 686 403 686 404 684 c 0
 407 678 408 670 411 662 c 0
 475 459 556 223 589 128 c 0
 617 48 650 35 690 28 c 0
 713 24 723 14 723 5 c 0
 723 -3 711 -5 694 -5 c 0xb8
 666 -5 574 1 529 1 c 0x78
 490 1 422 0 398 0 c 0
 381 0 369 4 369 12 c 0
 369 21 384 28 402 31 c 0xb8
 446 38 463 54 463 76 c 0
 463 105 439 188 424 238 c 0
 421 248 415 249 397 249 c 2
 234 249 l 2
 228 249 222 245 217 231 c 0
 208 205 176 100 176 87 c 0
 176 58 202 38 234 30 c 0
 257 24 267 19 267 10 c 0
 267 2 255 -1 238 -1 c 0
 220 -1 184 1 147 1 c 0x78
 103 1 60 -5 27 -5 c 0xb8
261 282 m 2
 390 282 l 2
 400 282 404 282 404 287 c 0
 404 289 403 293 402 297 c 2
 337 500 l 2
 333 512 331 518 328 518 c 0
 326 518 322 513 318 502 c 2
 242 297 l 2
 241 294 240 291 240 289 c 0
 240 282 248 282 261 282 c 2
345.749023438 561.147460938 m 5
 366.43359375 554.209960938 377.241210938 521.870117188 379.775390625 513.9765625 c 4
 401.708007812 445.26171875 423.849609375 376.755859375 445.65625 307.9140625 c 4
 451.192382812 285.766601562 461.5 269.60546875 467.102539062 250.930664062 c 4
 482.62890625 199.174804688 508 120.7109375 508 76 c 4
 508 65.9677734375 507.14453125 58.6318359375 502.315429688 45.89453125 c 5
 510.397460938 45.9482421875 521.329101562 46 529 46 c 4x78
 543.791992188 46 559.487304688 45.513671875 580.08984375 44.7041015625 c 5
 567.713867188 62.2734375 556.263671875 85.3125 546.508789062 113.18359375 c 4
 515.783203125 201.63671875 443.934570312 410.880859375 382.376953125 603.450195312 c 5
 374.3515625 601.106445312 367.123046875 599.564453125 357.119140625 597.737304688 c 5
 356.52734375 595.272460938 345.749023438 561.147460938 345.749023438 561.147460938 c 5
EndSplineSet
EndChar

StartChar: m
Encoding: 109 109 53
Width: 637
Flags: W
HStem: -5 29<19.6924 97.1038> -4 41<267.97 396.388> 0 45<163.346 223.349> 343 28<264.046 356.952> 607 45<164.443 213.348> 627 30<30.0088 101.681 262.199 367.653>
VStem: 130 45<45.9259 606.151> 213 45<46.17 339.635 371.859 607.129> 420 45<430.207 585.519> 453 45<94.4584 273.795> 511 45<456.702 571.342> 552 45<118.257 255.938>
LayerCount: 2
Fore
SplineSet
48 -5 m 0x9310
 31 -5 19 -2 19 6 c 0
 19 15 29 20 52 24 c 0
 102 33 130 51 130 99 c 2
 130 549 l 2
 130 597 112 618 63 622 c 0
 40 624 30 633 30 642 c 0
 30 650 42 653 59 653 c 0
 113 653 147 652 188 652 c 0x9b10
 226 652 241 657 299 657 c 0
 475 657 556 617 556 508 c 0x1720
 556 463 525 427 510 412 c 0
 489 391 463 382 430 369 c 0
 425 367 424 361 430 359 c 0
 490 339 597 310 597 194 c 0
 597 84 522 51 481 30 c 0
 439 9 374 -4 298 -4 c 0x5710
 280 -4 243 0 203 0 c 0x3310
 151 0 106 -5 48 -5 c 0x9310
292 371 m 0
 328 371 346 377 387 400 c 0
 401 408 420 437 420 495 c 0
 420 552 404 627 312 627 c 0x1780
 257 627 258 612 258 582 c 2
 258 408 l 2
 258 373 276 371 292 371 c 0
325 37 m 0x5340
 413 37 453 103 453 189 c 0
 453 266 414.727539062 298.2265625 391 318 c 0
 373 333 338 343 303 343 c 0
 260 343 258 320 258 307 c 2
 258 108 l 2
 258 52 274 37 325 37 c 0x5340
470.623046875 75.171875 m 0
 510.669921875 95.3125 552 117.256835938 552 194 c 0x1350
 552 252.021484375 515.172851562 278.581054688 469.0078125 297.45703125 c 0
 485.119140625 271.149414062 498 235.834960938 498 189 c 0
 498 148.693359375 489.161132812 108.579101562 470.623046875 75.171875 c 0
457.03125 429.296875 m 0
 466.030273438 433.869140625 472.706054688 438.344726562 478.180664062 443.819335938 c 0
 490.841796875 456.481445312 511 483.615234375 511 508 c 0
 511 552.047851562 496.447265625 581.8359375 442.018554688 597.872070312 c 0
 460.157226562 562.966796875 465 522.962890625 465 495 c 0x13a0
 465 470.391601562 462.3125 448.34765625 457.03125 429.296875 c 0
213 582 m 0
 212.858398438 587.90625 211.85546875 596.845703125 213.34765625 607.633789062 c 0
 205.891601562 607.248046875 197.709960938 607 188 607 c 0
 179.657226562 607 173.893554688 607.026367188 164.443359375 607.098632812 c 1
 172.099609375 589.59375 175 568.87109375 175 549 c 2
 175 99 l 2
 175 79.7998046875 172.282226562 62.7685546875 163.345703125 44.1884765625 c 1
 175.577148438 44.6435546875 189.379882812 45 203 45 c 0x3b
 209.887695312 45 216.705078125 44.89453125 223.348632812 44.7177734375 c 0
 214.313476562 64.6845703125 213 86.865234375 213 108 c 0
 215.231445312 296.46484375 217.47265625 394.924804688 213 582 c 0
EndSplineSet
EndChar

StartChar: n
Encoding: 110 110 54
Width: 735
Flags: W
HStem: -15 31<369.546 531.413> 632 31<360.588 537.297>
VStem: 46 45<215.505 426.272> 151 45<209.282 467.165> 639 34<476.228 539.064>
LayerCount: 2
Fore
SplineSet
432 -15 m 0
 245 -15 46 99 46 323 c 0
 46 537 252 663 457 663 c 0
 534 663 567 654 635 637 c 0
 655 632 662 621 664 603 c 0
 667 572 671 540 673 488 c 0
 674 473 645 464 639 487 c 0
 626 538 612 574 577 598 c 0
 544 620 495 632 440 632 c 0
 284 632 196 494 196 347 c 0
 196 184 281 16 447 16 c 0
 543 16 602 62 646 141 c 0
 655 158 680 159 680 138 c 0
 680 122 665 70 653 41 c 0
 643 22 642 21 621 14 c 0
 572 -6 497 -15 432 -15 c 0
231.110351562 82.2685546875 m 1
 177.083984375 154.961914062 151 252.435546875 151 347 c 0
 151 413.952148438 166.470703125 478.22265625 199.14453125 535.356445312 c 1
 133.482421875 484.717773438 91 413.606445312 91 323 c 0
 91 209.088867188 147.90625 130.890625 231.110351562 82.2685546875 c 1
EndSplineSet
EndChar

StartChar: o
Encoding: 111 111 55
Width: 804
Flags: W
HStem: -7 35<29.2661 112.208 241.538 475.738> 0 45<164.958 233.217> 606 45<163.544 218.473> 628 31<29.7439 94.0156 273.093 449.586>
VStem: 129 45<45.4047 605.446> 214 45<54.2664 605.874> 624 45<186.374 454.32> 724 45<235.056 450.139>
LayerCount: 2
Fore
SplineSet
396 -7 m 0x9f
 376 -7 267 0 188 0 c 0
 148 0 111 -5 58 -5 c 0
 41 -5 29 -2 29 8 c 0
 29 19 39 20 62 24 c 0
 112 33 129 51 129 99 c 2
 129 549 l 2
 129 597 112 613 62 622 c 0
 39 626 29 629 29 640 c 0
 29 649 41 653 58 653 c 0
 109 653 146 651 194 651 c 0x6f
 237 651 338 659 365 659 c 0
 636 659 769 527 769 342 c 0
 769 140 587 -7 396 -7 c 0x9f
384 28 m 0x9f
 540 28 624 151 624 325 c 0
 624 517 507 628 370 628 c 0
 283 628 259 624 259 567 c 2
 259 121 l 2
 259 40 309 28 384 28 c 0x9f
588.208007812 570.359375 m 4
 638.303710938 510.23046875 669 426.189453125 669 325 c 4
 669 250.603515625 653.703125 181.359375 623.483398438 124.909179688 c 4
 684.395507812 179.325195312 724 255.438476562 724 342 c 4
 724 440.413085938 682.69921875 522.869140625 588.208007812 570.359375 c 4
233.216796875 44.4140625 m 4
 221.186523438 63.6845703125 214 88.6923828125 214 121 c 6
 214 567 l 6
 214 579.581054688 214.772460938 593.178710938 218.47265625 606.498046875 c 4
 209.337890625 606.184570312 201.022460938 606 194 606 c 4
 183.28125 606 173.962890625 606.086914062 163.543945312 606.244140625 c 5
 171.198242188 589.271484375 174 568.512695312 174 549 c 6
 174 99 l 6
 174 80.310546875 172.33203125 62.9423828125 164.958007812 44.54296875 c 5
 171.21875 44.7734375 180.340820312 45 188 45 c 4x6f
 202.317382812 45 217.62890625 44.7783203125 233.216796875 44.4140625 c 4
EndSplineSet
EndChar

StartChar: p
Encoding: 112 112 56
Width: 588
Flags: W
HStem: -5 40<284.438 478.011> -5 29<37.6924 113.925> 1 45<178.757 238.024> 320 32<274.086 408.55> 606.677 46.3232<178.349 230.923> 618 35<46.1729 128.247 278.59 471.859>
VStem: 144 45<46.2431 605.836> 228 45<46.6232 319.486 352 605.208> 421 32<245.13 308.422 363.353 422.255> 504 25<526.084 573.315>
LayerCount: 2
Fore
SplineSet
66 -5 m 0x53c0
 49 -5 37 -2 37 6 c 0
 37 15 47 20 70 24 c 0x53c0
 120 33 144 51 144 99 c 2
 144 549 l 2
 144 597 127 613 77 622 c 0
 54 626 44 633 44 642 c 0
 44 650 56 653 73 653 c 0
 148 653 229 650 299 650 c 0
 343 650 369 651 411 651 c 2
 496 653 l 2
 503 653 513 651 514 644 c 0
 521 606 529 568 529 541 c 0
 529 529 521 526 515 526 c 0
 508 526 506 529 504 536 c 0
 497 558 491 581 482 591 c 0
 463 612 440 618 415 618 c 2
 309 618 l 2
 298 618 273 605 273 586 c 2
 273 374 l 2
 273 362 281 352 291 352 c 2
 365 352 l 2
 404 352 413 364 423 401 c 0
 427 416 433 423 441 423 c 0
 446 423 454 417 454 407 c 0
 454 398 451 353 451 337 c 0
 451 317 453 268 453 260 c 0
 453 251 452 243 444 243 c 0
 434 243 426 254 421 275 c 0
 413 306 401 320 375 320 c 2
 307 320 l 2
 284 320 273 317 273 294 c 2
 273 102 l 2
 273 51 294 35 339 35 c 2
 388 35 l 2x97c0
 431 35 458 39 479 52 c 0
 500 66 515 89 536 129 c 0
 540 137 545 143 552 142 c 0
 559 141 563 136 563 128 c 0
 563 110 544 39 532 12 c 0
 528 3 526 -5 518 -5 c 0x53c0
 390 -5 305 1 205 1 c 0x33c0
 160 1 120 -5 66 -5 c 0x53c0
178.756835938 45.4296875 m 1
 186.318359375 45.7353515625 196.150390625 46 205 46 c 0
 216.293945312 46 226.451171875 45.93359375 238.024414062 45.7958984375 c 1
 230.693359375 63.095703125 228 82.224609375 228 102 c 0
 228 263.333007812 228 424.666992188 228 586 c 4
 228 593.213867188 228.15625 595.397460938 230.922851562 605.684570312 c 1
 214.596679688 605.963867188 196.793945312 606.319335938 178.348632812 606.676757812 c 1x3bc0
 186.424804688 588.76953125 189 568.744140625 189 549 c 2
 189 99 l 2
 189 80.470703125 186.462890625 62.77734375 178.756835938 45.4296875 c 1
EndSplineSet
EndChar

StartChar: q
Encoding: 113 113 57
Width: 537
Flags: W
HStem: -5 29<30.6924 104.863 290.561 361.308> 2 45<166.248 228.377> 319 31<262.195 398.625> 605.691 44.3086<160.738 219.503> 617 33<39.9696 111.41 265.339 450.655> 640 20G<475 490.5>
VStem: 130 45<46.4663 603.448> 214 46<47.4091 316.741 350.008 605.005> 421 32<256.771 305.032> 486 24<529.355 573.023>
LayerCount: 2
Fore
SplineSet
59 -5 m 0xa3c0
 42 -5 30 -2 30 6 c 0
 30 15 40 20 63 24 c 0
 113 33 130 51 130 100 c 2
 130 522 l 2
 130 582 119 613 69 622 c 0
 46 626 36 633 36 642 c 0
 36 650 48 653 65 653 c 0
 138 653 218 650 287 650 c 2
 388 650 l 2xabc0
 431 650 463 660 487 660 c 0x27c0
 494 660 504 658 505 651 c 0
 508 628 510 564 510 550 c 0
 510 538 507 529 501 529 c 0
 494 529 488 534 486 541 c 0
 480 563 472 580 463 590 c 0
 444 611 421 617 396 617 c 2
 294 617 l 2
 263 617 261 593 260 567 c 0
 259 542 259 502 259 467 c 0
 259 433 259 396 260 372 c 0
 260 361 261 350 270 350 c 0
 312 350 337 353 361 353 c 0
 390 353 412 371 422 394 c 0
 424 399 435 411 440 411 c 0
 445 411 454 404 453 395 c 0
 451 372 450 356 450 340 c 0
 450 320 451 301 453 272 c 0
 453 263 452 255 444 255 c 0
 431 255 423 271 421 278 c 0
 411 309 390 318 374 318 c 0
 357 318 340 319 324 319 c 0
 301 319 305 319 284 317 c 0
 271 316 260 309 260 292 c 0
 260 231 260 167 263 101 c 0
 265 58 279 33 329 24 c 0
 352 20 362 15 362 6 c 0
 362 -2 350 -5 333 -5 c 0xabc0
 279 -5 248 2 210 2 c 0x63c0
 161 2 113 -5 59 -5 c 0xa3c0
166.248046875 45.58203125 m 1
 179.206054688 46.3251953125 195.256835938 47 210 47 c 0
 216.596679688 47 220.657226562 46.8994140625 228.376953125 46.548828125 c 1
 221.803710938 62.7509765625 218.8515625 81.6533203125 218.048828125 98.9091796875 c 0
 212.217773438 227.1953125 214 340.325195312 214 467 c 0
 214 502.110351562 213.967773438 542.102539062 215.036132812 568.798828125 c 0
 215.421875 578.840820312 215.62890625 591 219.502929688 605.69140625 c 1x73c0
 201.264648438 606.0078125 181.380859375 606.419921875 160.73828125 606.821289062 c 1
 173.014648438 580.255859375 175 552.239257812 175 522 c 6
 175 100 l 6
 175 81.166015625 173.53125 64.48046875 166.248046875 45.58203125 c 1
EndSplineSet
EndChar

StartChar: r
Encoding: 114 114 58
Width: 779
Flags: W
HStem: -14 37<345.565 503.692> 241 45<597.542 642.455> 256 34<437.011 535.328 692.232 742.897> 625 38<344.839 533.896>
VStem: 45 45<205.029 418.368> 149 45<189.253 458.211> 560 45<72.4729 237.164> 619 38<492.515 555.002> 630 45<83.896 241.341>
LayerCount: 2
Fore
SplineSet
417 -14 m 0xbe80
 232 -14 45 106 45 311 c 0
 45 529 239 663 438 663 c 0
 484 663 611 643 638 630 c 0
 644 627 646 625 647 618 c 0
 652 579 657 538 657 512 c 0
 657 502 650 492 642 492 c 0
 628 492 623 507 619 519 c 0
 611 540 604 553 588 572 c 0
 575 588 524 625 429 625 c 0
 274 625 194 482 194 324 c 0
 194 134 298 23 431 23 c 0
 486 23 516 48 528 60 c 0
 543 75 558 102 558 137 c 0
 558 154 560 177 560 195 c 0
 560 209 559 220 555 225 c 0
 538 247 477 256 457 256 c 0
 452 256 437 263 437 273 c 0
 437 283 452 290 457 290 c 0xbf
 506 290 553 286 608 286 c 0xdf
 643 286 686 290 722 290 c 0
 727 290 743 287 743 274 c 0
 743 265 727 257 722 256 c 0
 693 248 684 234 680 207 c 0
 676 178 675 157 675 132 c 2
 675 105 l 2
 675 98 678 95 681 89 c 0
 685 82 694 77 694 72 c 0
 694 67 694 55 680 53 c 0
 660 50 544 -14 417 -14 c 0xbe80
217.388671875 87.134765625 m 1
 173.314453125 147.380859375 149 228.381835938 149 324 c 0
 149 402.421875 166.638671875 478.7734375 204.477539062 541.203125 c 1
 135.23046875 487.609375 90 410.3203125 90 311 c 0
 90 210.892578125 141.051757812 135.6328125 217.388671875 87.134765625 c 1
586.276367188 65.2919921875 m 1
 604.63671875 71.9951171875 619.663085938 78.1494140625 633.540039062 83.837890625 c 0
 633.17578125 84.890625 630 98.0419921875 630 105 c 2
 630 132 l 2
 630 158.350585938 631.118164062 181.946289062 635.453125 213.372070312 c 0
 636.928710938 223.334960938 638.25 230.424804688 642.455078125 241.874023438 c 1
 631.94140625 241.422851562 619.08984375 241 608 241 c 0xde80
 604.388671875 241 601.635742188 241.01171875 597.541992188 241.044921875 c 1
 605 224.463867188 605 208.072265625 605 195 c 0
 605 174.069335938 603 150.891601562 603 137 c 0
 603 109.989257812 596.064453125 85.2255859375 586.276367188 65.2919921875 c 1
EndSplineSet
EndChar

StartChar: s
Encoding: 115 115 59
Width: 860
Flags: W
HStem: -5 29<37.1389 109.095 301.062 371.861 501.139 571.913 749.378 819.861> 0 44.1738<167.353 232.122 635.674 693.305> 307 38<260 601.981> 605 45<169.112 226.491 635.654 693.762> 622 31<44.3628 116.701 285.842 360.637 503.363 576.241 747.262 817.637>
VStem: 130 45<45.0509 604.671> 215 45<53.5983 307 345 603.656> 602 45<45.2658 307 345 604.064> 687 45<45.0531 604.262>
LayerCount: 2
Fore
SplineSet
66 -5 m 0xa780
 49 -5 37 0 37 8 c 0
 37 17 46 20 69 24 c 0
 119 33 130 51 130 99 c 2
 130 551 l 2
 130 597 127 613 77 622 c 0
 54 626 44 631 44 640 c 0
 44 648 53 653 73 653 c 0xaf80
 127 653 161 650 201 650 c 0x3780
 242 650 278 653 332 653 c 0
 352 653 361 648 361 640 c 0
 361 631 351 626 328 622 c 0
 278 613 260 590 260 551 c 2
 260 354 l 2
 260 346 268 345 274 345 c 2
 595 345 l 2
 600 345 602 348 602 357 c 2
 602 552 l 2
 602 588 586 613 536 622 c 0
 513 626 503 631 503 640 c 0
 503 648 514 653 532 653 c 0x2f80
 586 653 628 650 673 650 c 0x3780
 709 650 735 653 789 653 c 0
 808 653 818 648 818 640 c 0
 818 631 808 626 785 622 c 0
 735 613 732 590 732 552 c 2
 732 100 l 2
 732 51 738 33 788 24 c 0
 811 20 820 17 820 8 c 0
 820 0 808 -5 791 -5 c 0xaf80
 737 -5 703 0 662 0 c 0x6780
 620 0 584 -5 530 -5 c 0
 513 -5 501 0 501 8 c 0
 501 17 510 20 533 24 c 0
 575 32 602 54 602 97 c 2
 602 292 l 2
 602 299 603 307 597 307 c 2
 265 307 l 2
 260 307 260 304 260 296 c 2
 260 106 l 2
 260 64 294 32 340 24 c 0
 363 20 372 17 372 8 c 0
 372 0 360 -5 343 -5 c 0xa780
 289 -5 247 0 201 0 c 0x6780
 158 0 120 -5 66 -5 c 0xa780
647 97 m 0
 647 78.5224609375 643.926757812 61.8603515625 635.673828125 44.4501953125 c 1
 642.787109375 44.7275390625 653.140625 45 662 45 c 0
 673.056640625 45 682.265625 44.71484375 693.3046875 44.201171875 c 1
 687.638671875 62.365234375 687 81.15234375 687 100 c 2
 687 552 l 2
 687 568.137695312 686.197265625 583.123046875 693.76171875 605.295898438 c 1
 687.383789062 605.126953125 680.211914062 605 673 605 c 0x3780
 660.248046875 605 648.182617188 605.22265625 635.654296875 605.555664062 c 1
 643.366210938 589.791992188 647 569.16796875 647 552 c 0
 647 400.333007812 647 248.666992188 647 97 c 0
215 551 m 2
 215 568.931640625 217.72265625 587.4921875 226.491210938 605.330078125 c 1
 219.223632812 605.15625 209.553710938 605 201 605 c 0
 189.865234375 605 180.206054688 605.196289062 169.112304688 605.526367188 c 1
 174.9453125 587.27734375 175 568.774414062 175 551 c 2
 175 99 l 2
 175 80.380859375 174.075195312 62.9033203125 167.352539062 44.173828125 c 1x7780
 177.744140625 44.6328125 189.455078125 45 201 45 c 0
 211.861328125 45 220.603515625 44.794921875 232.122070312 44.3681640625 c 1
 221.428710938 62.5322265625 215 83.5244140625 215 106 c 2
 215 551 l 2
EndSplineSet
EndChar

StartChar: t
Encoding: 116 116 60
Width: 390
Flags: W
HStem: -5 29<19.6924 97.1038 293.602 371.308> 0 45<163.553 226.497> 605 45<165.017 225.869> 622 31<31.0745 107.441 285.205 362.926>
VStem: 130 45<45.995 604.66> 215 45<46.75 604.158>
LayerCount: 2
Fore
SplineSet
48 -5 m 0x8c
 31 -5 19 -2 19 6 c 0
 19 15 29 20 52 24 c 0
 102 33 130 51 130 98 c 2
 130 550 l 2
 130 597 113 613 63 622 c 0
 40 626 30 633 30 642 c 0
 30 650 42 653 59 653 c 0x9c
 113 653 155 650 201 650 c 0x2c
 244 650 281 653 335 653 c 0
 352 653 364 650 364 642 c 0
 364 633 354 626 331 622 c 0
 281 613 260 597 260 550 c 2
 260 98 l 2
 260 51 289 33 339 24 c 0
 362 20 372 15 372 6 c 0
 372 -2 360 -5 343 -5 c 0x9c
 289 -5 247 0 201 0 c 0x4c
 151 0 102 -5 48 -5 c 0x8c
163.552734375 44.248046875 m 1
 175.077148438 44.6640625 188.440429688 45 201 45 c 0
 209.698242188 45 218.0859375 44.8359375 226.497070312 44.5654296875 c 1
 219.171875 59.541015625 215 79.4462890625 215 98 c 2
 215 550 l 2
 215 569.11328125 216.911132812 585.803710938 225.869140625 605.291992188 c 1
 219.09765625 605.143554688 209.310546875 605 201 605 c 0x6c
 188.594726562 605 177.541992188 605.188476562 165.016601562 605.504882812 c 1
 172.748046875 587.497070312 175 568.97265625 175 550 c 2
 175 98 l 2
 175 79.1875 172.46875 62.9580078125 163.552734375 44.248046875 c 1
EndSplineSet
EndChar

StartChar: u
Encoding: 117 117 61
Width: 390
Flags: W
HStem: -200 41<26.5867 101.645> 605 45<164.952 222.03> 622 31<32.1602 107.232 275.944 348.926>
VStem: 130 45<-75.0766 604.773> 215 45<-35.4842 604.289>
LayerCount: 2
Fore
SplineSet
34 -200 m 0xb8
 -34 -200 -69 -182 -69 -151 c 0
 -69 -128 -45 -104 -30 -104 c 0
 -13 -104 3 -111 17 -129 c 0
 34 -151 47 -159 64 -159 c 0
 111 -159 130 -98 130 -1 c 2
 130 551 l 2
 130 597 112 613 64 622 c 0
 42 626 31 633 31 642 c 0
 31 650 43 653 60 653 c 0xb8
 114 653 156 650 202 650 c 0xd8
 239 650 267 653 321 653 c 0
 338 653 350 650 350 642 c 0
 350 633 340 626 317 622 c 0
 267 613 260 597 260 551 c 2
 260 47 l 2
 260 -37 205.575195312 -113.501953125 168 -146 c 0
 131 -178 73 -200 34 -200 c 0xb8
170.416015625 -76.15625 m 1
 193.916992188 -43.568359375 215 2.9287109375 215 47 c 2
 215 551 l 2
 215 569.296875 214.870117188 584.45703125 222.030273438 605.259765625 c 1
 215.641601562 605.106445312 208.9375 605 202 605 c 0xd8
 189.194335938 605 178.010742188 605.196289062 164.952148438 605.53125 c 1
 172.09765625 589.41796875 175 569.528320312 175 551 c 2
 175 -1 l 2
 175 -28.2119140625 173.633789062 -53.154296875 170.416015625 -76.15625 c 1
EndSplineSet
EndChar

StartChar: v
Encoding: 118 118 62
Width: 732
Flags: W
HStem: -5 29<31.6924 105.863 294.783 362.308 659.044 738.308> 0 45<167.119 233.492 491 581.355> 606 45<165.799 223.555> 622 31<32.0745 108.441 276.967 346.926 459.311 507.01 627.716 723.827>
VStem: 131 45<46.4438 605.458> 216 45<50.145 279.071 345.01 605.236> 446 45<44.7772 78.5312>
LayerCount: 2
Fore
SplineSet
60 -5 m 0x8e
 43 -5 31 -2 31 6 c 0
 31 15 41 20 64 24 c 0
 114 33 131 51 131 101 c 2
 131 551 l 2
 131 597 114 613 64 622 c 0
 41 626 31 633 31 642 c 0
 31 650 43 653 60 653 c 0x9e
 114 653 153 651 197 651 c 0x2e
 235 651 265 653 319 653 c 0
 336 653 348 650 348 642 c 0
 348 633 338 626 315 622 c 0x1e
 265 613 261 590 261 551 c 2
 261 364 l 2
 261 359 261 345 266 345 c 0
 273 345 287 355 294 363 c 2
 494 567 l 2
 504 577 509 588 509 597 c 0
 509 608 502 617 490 620 c 0
 467 626 459 631 459 640 c 0
 459 648 471 651 488 651 c 2
 542 651 l 2
 599 651 691 655 704 655 c 0
 717 655 726 651 726 644 c 0
 726 635 716 628 693 624 c 0
 643 615 587 597 541 558 c 0
 469 497 445 462 375 385 c 0
 370 380 374.31640625 374.248046875 380 367 c 2
 596 95 l 2
 639 47 649 36 706 24 c 0
 729 19 739 15 739 6 c 0
 739 -2 727 -5 710 -5 c 0xae
 651 -5 591 0 536 0 c 0x4e
 511 0 465 -1 420 -1 c 0
 403 -1 391 2 391 10 c 0
 391 19 399 23 418 27 c 0
 438 32 446 39 446 47 c 0
 446 55 438 62 431 72 c 2
 272 281 l 2
 267.737304688 286.603515625 261 290.958007812 261 282 c 0
 261 219 263 190 266 110 c 0
 268 67 280 33 330 24 c 0
 353 20 363 15 363 6 c 0
 363 -2 351 -5 334 -5 c 0
 280 -5 249 2 211 2 c 0
 162 2 114 -5 60 -5 c 0x8e
216 551 m 0
 216 567.939453125 215.375976562 583.821289062 223.5546875 606.284179688 c 1
 216.00390625 606.135742188 206.063476562 606 197 606 c 0x2e
 186.28515625 606 176.376953125 606.108398438 165.798828125 606.286132812 c 1
 173.591796875 588.641601562 176 569.763671875 176 551 c 2
 176 101 l 2
 176 81.7978515625 174.354492188 64.138671875 167.119140625 45.57421875 c 1
 180.379882812 46.3349609375 196.169921875 47 211 47 c 0
 218.830078125 47 226.143554688 46.7470703125 233.4921875 46.3330078125 c 1
 224.987304688 66.4228515625 221.978515625 87.9140625 221.0390625 108.111328125 c 0
 218.045898438 187.943359375 216 217.69140625 216 282 c 0
 216 371.666992188 216 461.333007812 216 551 c 0
303.98046875 312.903320312 m 1
 305.299804688 311.368164062 306.9453125 309.387695312 307.814453125 308.24609375 c 2
 467.354492188 98.5361328125 l 2
 469.680664062 95.212890625 491 72.1826171875 491 44.572265625 c 1
 507.104492188 44.7744140625 524.590820312 45 536 45 c 0x4e
 551.119140625 45 565.603515625 44.6630859375 581.35546875 44.134765625 c 1
 576.646484375 49.2119140625 569.1796875 57.498046875 562.482421875 64.9736328125 c 2
 561.499023438 66.072265625 l 1
 560.588867188 67.2314453125 l 1
 342.588867188 345.231445312 l 2
 341.971679688 346.018554688 341.877929688 346.140625 341.262695312 346.9296875 c 2
 326.887695312 332.266601562 l 2
 321.893554688 326.793945312 312.177734375 318.368164062 303.98046875 312.903320312 c 1
EndSplineSet
EndChar

StartChar: x
Encoding: 120 120 63
Width: 926
Flags: W
HStem: -5 29<19.6924 83.1305 195.703 261.308 560.692 628.169 814.765 889.308> 0 45<682.345 748.754> 603 45<188.694 237.251 697.018 723.195> 624 31<42.8083 116.833 801.112 867.344>
VStem: 155 45<468.503 593.484> 644 45<44.5506 304.985> 709.79 4.36426<593.797 603> 715 45<360.551 600.684> 737.058 44.942<45.757 301.413>
LayerCount: 2
Fore
SplineSet
48 -5 m 0x8e80
 31 -5 19 -2 19 6 c 0
 19 15 29 20 52 24 c 0
 85 30 107 55 114 102 c 0
 138 282 155 444 155 528 c 0
 155 538 155 551 154 561 c 0
 153 572 152 583 139 594 c 0
 115 614 94 618 64 624 c 0
 51 627 42 635 42 644 c 0
 42 654 56 655 76 655 c 0x9e80
 102 655 226 647 252 647 c 0
 261 647 268 641 271 631 c 0
 278 607 283 579 293 554 c 2
 446 166 l 2
 448.244606302 160.307795784 453.284331004 160.424184619 455 164 c 2
 645 560 l 1
 651 582 659 614 663 635 c 0
 665 643 668 648 673 648 c 2
 719 648 l 2
 759 648 825 656 848 656 c 0
 854 656 869 655 869 646 c 0
 869 637 863 633 843 625 c 0
 825 618 802 610 784 602 c 0
 770 596 760 583 760 568 c 0x2f
 760 382 774 246 782 95 c 0
 784 54 807 33 857 24 c 0
 880 20 890 15 890 6 c 0
 890 -2 878 -5 861 -5 c 0xae80
 807 -5 765 0 719 0 c 0x4e80
 678 0 643 -5 589 -5 c 0
 572 -5 560 -2 560 6 c 0
 560 15 570 21 593 24 c 0
 632 29 644 49 644 96 c 0
 644 240 642 289.866732445 634 425 c 0
 633.290831819 436.979026692 627.708618653 436.633677824 622 425 c 2
 411 -5 l 2
 408 -12 370.103243286 -12.9649250476 367 -4 c 0
 313 152 275 252 202 427 c 0
 199.068004835 434.028755534 190.895422658 434.014144158 190 427 c 0
 172 286 165 237 164 102 c 0
 163.733340649 66.0009876137 188 32 229 24 c 0
 252 20 262 15 262 6 c 0
 262 -2 250 -5 233 -5 c 0x8e80
 179 -5 176 0 139 0 c 0x4e80
 103 0 102 -5 48 -5 c 0x8e80
653.186979324 473.037115967 m 1
 678.670275021 455.041722239 678.529954289 434.270704961 678.921350096 427.659380679 c 0
 686.923281061 292.49349592 689 240.277901108 689 96 c 0
 689 77.5699503314 688.27000369 63.3604983338 682.344879049 43.9448724389 c 1
 692.668480472 44.4755453873 706.425146937 45 719 45 c 0
 729.266864 45 738.426281066 44.7917248065 748.754304167 44.4190062549 c 1
 741.935245749 58.575368374 737.850396448 76.4699639777 737.058036203 92.7133490007 c 0x6e80
 729.149472778 241.987483658 715 379.707495086 715 568 c 0
 715 580.747904199 716.954770359 589.692598024 723.195091018 603.023057891 c 1
 721.984671842 603.012373092 720.374068357 603 719 603 c 2x6f
 702.197727613 603 l 1
 698.304836545 585.996206401 692.648819971 563.686026129 688.414371956 548.159716739 c 2
 687.339272185 544.217684246 l 1
 685.571734559 540.533763722 l 1
 653.186979324 473.037115967 l 1
196.56640625 478.395507812 m 5
 218.009765625 474.881835938 237.222441833 459.448845057 243.531436745 444.324542185 c 0
 308.877892554 287.672079628 346.37910098 190.690938404 392.518193296 59.4876001885 c 1
 424.388373122 124.436307889 l 1
 414.013211821 131.440483452 407.46077527 141.063831866 404.137199515 149.4922462 c 2
 251.177623424 537.389733279 l 2
 241.792011677 560.853762648 236.908774037 583.317999579 232.051122649 602.541919111 c 1
 221.677288891 602.960859844 204.850722447 603.785035253 187.899833437 604.670545517 c 1
 187.899833437 604.670545517 188.947908485 602.739520668 189.541472013 601.561895697 c 0
 197.473883394 585.824059244 198.253609637 571.251539762 198.796842823 565.275974721 c 0
 200.108513494 552.159268013 200 538.030724523 200 528 c 0
 200 513.064052983 197.491210938 497.05078125 196.56640625 478.395507812 c 5
709.790039062 593.643554688 m 1
 710.49609375 596.598632812 711.586914062 601.2578125 711.989257812 603 c 2
 714.154296875 603 l 1
 712.25390625 599.489257812 711.112304688 596.920898438 709.790039062 593.643554688 c 1
EndSplineSet
EndChar

StartChar: braceleft
Encoding: 123 123 64
Width: 602
Flags: W
HStem: -5 29<24.6924 100.631 289.305 359.308> 2 45<164.939 226.87> 254 31<284.022 389.057> 607 45<160.591 217.133> 622 31<37.0745 105.304> 630 28<271.934 380.521>
VStem: 130 45<46.523 603.317> 215 45<47.6199 607.219> 441 45<338.355 577.943> 532 45<387.377 548.762>
LayerCount: 2
Fore
SplineSet
53 -5 m 0xa3c0
 36 -5 24 -2 24 6 c 0
 24 15 34 20 57 24 c 0
 107 33 130 51 130 100 c 2
 130 522 l 2
 130 582 119 613 69 622 c 0
 46 626 36 633 36 642 c 0
 36 650 48 653 65 653 c 0xabc0
 119 653 147 652 188 652 c 0x33c0
 228 652 296 658 324 658 c 0
 483 658 577 593 577 480 c 0
 577 337 481 254 328 254 c 0
 299 254 283 265 283 273 c 0
 283 278 292 287 299 287 c 0
 305 287 318 285 345 285 c 0
 412 285 441 355 441 473 c 0
 441 579 400 630 324 630 c 0
 286 630 260 618 260 588 c 2
 260 111 l 2
 260 63 277 33 327 24 c 0
 350 20 360 15 360 6 c 0
 360 -2 348 -5 331 -5 c 0xa7c0
 277 -5 246 2 208 2 c 0x63c0
 157 2 107 -5 53 -5 c 0xa3c0
217.1328125 607.680664062 m 1
 206.870117188 607.275390625 196.827148438 607 188 607 c 0
 178.141601562 607 170.407226562 607.045898438 160.590820312 607.138671875 c 1
 173.138671875 579.986328125 175 552.340820312 175 522 c 2
 175 100 l 2
 175 81.20703125 172.500976562 63.0615234375 164.939453125 45.708984375 c 1
 177.53125 46.3837890625 193.537109375 47 208 47 c 0x73c0
 214.625976562 47 219.997070312 46.8525390625 226.870117188 46.5244140625 c 1
 218.157226562 66.6181640625 215 89.0693359375 215 111 c 0
 215 270 215 429 215 588 c 0
 215 594.096679688 215.752929688 601.11328125 217.1328125 607.680664062 c 1
466.084960938 585.42578125 m 1
 480.186523438 553.293945312 486 515.8046875 486 473 c 0
 486 420.678710938 481.100585938 375.760742188 467.666015625 337.075195312 c 1
 507.508789062 366.065429688 532 411.487304688 532 480 c 0
 532 529.46875 511.056640625 562.256835938 466.084960938 585.42578125 c 1
EndSplineSet
EndChar

StartChar: bar
Encoding: 124 124 65
Width: 823
Flags: W
HStem: -248 65<664.756 873.233> -19 45<384.086 479.49> 622 42<294.679 487.377>
VStem: 45 45<211.658 423.231> 146 45<195.283 505.486> 622 45<143.344 453.204> 723 45<222.359 437.945>
LayerCount: 2
Fore
SplineSet
769 -248 m 0
 673 -248 597 -239 533 -193 c 0
 481 -156 435.504882812 -132.9921875 375 -74 c 0
 335 -35 293.9296875 1.212890625 275 10 c 0
 165.846679688 60.6669921875 45 151 45 315 c 0
 45 495 189 664 411 664 c 0
 587 664 768 532 768 335 c 0
 768 183 677.946289062 72.1240234375 519 4 c 0
 516.904296875 3.1015625 516 1 516 -1 c 0
 516 -4 518 -6 521 -9 c 0
 560 -51 588 -79 638 -109 c 0
 708.673828125 -151.404296875 755 -183 833 -183 c 0
 871.971679688 -183 905.625 -171 928 -171 c 0
 934 -171 939 -173 939 -179 c 0
 939 -191 936 -196 921 -205 c 0
 883 -228 806 -248 769 -248 c 0
417 26 m 0
 570 26 622 129 622 286 c 0
 622 471 562 622 395 622 c 0
 244 622 191 521 191 365 c 0
 191 179 250 26 417 26 c 0
202.600585938 104.186523438 m 0
 161.618164062 176.353515625 146 271.466796875 146 365 c 0
 146 421.20703125 153.59375 474.083984375 170.807617188 519.405273438 c 0
 118.833007812 463.573242188 90 390.18359375 90 315 c 0
 90 219.28515625 138.200195312 152.350585938 202.600585938 104.186523438 c 0
472.598632812 -14.3408203125 m 5
 455.413085938 -17.400390625 436.903320312 -19 417 -19 c 0
 404.368164062 -19 392.26953125 -18.275390625 380.686523438 -16.8720703125 c 0
 389.086914062 -24.8935546875 397.665039062 -33.25 406.4140625 -41.7802734375 c 0
 462.841796875 -96.7958984375 503.384765625 -116.69921875 559.176757812 -156.396484375 c 0
 599.826171875 -185.614257812 646.184570312 -197.479492188 710.970703125 -201.46484375 c 1
 679.536132812 -187.27734375 648.174804688 -167.583007812 614.84765625 -147.586914062 c 0
 560.541015625 -115.002929688 527.913085938 -82.548828125 488.607421875 -40.248046875 c 1
 488.607421875 -40.248046875 476.936523438 -26.7685546875 472.598632812 -14.3408203125 c 5
601.857421875 558.022460938 m 0
 648.995117188 485.245117188 667 385.034179688 667 286 c 0
 667 233.216796875 660.483398438 183.146484375 645.618164062 139.407226562 c 0
 697.282226562 192.700195312 723 257.643554688 723 335 c 0
 723 429.084960938 673.34375 507.57421875 601.857421875 558.022460938 c 0
EndSplineSet
EndChar

StartChar: braceright
Encoding: 125 125 66
Width: 758
Flags: W
HStem: -21 46<647.691 758.254> -5 29<24.6924 100.631 290.775 359.308> 2 45<164.939 227.565> 289 40<261.042 305.509> 607 45<166.991 228.168> 627 30<36.0088 108.406 281.82 367.286>
VStem: 130 45<46.523 605.891> 215 45<47.5377 289 329.15 607.159> 414 45<404.673 590.553> 508 45<444.55 564.417>
LayerCount: 2
Fore
SplineSet
682 -21 m 0x97c0
 625 -21 509 -10 474 33 c 0
 425 93 391 134 322 246 c 0
 311 264 292.47265625 289 276 289 c 3
 266.151367188 289 260 289 260 276 c 10
 260 110 l 2
 260 67 277 33 327 24 c 0
 350 20 360 15 360 6 c 0
 360 -2 348 -5 331 -5 c 0x53c0
 277 -5 246 2 208 2 c 0x33c0
 157 2 107 -5 53 -5 c 0
 36 -5 24 -2 24 6 c 0
 24 15 34 20 57 24 c 0
 107 33 130 51 130 100 c 2
 130 526 l 2
 130 602 126 616 69 622 c 0
 46 624 36 633 36 642 c 0
 36 650 48 653 65 653 c 0
 119 653 147 652 188 652 c 0x5bc0
 226 652 270 657 328 657 c 0
 474 657 553 602 553 493 c 0
 553 433.622070312 492.91796875 370.05078125 424 332.071289062 c 0
 421.1015625 330.474609375 418.935546875 328.595703125 420 327 c 0
 482 233 539 143 633 58 c 0
 668 27 701 25 748 25 c 0
 758 25 763 22 763 14 c 0
 763 -15 707 -21 682 -21 c 0x97c0
288 329 m 0
 380 329 414 400 414 477 c 0
 414 558 403 627 316 627 c 0x17c0
 282 627 265 603 262 534 c 0
 261 500 260 444 260 364 c 1
 260 331 270 329 288 329 c 0
228.16796875 608.172851562 m 0
 214.4609375 607.495117188 201.198242188 607 188 607 c 0
 180.47265625 607 174.946289062 607.0234375 166.991210938 607.083007812 c 1
 175.473632812 581.623046875 175 558.004882812 175 526 c 2
 175 100 l 2
 175 81.20703125 172.500976562 63.0615234375 164.939453125 45.708984375 c 1
 177.53125 46.3837890625 193.537109375 47 208 47 c 0x3bc0
 214.788085938 47 221.06640625 46.814453125 227.565429688 46.4892578125 c 1
 218.40625 66.8818359375 215 88.9111328125 215 110 c 2
 215 276 l 2
 215 351.120117188 215.740234375 491.84765625 217.028320312 535.638671875 c 0
 218.159179688 561.64453125 220.633789062 586.606445312 228.16796875 608.172851562 c 0
346.299804688 292.87109375 m 0
 352.92578125 283.251953125 357.3828125 274.3984375 360.35546875 269.534179688 c 0
 428.512695312 158.903320312 459.715820312 121.6328125 508.853515625 61.4638671875 c 0
 514.627929688 54.37109375 550.069335938 38.208984375 595.9609375 30.8876953125 c 1
 501.055664062 118.747070312 442.524414062 211.120117188 382.498046875 302.127929688 c 0
 381.123046875 304.190429688 379.895507812 306.201171875 378.805664062 308.16015625 c 0
 369 301.990234375 358.184570312 296.822265625 346.299804688 292.87109375 c 0
447.838867188 402.767578125 m 0
 485.243164062 434.268554688 508 470.404296875 508 493 c 0
 508 542.473632812 489.396484375 577.921875 438.993164062 596.666992188 c 0
 455.806640625 558.875976562 459 513.502929688 459 477 c 0
 459 452.67578125 455.515625 427.081054688 447.838867188 402.767578125 c 0
EndSplineSet
EndChar

StartChar: uni0082
Encoding: 130 130 67
Width: 960
Flags: W
HStem: 605 45<127.031 211.394 402.79 476.28> 620 33<1.64938 66.5039 257.109 275 298 333.392 662.369 738.313 755.06 810.25 904.08 972.313>
VStem: 210 45<529.889 605.618> 265 43<633 649> 476 45<539.478 605.84>
LayerCount: 2
Fore
SplineSet
359 -16 m 0x78
 336 -16 326 -1 321 12 c 2
 105 554 l 2
 89 588 67 610 33 620 c 0
 11 627 0 633 0 642 c 0
 0 650 12 653 29 653 c 0x78
 60 653 118 650 152 650 c 0xb8
 189 650 259 652 279 652 c 0
 296 652 308 649 308 641 c 0
 308 632 298 627 275 621 c 0
 259 617 255 603 255 588 c 0
 255 567 263 545 263 545 c 1
 324 389 340 349 407 198 c 0
 414 183 423 186 427 197 c 2
 467 297 l 2
 471 307 474 314 474 320 c 0
 474 328 474 336 469 349 c 2
 393 538 l 2
 376 581 332 610 298 620 c 0
 276 627 265 633 265 642 c 0
 265 650 277 653 294 653 c 0x78
 325 653 386 650 422 650 c 0
 452 650 513 652 533 652 c 0
 550 652 562 649 562 641 c 0
 562 624 521 622 521 599 c 0
 521 596 522 594 523 591 c 0
 527 579 551 516 560 497 c 0
 567 481 567.860351562 478.641601562 575 497 c 0
 589 533 602 574 607 591 c 0
 608 594 608 596 608 598 c 0
 608 622 571 624 571 641 c 0
 571 649 583 652 600 652 c 0
 629 652 633 650 652 650 c 0xb8
 675 650 687 653 711 653 c 0
 728 653 740 650 740 642 c 0
 740 633 730 627 707 622 c 0
 664 612 656 602 639 574 c 0
 628 555 606 503 589 460 c 0
 585.040039062 449.984375 590 435 593 428 c 2
 682 199 l 2
 685 192 688.450195312 189.8125 692 199 c 0
 726 287 761 388 811 541 c 0
 814.928710938 553.0234375 817 566 817 577 c 0
 817 597 809 614 787 620 c 0x78
 773 624 754 631 754 640 c 0
 754 648 766 651 783 651 c 0
 809 651 829 650 855 650 c 0xb8
 888 650 920 653 945 653 c 0
 962 653 974 650 974 642 c 0
 974 633 964 627 941 622 c 0
 892 611 870 563 859 534 c 2
 672 11 l 2
 670 5 663 -12 646 -12 c 0
 619 -12 608.943359375 -2.0244140625 605 7 c 0
 553 126 547 153 501 270 c 0
 497.396484375 279.166015625 491 277 486 264 c 0
 438 151 433 133 391 15 c 0
 386 1 377 -16 359 -16 c 0x78
519.0234375 478.391601562 m 0
 508.627929688 500.607421875 485.348632812 561.65234375 480.309570312 576.76953125 c 2
 480.309570312 576.76953125 476 584.139648438 476 599 c 0
 476 600 476.225585938 604.875 476.280273438 605.873046875 c 1
 458.037109375 605.456054688 436.130859375 605 422 605 c 0xb8
 415.700195312 605 411.325195312 605.048828125 402.790039062 605.202148438 c 1
 414.444335938 592.350585938 427.161132812 573.989257812 434.799804688 554.666992188 c 0
 503.064453125 384.903320312 568.49609375 205.625976562 636.909179688 46.5166015625 c 1
 673.82421875 149.76171875 l 1
 649.798828125 158.102539062 642.935546875 175.913085938 640.334960938 181.981445312 c 0
 602.251953125 279.970703125 559.37890625 386.135742188 519.0234375 478.391601562 c 0
400.387695312 146.854492188 m 1
 386.690429688 148.95703125 367.604492188 176.004882812 366.041015625 179.358398438 c 5
 295.556640625 330.51171875 282.431640625 371.73828125 220.864257812 529.188476562 c 0
 219.745117188 532.302734375 210 556.171875 210 588 c 0
 210 593.514648438 210.266601562 598.931640625 211.393554688 605.782226562 c 1
 190.462890625 605.375 168.249023438 605 152 605 c 0
 144.133789062 605 137.203125 605.111328125 127.03125 605.348632812 c 1
 133.630859375 596.068359375 140.440429688 584.374023438 145.716796875 573.161132812 c 2
 146.297851562 571.926757812 l 1
 146.802734375 570.659179688 l 1
 355.029296875 48.166015625 l 1
 375.473632812 90.69921875 389.993164062 118.78125 400.387695312 146.854492188 c 1
EndSplineSet
EndChar

StartChar: uni0083
Encoding: 131 131 68
Width: 775
Flags: W
HStem: -5 33<-3.35062 67.7729 220.92 301.861 395.055 453.346 694.864 765.313> 1 45<510.47 623.261> 605 45<161.67 258.829> 622 33<19.6494 91.1203 311.386 385.637 511.217 581.033 694.879 761.56>
VStem: 257 45<544.662 605.021> 472 45<46.13 125.119>
LayerCount: 2
Fore
SplineSet
24 -5 m 0x8c
 7 -5 -5 -2 -5 6 c 0
 -5 15 6 21 28 28 c 0
 62 38 129 72 171 124 c 2
 296 280 l 2
 310 299 320 314 301 341 c 2
 167 529 l 2
 117 599 85 612 51 622 c 0
 29 629 18 635 18 644 c 0
 18 652 30 655 47 655 c 0x9c
 80 655 174 650 224 650 c 0
 264 650 339 652 357 652 c 0
 374 652 386 649 386 641 c 0
 386 632 376 628 353 621 c 0
 320 611 302 606 302 590 c 0
 302 578 312 560 335 528 c 2
 426 400 l 2
 440 379 445 382 456 397 c 2
 563 538 l 2
 579 558 589 576 589 589 c 0
 589 604 576 614 544 620 c 0
 530 623 511 631 511 640 c 0
 511 648 523 651 540 651 c 0
 564 651 591 650 621 650 c 0
 660 650 708 656 735 656 c 0
 752 656 764 653 764 645 c 0
 764 636 754 631 731 625 c 0
 693 615 645 562 601 510 c 2
 486 374 l 2
 468 353 465 349 472 334 c 2
 627 111 l 2
 657 67 696 36 734 26 c 0
 757 20 767 15 767 6 c 0
 767 -2 755 -5 738 -5 c 0xac
 710 -5 608 1 561 1 c 0
 520 1 448 0 424 0 c 0
 407 0 395 3 395 11 c 0
 395 20 414 27 428 31 c 0
 448 37 472 53 472 78 c 0
 472 88 469 99 460 111 c 2
 356 262 l 2
 346 276 341 276 334 267 c 2
 199 93 l 2
 193 85 190 77 190 70 c 0
 190 51 242 36 269 30 c 0
 292 24 302 19 302 10 c 0
 302 2 290 -1 273 -1 c 0
 255 -1 186 1 150 1 c 0x4c
 105 1 57 -5 24 -5 c 0x8c
392.841796875 287.841796875 m 2
 496.520507812 137.30859375 l 2
 509.434570312 119.515625 517 97.3642578125 517 78 c 0
 517 66.244140625 515.6640625 58.8076171875 510.469726562 45.724609375 c 1
 526.869140625 45.8642578125 547.015625 46 561 46 c 0
 578.390625 46 597.595703125 45.392578125 623.260742188 44.412109375 c 1
 612.783203125 55.26953125 599.73046875 71.1142578125 589.93359375 85.482421875 c 2
 435.048828125 308.31640625 l 2
 419.314453125 330.954101562 400.88671875 356.861328125 388.895507812 374.528320312 c 2
 298.391601562 501.831054688 l 2
 275.857421875 533.182617188 257 555.537109375 257 590 c 0
 257 595.227539062 256.997070312 596.926757812 258.829101562 605.303710938 c 1
 247.396484375 605.141601562 233.856445312 605 224 605 c 0x6c
 206.318359375 605 184.626953125 605.569335938 161.669921875 606.323242188 c 1
 173.486328125 594.169921875 188.961914062 575.673828125 203.618164062 555.155273438 c 2
 337.72265625 367.0078125 l 2
 356.362304688 340.520507812 379.493164062 306.530273438 392.841796875 287.841796875 c 2
EndSplineSet
EndChar

StartChar: onehalf
Encoding: 189 189 69
Width: 438
Flags: W
HStem: -14 63<102 200.16 320.5 406.145> 376 56<167.967 285.5>
VStem: 29 123<55.3758 136.139> 33 105<287.974 332.726> 231 130<66.2827 179.998 219.189 371.567>
LayerCount: 2
Fore
SplineSet
129 -14 m 0xd8
 75 -14 29 29 29 79 c 0xe8
 29 125 57 152 114 177 c 2
 203 216 l 2
 229 228 232 232 232 258 c 2
 233 315 l 2
 234 352 220 376 190 376 c 0
 173 376 153 367 144 358 c 0
 139 352 138 345 138 337 c 0
 138 329 140 316 140 308 c 0
 140 295 81 268 51 268 c 0
 41 268 33 277 33 289 c 0
 33 310 47 329 80 356 c 0
 132 399 206 432 250 432 c 0
 321 432 368 382 366 306 c 2
 361 104 l 2
 360 73 373 49 391 49 c 0
 404 49 414 53 424 62 c 0
 426 64 428 65 430 65 c 0
 436 65 442 60 442 54 c 0
 442 46 436 35 424 23 c 0
 400 -1 370 -14 340 -14 c 0
 301 -14 273 4 247 43 c 1
 245 43 l 1
 201 2 169 -14 129 -14 c 0xd8
189 51 m 0
 203 51 212 56 221 66 c 0
 225 72 228 80 228 92 c 2
 231 164 l 2
 231 177 226 180 221 180 c 0
 218 180 214 179 209 176 c 0
 170 158 152 144 152 101 c 0
 152 63 172 51 189 51 c 0
EndSplineSet
EndChar

StartChar: threequarters
Encoding: 190 190 70
Width: 542
Flags: W
HStem: -14 42<238.183 334.155> 376 12<206 278>
VStem: 67 130<69.125 364.923 388.007 614.293> 379 140<120.458 311.366>
LayerCount: 2
Fore
SplineSet
275 -14 m 0
 237 -14 204 -6 177 1 c 0
 156 7 140 12 129 12 c 0
 116 12 104 6 93 -1 c 0
 88 -5 83 -8 79 -8 c 0
 67 -8 61 -2 61 5 c 0
 61 17 72 53 71 105 c 2
 67 550 l 2
 67 585 60 615 28 622 c 0
 21 623 16 628 16 638 c 0
 16 645 21 651 27 652 c 0
 71 660 146 689 177 701 c 0
 182 703 188 705 191 705 c 0
 199 705 202 699 202 693 c 0
 202 684 197 656 197 630 c 2
 197 416 l 2
 197 398 200 388 206 388 c 0
 247 415 294 432 334 432 c 0
 439 432 519 343 519 225 c 0
 519 83 420 -14 275 -14 c 0
293 28 m 0
 347 28 379 107 379 199 c 0
 379 279 349 376 278 376 c 0
 253 376 217 369 197 353 c 1
 197 140 l 2
 197 74 243 28 293 28 c 0
EndSplineSet
EndChar

StartChar: questiondown
Encoding: 191 191 71
Width: 411
Flags: W
HStem: -14 102<192.023 295.023> 380 52<163.381 272.023>
VStem: 24 111<150.646 300.925>
LayerCount: 2
Fore
SplineSet
211 -14 m 0
 105 -14 24 79 24 201 c 0
 24 330 122 432 247 432 c 0
 300 432 349 413 383 378 c 0
 389 372 392 365 392 360 c 0
 392 347 359 313 344 313 c 0
 331 313 321 322 310 331 c 0
 276 360 238 380 212 380 c 0
 161 380 135 340 135 246 c 0
 135 148 182 88 265 88 c 0
 305 88 331 101 363 127 c 0
 370 131 374 136 380 136 c 0
 388 136 392 130 392 120 c 0
 392 114 390 104 384 92 c 0
 364 51 295 -14 211 -14 c 0
EndSplineSet
EndChar

StartChar: Agrave
Encoding: 192 192 72
Width: 553
Flags: W
HStem: -14 68<160.663 295.858> 23 33<472.791 541.916> 383 47<206.499 307.444> 622 30<291.003 328.323>
VStem: 24 139<118.127 298.111> 342 131<68.9478 348.407 422.152 615.572>
LayerCount: 2
Fore
SplineSet
530 59 m 0x7c
 541 60 544 58 544 49 c 0
 544 38 534 23 527 23 c 0x7c
 478 18 424 5 375 -13 c 0
 367 -17 362 -19 358 -19 c 0
 354 -19 344 -7 344 -2 c 0
 347 19 349 36 349 51 c 2
 349 57 l 1
 322 15 271 -14 217 -14 c 0xbc
 106 -14 24 79 24 195 c 0
 24 331 121 430 263 430 c 0
 284 430 306 426 325 421 c 2
 338 418 l 2
 341 418 342 422 342 431 c 2
 342 550 l 2
 342 598 332 616 303 622 c 0
 295 624 291 630 291 637 c 0
 291 645 295 651 302 652 c 0
 352 663 410 682 443 696 c 0
 461 704 465 705 467 705 c 0
 474 705 478 700 478 693 c 1
 478 697 474 658 473 624 c 2
 468 120 l 2
 468 74 474 56 491 56 c 0
 497 56 500 57 530 59 c 0x7c
268 54 m 0xbc
 288 54 323 65 342 85 c 1
 341 306 l 2
 341 340 294 383 253 383 c 0
 205 383 163 322 163 222 c 0
 163 114 214 54 268 54 c 0xbc
EndSplineSet
EndChar

StartChar: Aacute
Encoding: 193 193 73
Width: 417
Flags: W
HStem: -14 98<194.537 303.373> 256 42<148.512 280.394> 392 40<179.448 275.629>
VStem: 23 112<143.537 253.199> 292 101<281 366.016>
LayerCount: 2
Fore
SplineSet
211 -14 m 0
 103 -14 23 79 23 205 c 0
 23 330 120 432 241 432 c 0
 326 432 393 372 393 294 c 0
 393 268 384 256 362 256 c 2
 162 256 l 2
 143 256 135 247 135 221 c 0
 135 144 189 84 265 84 c 0
 304 84 335 100 367 125 c 0
 372 129 377 133 381 133 c 0
 387 133 391 128 391 120 c 0
 391 113 389 103 383 90 c 0
 363 38 300 -14 211 -14 c 0
162 298 m 2
 222 298 l 2
 260 298 268 299 281 303 c 0
 287 305 292 317 292 331 c 0
 292 366 264 392 228 392 c 0
 187 392 146 351 148 312 c 0
 148 303 153 298 162 298 c 2
EndSplineSet
EndChar

StartChar: Acircumflex
Encoding: 194 194 74
Width: 360
Flags: W
HStem: -3 34<21.2486 76.0713 227.697 297.977> 357 39<17.5293 71.4225> 359 60<213 355.045> 660 46<245.963 356.571>
VStem: 82 131<43.829 355>
LayerCount: 2
Fore
SplineSet
41 -3 m 0xb8
 32 -3 21 2 21 11 c 0
 21 22 28 27 40 31 c 0
 76 42 82 48 82 70 c 2
 82 355 l 1
 69 355 51 355 30 357 c 0
 23 358 16 376 16 386 c 0
 16 391 20 394 25 396 c 0xd8
 43 403 61 411 82 420 c 1
 93 635 237 706 339 706 c 0
 430 706 468 681 468 628 c 0
 468 598 453 578 429 578 c 0
 417 578 405 590 392 606 c 0
 369 631 340 660 297 660 c 0
 243 660 213 616 213 515 c 2
 213 433 l 2
 213 422 221 419 229 419 c 2
 342 419 l 2
 353 419 358 411 358 403 c 0
 358 391 355 376 350 367 c 0
 347 362 344 359 342 359 c 2
 250 359 l 2
 220 359 213 353 213 337 c 2
 213 87 l 2
 213 52 223 42 278 31 c 0
 292 29 298 24 298 13 c 0
 298 5 290 -3 281 -3 c 0
 241 -3 185 2 150 2 c 0
 115 2 81 -3 41 -3 c 0xb8
EndSplineSet
EndChar

StartChar: Atilde
Encoding: 195 195 75
Width: 500
Flags: W
HStem: -289 50<142.629 310.984> 96 44<188.888 268.402> 344 65<418.286 500.823> 392 41<186.543 267.251>
VStem: 9 90<-200.19 -105.292> 34 121<187.541 339.205> 36 95<25 85.5> 298 115<201.837 335.726> 358 121<-139.272 -30>
LayerCount: 2
Fore
SplineSet
490 409 m 0xe4
 499 409 506 401 506 387 c 0
 506 377 500 361 493 351 c 0
 489 346 486 344 480 344 c 2
 453 344 l 2
 437 344 424 341 418 336 c 0
 413 330 413 334 413 289 c 0
 413 184 324 96 218 96 c 0
 196 96 173 101 151 109 c 1
 138 100 131 89 131 82 c 0xe3
 131 61 164 52 273 44 c 0
 417 33 479 1 479 -61 c 0
 479 -171 343 -289 216 -289 c 0
 86 -289 9 -246 9 -175 c 0xe880
 9 -135 14 -115 48 -90 c 0
 70 -75 91 -58 107 -46 c 1
 57 -26 36 5 36 45 c 0xe2
 36 57 41 70 63 84 c 0
 85 100 105 114 116 126 c 1
 69 155 34 204 34 262 c 0
 34 362 130 433 236 433 c 0xd4
 277 433 311 421 355 414 c 0
 381 409 405 406 435 406 c 0
 455 406 477 409 490 409 c 0xe4
229 140 m 0
 271 140 298 191 298 269 c 0
 298 342 268 392 225 392 c 0
 186 392 155 340 155 272 c 0xd5
 155 198 188 140 229 140 c 0
358 -126 m 0xc880
 358 -94 330 -82 228 -71 c 0
 201 -69 178 -65 157 -61 c 1
 121 -84 99 -109 99 -144 c 0
 99 -199 150 -239 220 -239 c 0
 267 -239 299 -230 318 -212 c 0
 343 -188 358 -157 358 -126 c 0xc880
EndSplineSet
EndChar

StartChar: Adieresis
Encoding: 196 196 76
Width: 559
Flags: W
HStem: -3 34<17.2538 71.326 215.916 262.821 298.179 346.656 491.888 542.716> 349 83<277.253 395.5>
VStem: 78 130<36.9844 326.625 364.193 614.405> 354 131<36.9598 329.017>
LayerCount: 2
Fore
SplineSet
37 -3 m 0
 24 -3 17 2 17 11 c 0
 17 21 24 26 40 31 c 0
 60 38 77 41 78 70 c 2
 78 550 l 2
 78 586 72 615 39 622 c 0
 32 623 28 628 28 637 c 0
 28 646 32 651 38 652 c 0
 84 662 160 691 191 702 c 0
 196 704 200 705 204 705 c 0
 212 705 214 699 214 693 c 0
 214 683 209 659 208 624 c 2
 208 393 l 2
 208 379 209 368 214 364 c 1
 244 390 292 432 360 432 c 0
 431 432 485 379 485 290 c 2
 485 72 l 2
 485 44 502 38 521 31 c 0
 535 27 543 22 543 11 c 0
 543 3 536 -3 521 -3 c 0
 473 -3 460 2 419 2 c 0
 375 2 371 -3 323 -3 c 0
 307 -3 298 2 298 12 c 0
 298 23 308 28 319 31 c 0
 337 37 354 45 354 74 c 2
 354 271 l 2
 354 315 323 349 290 349 c 0
 270 349 244 343 222 327 c 0
 212 319 209 311 209 291 c 2
 209 72 l 2
 209 45 225 38 242 32 c 0
 253 28 263 22 263 12 c 0
 263 3 257 -3 245 -3 c 0
 205 -3 176 2 141 2 c 0
 106 2 77 -3 37 -3 c 0
EndSplineSet
EndChar

StartChar: Aring
Encoding: 197 197 77
Width: 295
Flags: W
HStem: -3 33<21.3594 78.4582 227.125 282.818> 349 35<31.0145 73.4038> 493 158<93.2149 203.374>
VStem: 69 159<517.215 626.511> 86 131<39.5559 340.045>
LayerCount: 2
Fore
SplineSet
147 493 m 0xf0
 104 493 69 528 69 571 c 0
 69 616 104 651 147 651 c 0
 193 651 228 616 228 571 c 0
 228 528 193 493 147 493 c 0xf0
37 -3 m 0
 29 -3 21 2 21 10 c 0
 21 20 28 27 39 30 c 0
 73 38 86 45 86 67 c 2
 86 283 l 2
 86 329 72 345 43 349 c 0
 35 350 31 358 31 367 c 0
 31 375 36 383 42 384 c 0
 111 397 168 426 197 440 c 0
 206 445 214 448 217 448 c 0
 225 448 230 443 230 436 c 0
 227 402 217 337 217 289 c 2
 217 68 l 2xe8
 217 50 228 41 265 30 c 0
 276 26 283 22 283 11 c 0
 283 2 277 -2 268 -2 c 0
 230 -2 185 2 150 2 c 0
 115 2 76 -3 37 -3 c 0
EndSplineSet
EndChar

StartChar: AE
Encoding: 198 198 78
Width: 266
Flags: W
HStem: 349 35<16.0145 58.0045> 493 158<78.2149 188.374>
VStem: 54 159<517.215 626.511> 71 132<-105.181 339.233>
LayerCount: 2
Fore
SplineSet
132 493 m 0xe0
 89 493 54 528 54 571 c 0
 54 616 89 651 132 651 c 0
 178 651 213 616 213 571 c 0
 213 528 178 493 132 493 c 0xe0
4 -287 m 0
 -22 -287 -36 -282 -36 -271 c 0
 -36 -262 -30 -256 -17 -250 c 0
 4 -241 22 -230 40 -194 c 0
 66 -138 71 -11 71 52 c 2
 71 283 l 2
 71 329 57 344 27 349 c 0
 20 350 16 358 16 367 c 0
 16 375 21 383 27 384 c 0
 95 397 152 426 181 440 c 0
 192 445 199 448 202 448 c 0
 210 448 214 443 214 436 c 0
 211 397 202 334 202 286 c 2
 203 91 l 2xd0
 203 29 201 -72 165 -152 c 0
 135 -220 60 -287 4 -287 c 0
EndSplineSet
EndChar

StartChar: Ccedilla
Encoding: 199 199 79
Width: 546
Flags: W
HStem: -3 34<16.3262 70.7685 213.339 258.821 289.006 327.526 494.439 555.453> 208 30<208 218.952> 394 25<303.137 344.69> 396 32<462.543 528.296>
VStem: 77 131<36.8734 207.999 238.004 614.629>
LayerCount: 2
Fore
SplineSet
36 -3 m 0xd8
 23 -3 16 2 16 11 c 0
 16 21 24 27 39 31 c 0
 59 38 77 41 77 70 c 2
 77 550 l 2
 77 588 71 615 38 622 c 0
 31 623 27 628 27 637 c 0
 27 646 31 651 37 652 c 0
 87 662 159 691 190 702 c 0
 196 704 199 705 203 705 c 0
 211 705 213 699 213 693 c 0
 213 682 208 655 207 624 c 2
 208 250 l 2
 208 243 211 238 217 238 c 0
 221 238 228 242 233 246 c 0
 282 289 325 339 338 359 c 0
 343 367 347 372 347 376 c 0
 347 383 336 391 315 394 c 0
 307 395 303 399 303 405 c 0
 303 416 315 419 325 419 c 2
 374 419 l 2xe8
 409 419 492 426 518 428 c 0
 525 428 529 424 529 417 c 0
 529 406 521 399 506 396 c 0
 483 391 451 377 420 359 c 0
 385 340 341 307 312 279 c 0
 309 276 307 272 307 268 c 0
 307 264 310 261 313 257 c 0
 361 194 401 136 448 84 c 0
 470 60 508 38 529 30 c 0
 540 26 556 22 556 11 c 0
 556 1 548 -3 534 -3 c 0
 454 -3 375 0 309 0 c 0
 296 0 289 6 289 14 c 0
 289 24 297 29 311 34 c 0
 322 38 327 43 328 50 c 0
 328 55 323 62 316 72 c 2
 219 206 l 2
 218 207 216 208 214 208 c 0
 211 208 208 206 208 201 c 2
 208 139 l 1
 208 69 l 2
 208 47 218 39 238 32 c 0
 249 28 259 22 259 12 c 0
 259 3 251 -3 241 -3 c 0
 201 -3 175 2 140 2 c 0
 105 2 76 -3 36 -3 c 0xd8
EndSplineSet
EndChar

StartChar: Egrave
Encoding: 200 200 80
Width: 285
Flags: W
HStem: -3 34<16.2858 71.269 215.286 268.947>
VStem: 77 131<38.7168 614.405>
LayerCount: 2
Fore
SplineSet
36 -3 m 0
 24 -3 16 2 16 11 c 0
 16 21 24 27 39 31 c 0
 59 38 77 41 77 69 c 2
 77 550 l 2
 77 586 70 615 37 622 c 0
 31 623 27 628 27 637 c 0
 27 646 31 651 36 652 c 0
 87 662 160 691 191 702 c 0
 196 704 200 705 204 705 c 0
 212 705 214 699 214 693 c 0
 214 683 209 656 208 624 c 2
 208 71 l 2
 208 42 226 40 246 33 c 0
 261 28 269 23 269 13 c 0
 269 4 261 -1 249 -1 c 0
 210 -1 175 2 140 2 c 0
 105 2 76 -3 36 -3 c 0
EndSplineSet
EndChar

StartChar: Eacute
Encoding: 201 201 81
Width: 807
Flags: W
HStem: -3 34<21.3817 75.7685 294.281 338.131 476.169 522.686 553.282 597.434 738.232 789.686> 349 83<282.19 389.5 533.861 652.5> 354 35<40.0088 73.8454>
VStem: 82 131<36.467 326.622> 341 131<34.1219 325.576> 600 132<36.4077 334.371>
LayerCount: 2
Fore
SplineSet
41 -3 m 0xdc
 32 -3 21 2 21 11 c 0
 21 22 32 27 44 31 c 0
 64 37 82 42 82 69 c 2
 82 298 l 2
 82 326 75 350 51 354 c 0
 45 355 40 359 40 372 c 0
 40 382 43 387 50 389 c 0xbc
 99 401 162 420 200 442 c 0
 204 444 208 447 212 447 c 0
 218 447 221 443 221 436 c 0
 221 425 216 395 216 376 c 0
 216 370 217 365 218 364 c 2
 220 364 l 1
 261 404 308 432 369 432 c 0
 410 432 448 400 465 355 c 1
 469 355 l 1
 509 403 558 432 621 432 c 0
 684 432 732 377 732 289 c 2
 732 69 l 2
 732 42 750 37 770 31 c 0
 781 27 790 22 790 11 c 0
 790 2 782 -3 773 -3 c 0
 733 -3 702 2 667 2 c 0
 632 2 610 -3 570 -3 c 0
 561 -3 553 2 553 11 c 0
 553 22 561 28 573 31 c 0
 590 36 600 42 600 63 c 2
 600 268 l 2
 600 317 577 349 545 350 c 0
 527 350 506 343 486 326 c 0
 476 317 472 305 472 284 c 2
 472 69 l 2
 472 42 483 37 503 31 c 0
 514 28 523 22 523 11 c 0
 523 2 515 -3 506 -3 c 0
 466 -3 442 2 407 2 c 0
 372 2 350 -3 310 -3 c 0
 302 -3 294 2 294 11 c 0
 294 22 302 27 313 31 c 0
 331 37 341 42 341 63 c 2
 341 268 l 2
 341 317 319 348 286 349 c 0
 269 349 248 343 226 327 c 0
 216 319 213 307 213 288 c 2
 213 69 l 2
 213 45 221 37 241 31 c 0
 252 27 260 21 260 11 c 0
 260 3 252 -3 244 -3 c 0
 204 -3 181 2 146 2 c 0
 111 2 81 -3 41 -3 c 0xdc
EndSplineSet
EndChar

StartChar: Ecircumflex
Encoding: 202 202 82
Width: 566
Flags: W
HStem: -3 34<21.3817 75.7685 218.89 268.718 304.314 353.652 497.232 548.686> 350 82<280.5 403> 354 35<40.0088 74.0839>
VStem: 82 131<36.4304 323.763> 359 132<36.3369 331.339>
LayerCount: 2
Fore
SplineSet
41 -3 m 0xd8
 32 -3 21 2 21 11 c 0
 21 22 32 27 44 31 c 0
 64 37 82 42 82 69 c 2
 82 298 l 2
 82 326 75 349 51 354 c 0
 45 355 40 361 40 372 c 0
 40 380 43 387 50 389 c 0xb8
 95 399 156 419 194 439 c 0
 199 442 207 447 212 447 c 0
 220 447 221 441 221 435 c 0
 221 425 216 397 216 378 c 0
 216 372 217 364 218 363 c 0
 264 406 306 432 368 432 c 0
 438 432 491 377 491 289 c 2
 491 69 l 2
 491 42 509 37 529 31 c 0
 540 27 549 22 549 11 c 0
 549 2 540 -3 532 -3 c 0
 492 -3 461 2 426 2 c 0
 391 2 361 -3 321 -3 c 0
 313 -3 304 2 304 11 c 0
 304 22 313 27 324 31 c 0
 344 37 359 42 359 69 c 2
 359 268 l 2
 359 319 334 349 295 350 c 0
 266 350 245 341 221 324 c 0
 215 319 213 311 213 305 c 2
 213 69 l 2
 213 42 230 38 249 31 c 0
 261 27 269 21 269 11 c 0
 269 3 261 -3 252 -3 c 0
 212 -3 185 2 150 2 c 0
 115 2 81 -3 41 -3 c 0xd8
EndSplineSet
EndChar

StartChar: Edieresis
Encoding: 203 203 83
Width: 503
Flags: W
HStem: -14 44<214.771 308.141> 389 44<192.944 288.616>
VStem: 24 138<102.189 292.825> 340 140<116.735 312.05>
LayerCount: 2
Fore
SplineSet
237 -14 m 0
 117 -14 24 73 24 195 c 0
 24 323 127 433 259 433 c 0
 382 433 480 336 480 224 c 0
 480 95 398 -14 237 -14 c 0
257 30 m 0
 284 30 305 41 319 64 c 0
 335 91 340 138 340 200 c 0
 340 308 302 389 244 389 c 0
 222 389 206 382 192 368 c 0
 169 342 162 292 162 220 c 0
 162 124 202 30 257 30 c 0
EndSplineSet
EndChar

StartChar: Igrave
Encoding: 204 204 84
Width: 551
Flags: W
HStem: -262 34<16.3178 71.06 221.25 282.684> -18 46<245.914 338.135> 347 35<23.0029 61.0286> 357 68<276.26 412.5>
VStem: 77 130<-215.912 2.99272 71.2204 335.228> 388 140<132.702 306.138>
LayerCount: 2
Fore
SplineSet
36 -262 m 0xdc
 26 -262 16 -257 16 -248 c 0
 16 -237 25 -232 39 -228 c 0
 67 -219 77 -212 77 -190 c 2
 77 289 l 2
 77 313 61 342 35 347 c 0
 27 349 23 353 23 365 c 0
 23 376 27 380 34 382 c 0xec
 80 392 139 411 178 430 c 0
 183 432 190 437 195 437 c 0
 202 437 204 431 204 425 c 0
 204 414 199 385 199 367 c 0
 199 361 200 356 201 355 c 1
 220 375 296 425 359 425 c 0
 466 425 528 327 528 230 c 0
 528 106 426 -18 297 -18 c 0
 274 -18 236 -9 211 3 c 0
 208 3 207 -7 207 -15 c 2
 207 -181 l 2
 207 -209 227 -218 261 -228 c 0
 274 -232 283 -238 283 -248 c 0
 283 -256 274 -262 266 -262 c 0
 226 -262 180 -257 145 -257 c 0
 110 -257 76 -262 36 -262 c 0xdc
294 28 m 0
 322 28 388 68 388 194 c 0
 388 340 320 357 289 357 c 0xdc
 252 357 209 327 209 310 c 2
 207 146 l 2
 207 98 239 28 294 28 c 0
EndSplineSet
EndChar

StartChar: Iacute
Encoding: 205 205 85
Width: 536
Flags: W
HStem: -287 34<272.318 332.75 480.226 535.65> 38 15<268 339> 390 43<210.778 307.548>
VStem: 23 141<115.141 298.189> 346 126<-241.632 37.9941 65.0472 349.287>
LayerCount: 2
Fore
SplineSet
289 -287 m 0
 281 -287 272 -281 272 -273 c 0
 272 -263 281 -257 295 -253 c 0
 329 -243 345 -234 345 -205 c 2
 346 15 l 2
 346 30 342 38 339 38 c 0
 336 36 333 36 330 34 c 0
 304 15 252 -14 212 -14 c 0
 105 -14 23 75 23 193 c 0
 23 318 105 433 271 433 c 0
 340 433 390 408 414 408 c 0
 427 408 440 414 450 424 c 0
 455 427 460 430 464 430 c 0
 476 430 483 424 483 418 c 0
 483 405 472 368 472 310 c 2
 473 -214 l 2
 473 -236 485 -244 513 -252 c 0
 526 -256 536 -262 536 -273 c 0
 536 -282 526 -287 516 -287 c 0
 476 -287 442 -282 407 -282 c 0
 372 -282 329 -287 289 -287 c 0
268 53 m 0
 296 53 329 61 346 81 c 1
 346 280 l 2
 345 344 302 390 253 390 c 0
 200 390 164 314 164 220 c 0
 164 130 203 53 268 53 c 0
EndSplineSet
EndChar

StartChar: Icircumflex
Encoding: 206 206 86
Width: 414
Flags: W
HStem: -3 34<22.2858 75.8628 226.447 287.68> 336 10<220 277>
VStem: 82 131<42.5703 319.177>
LayerCount: 2
Fore
SplineSet
42 -3 m 0
 31 -3 22 2 22 11 c 0
 22 22 30 27 45 31 c 0
 74 40 82 49 82 69 c 2
 82 299 l 2
 82 327 76 345 52 352 c 0
 46 354 39 358 39 370 c 0
 39 380 43 385 51 387 c 0
 94 397 151 417 187 434 c 0
 194 439 205 445 210 445 c 0
 217 445 219 441 219 434 c 0
 219 423 217 376 216 355 c 0
 216 349 218 346 220 346 c 0
 250 387 299 433 347 433 c 0
 393 433 411 413 411 386 c 0
 411 356 382 309 353 309 c 0
 341 309 327 316 314 323 c 0
 300 329 287 336 277 336 c 0
 242 336 213 316 213 241 c 2
 213 78 l 2
 213 51 229 41 266 31 c 0
 280 27 288 21 288 11 c 0
 288 3 281 -3 271 -3 c 0
 231 -3 186 2 151 2 c 0
 116 2 82 -3 42 -3 c 0
EndSplineSet
EndChar

StartChar: Idieresis
Encoding: 207 207 87
Width: 360
Flags: W
HStem: -14 44<122.023 217.711> 395 38<157.174 245.752>
VStem: 45 99<266 371.251> 229 104<46.6125 128.005>
LayerCount: 2
Fore
SplineSet
165 -14 m 0
 121 -14 79 -4 45 20 c 1
 33 39 28 87 29 134 c 0
 29 142 37 146 49 146 c 0
 59 146 68 138 70 131 c 0
 95 75 126 30 174 30 c 0
 209 30 229 56 229 84 c 0
 229 119 197 140 159 160 c 0
 101 190 45 229 45 303 c 0
 45 381 115 433 206 433 c 0
 250 433 291 420 305 411 c 1
 316 397 323 357 323 313 c 0
 323 307 315 302 305 302 c 0
 295 302 283 311 281 317 c 0
 263 369 235 395 202 395 c 0
 172 395 144 374 144 343 c 0
 144 315 173 294 212 273 c 0
 298 227 333 194 333 124 c 0
 333 37 274 -14 165 -14 c 0
EndSplineSet
EndChar

StartChar: Eth
Encoding: 208 208 88
Width: 375
Flags: W
HStem: -14 68<175 308.519> 359 60<219.504 363.207> 362 42<28.5499 73.6557>
VStem: 87 132<71.7378 357.766>
LayerCount: 2
Fore
SplineSet
219 -14 m 0xd0
 131 -14 87 32 87 114 c 2
 87 344 l 2
 87 356 79 361 56 362 c 2
 43 362 l 2
 34 362 27 382 27 394 c 0
 27 397 29 402 33 404 c 0xb0
 80 421 147 478 179 506 c 0
 188 513 193 519 204 519 c 0
 216 519 221 516 219 499 c 2
 213 440 l 2
 211 424 221 419 237 419 c 2
 356 419 l 2
 360 419 365 407 365 399 c 0
 365 380 359 359 352 359 c 2
 259 359 l 2
 229 359 219 353 219 334 c 2
 219 145 l 2
 219 84 244 54 283 54 c 0
 321 54 335 63 350 70 c 0
 352 71 354 72 356 72 c 0
 363 72 367 63 367 52 c 0
 367 40 296 -14 219 -14 c 0xd0
EndSplineSet
EndChar

StartChar: Ntilde
Encoding: 209 209 89
Width: 551
Flags: W
HStem: -15 84<171.704 269.562> 26 39<479.156 541.979> 369 36<18.033 63.1487> 370 42<268.032 334.046>
VStem: 73 131<86.5342 362.328> 346 131<91.3377 359.213>
LayerCount: 2
Fore
SplineSet
346 -21 m 0x5c
 341 -21 338 -18 338 -11 c 0
 338 4 343 37 343 52 c 0
 343 57 342 62 341 63 c 1
 305 20 245 -15 183 -15 c 0
 121 -15 73 45 73 126 c 2
 73 313 l 2
 73 344 64 363 33 369 c 0
 25 370 18 376 18 388 c 0
 18 397 23 404 33 405 c 0
 89 408 131 417 178 429 c 0
 185 430 192 433 199 433 c 0
 207 433 213 429 212 419 c 0
 206 388 204 372 204 342 c 2
 204 150 l 2
 204 101 230 70 265 69 c 0xac
 286 69 308 73 326 91 c 0
 334 98 346 118 346 153 c 2
 346 314 l 2
 346 349 323 368 292 370 c 0
 277 371 268 376 268 392 c 0
 268 406 279 412 292 412 c 0
 392 418 422 421 460 430 c 0
 464 431 470 433 473 433 c 0
 482 433 488 429 488 421 c 0
 488 417 486 412 484 406 c 0
 482 398 477 353 477 336 c 2
 477 104 l 2
 477 73 486 66 495 66 c 2
 523 65 l 2
 535 65 542 58 542 47 c 0
 542 35 539 27 525 26 c 0
 461 20 408 1 372 -14 c 0
 363 -17 354 -21 346 -21 c 0x5c
EndSplineSet
EndChar

StartChar: Ograve
Encoding: 210 210 90
Width: 483
Flags: W
HStem: 392 33<5.3782 47.9023 303.179 347.294 443.213 487.735>
VStem: 5 213<344.5 418.5>
LayerCount: 2
Fore
SplineSet
240 -21 m 2
 231 -21 224 -1 213 23 c 0
 203 46 190 80 179 104 c 0
 145 182 109 255 74 333 c 0
 61 362 47 384 23 392 c 0
 10 397 5 402 5 413 c 0
 5 424 20 425 29 425 c 0
 76 425 85 419 128 419 c 0
 169 419 193 425 240 425 c 0
 249 425 264 422 264 412 c 0
 264 400 253 398 241 393 c 0
 227 387 218 373 218 350 c 0
 218 339 217 329 222 318 c 2
 289 153 l 1
 292 153 l 1
 351 311 l 2
 356 322 357 334 357 343 c 0
 357 367 346 384 325 392 c 0
 313 396 303 399 303 411 c 0
 303 421 317 424 326 424 c 0
 362 423 375 421 395 421 c 0
 415 421 429 422 464 424 c 0
 473 424 488 423 488 412 c 0
 488 401 483 396 469 391 c 0
 445 383 423 360 410 329 c 2
 332 133 l 2
 324 113 308 77 300 60 c 0
 294 45 274 -2 263 -21 c 1
 240 -21 l 2
EndSplineSet
EndChar

StartChar: Oacute
Encoding: 211 211 91
Width: 752
Flags: W
HStem: 392 33<5.51085 48.3628 569.01 610.785 707.557 749.89>
VStem: 5 204<348 418.5> 351 132<284.656 381.317>
LayerCount: 2
Fore
SplineSet
236 -30 m 0
 230 -30 222 -27 220 -20 c 2
 75 333 l 2
 63 362 48 383 24 392 c 0
 11 397 5 402 5 413 c 0
 5 424 20 425 29 425 c 0
 74 425 86 419 127 419 c 0
 167 419 183 425 229 425 c 0
 237 425 252 422 252 412 c 0
 252 400 241 398 230 393 c 0
 215 387 209 377 209 354 c 0
 209 342 211 328 215 318 c 2
 274 162 l 2
 274 160 275 160 276 160 c 0
 277 160 279 160 279 162 c 2
 345 319 l 2
 348 328 351 338 351 348 c 0
 351 363 335 382 312 391 c 0
 299 396 293 401 293 412 c 0
 293 423 308 424 320 424 c 0
 352 424 387 420 408 420 c 0
 443 420 469 424 507 424 c 0
 516 424 531 421 531 411 c 0
 531 399 519 397 508 392 c 0
 493 386 483 378 483 359 c 0
 483 343 488 329 492 318 c 2
 551 162 l 2
 552 160 553 159 555 159 c 0
 556 159 557 159 558 161 c 2
 613 305 l 2
 618 318 621 334 620 346 c 0
 620 367 609 384 591 390 c 0
 580 394 569 397 569 409 c 0
 569 420 583 422 592 422 c 0
 630 421 641 420 661 420 c 0
 681 420 690 421 726 422 c 0
 735 422 750 421 750 411 c 0
 750 399 744 394 731 389 c 0
 707 381 686 358 674 328 c 2
 533 -20 l 2
 531 -25 524 -29 516 -29 c 0
 510 -29 504 -26 501 -20 c 2
 376 267 l 2
 375 268 374 269 373 269 c 0
 372 269 371 269 370 266 c 2
 253 -20 l 2
 250 -27 243 -30 236 -30 c 0
EndSplineSet
EndChar

StartChar: Ocircumflex
Encoding: 212 212 92
Width: 505
Flags: W
HStem: -4 21G<25.5 47.5> -4 21G<25.5 47.5> 393 31<229.547 277.694>
VStem: 6 139<2 65> 275 224<4.5 75.5>
LayerCount: 2
Fore
SplineSet
30 -4 m 0xb8
 21 -4 6 -3 6 7 c 0
 6 19 12 24 25 29 c 0
 39 34 52 43 79 79 c 2
 171 205 l 2
 179 215 179 220 172 231 c 2
 97 342 l 2
 79 368 69 384 48 392 c 0
 35 396 29 401 29 413 c 0
 29 424 45 425 53 425 c 0
 101 425 108 419 153 419 c 0
 193 419 210 424 254 424 c 0
 262 424 278 422 278 411 c 0
 278 400 266 398 255 393 c 0
 242 388 227 383 227 369 c 0
 227 361 233 350 240 338 c 2
 286 271 l 2
 289 267 292 265 295 271 c 2
 326 324 l 2
 333 338 340 355 339 368 c 0
 339 379 333 386 321 391 c 0
 310 396 300 398 300 410 c 0
 300 420 316 423 324 423 c 0
 357 422 372 421 389 421 c 0
 409 421 418 423 453 425 c 0
 462 425 477 424 477 413 c 0
 477 402 471 397 458 392 c 0
 444 387 429 377 403 343 c 2
 331 247 l 2
 322 235 324 230 331 221 c 2
 415 89 l 2
 432 61 456 40 480 31 c 0
 493 27 499 22 499 10 c 0
 499 -1 484 -2 475 -2 c 0
 427 -2 405 4 360 4 c 0
 320 4 292 -1 247 -1 c 0
 231 -1 223 5 223 12 c 0
 223 24 232 27 246 31 c 0
 262 36 275 45 275 69 c 0
 275 82 274 90 263 105 c 2
 212 180 l 2
 211 181 207 181 206 180 c 2
 159 97 l 2
 154 89 145 72 145 58 c 0
 145 44 150 34 163 28 c 0
 174 24 185 21 185 10 c 0
 185 -1 170 -3 161 -3 c 0
 127 -3 117 -1 100 -1 c 0
 81 -1 65 -2 30 -4 c 0xb8
EndSplineSet
EndChar

StartChar: Otilde
Encoding: 213 213 93
Width: 481
Flags: W
HStem: -283 109<52.9858 146.679> 390 33<7.70508 50.5412 440.773 485.468>
VStem: 11 167<-256.193 -176.224> 352 134<342 417>
LayerCount: 2
Fore
SplineSet
85 -283 m 0
 50 -283 11 -257 11 -220 c 0
 11 -195 23 -164 52 -164 c 0
 73 -164 96 -175 116 -174 c 0
 135 -172 140 -166 151 -146 c 0
 164 -124 176 -105 201 -48 c 0
 208 -31 213 -14 213 0 c 0
 213 20 206 35 199 52 c 2
 76 331 l 2
 63 360 50 382 26 390 c 0
 14 395 7 400 7 412 c 0
 7 422 23 423 32 423 c 0
 79 423 101 419 128 419 c 0
 170 419 190 423 237 423 c 0
 246 423 260 420 260 410 c 0
 260 398 248 395 237 390 c 0
 222 384 214 375 214 352 c 0
 214 341 216 327 225 306 c 2
 287 155 l 2
 288 152 289 152 290 152 c 0
 291 152 292 152 293 155 c 2
 344 308 l 2
 348 319 352 336 352 348 c 0
 352 371 335 385 321 390 c 0
 310 394 298 398 298 410 c 0
 298 420 312 423 321 423 c 0
 357 422 373 419 394 419 c 0
 413 419 426 421 462 423 c 0
 471 423 486 422 486 412 c 0
 486 400 480 395 468 390 c 0
 443 382 422 359 409 328 c 2
 260 -30 l 2
 238 -84 207 -157 178 -224 c 0
 161 -264 127 -283 85 -283 c 0
EndSplineSet
EndChar

StartChar: Odieresis
Encoding: 214 214 94
Width: 437
Flags: W
HStem: -5 54<206.594 329.503> 373 47<121.056 229.38>
VStem: 28 31<265.926 286.9>
LayerCount: 2
Fore
SplineSet
44 -5 m 0
 38 -5 21 11 21 23 c 0
 21 35 49 69 62 90 c 0
 127 191 155 233 233 360 c 0
 236 365 239 372 223 372 c 2
 168 373 l 2
 149 373 136 367 123 354 c 0
 111 342 68 278 59 267 c 0
 51 257 26 265 28 277 c 0
 34 297 53 372 53 411 c 0
 53 425 65 437 76 437 c 0
 83 437 89 433 95 427 c 0
 101 421 122 420 143 420 c 0
 158 420 174 421 184 421 c 0
 247 421 328 422 394 425 c 0
 409 425 419 396 412 386 c 0
 396 368 385 353 370 332 c 2
 204 64 l 2
 198 55 200 49 218 49 c 2
 281 49 l 2
 300 49 315 54 331 72 c 0
 352 94 361 111 385 154 c 0
 394 170 420 163 420 148 c 0
 420 130 401 56 387 11 c 0
 385 1 377 -5 368 -5 c 0
 336 -5 252 1 132 1 c 0
 101 1 63 -5 44 -5 c 0
EndSplineSet
EndChar

StartChar: cent
Encoding: 162 162 95
Width: 399
Flags: W
HStem: -14 48<99 198.414 312.435 371.606> 365 49<153.283 253>
VStem: 37 78<42.5666 125.471 280.17 320.237> 238 68<58.3296 168.996 199.884 353.979>
LayerCount: 2
Fore
SplineSet
117 -14 m 0
 81 -14 37 35 37 72 c 0
 37 114 59 135 108 155 c 2
 210 197 l 2
 236 208 237 210 238 237 c 2
 240 301 l 2
 241 336 219 365 181 365 c 0
 161 365 139 358 126 347 c 0
 118 341 116 330 116 318 c 2
 117 300 l 2
 117 290 71 265 51 265 c 0
 44 265 40 269 40 274 c 0
 40 295 55 321 80 343 c 0
 125 384 189 414 229 414 c 0
 277 414 312 376 311 325 c 2
 306 85 l 2
 305 57 320 38 342 38 c 0
 359 38 370 41 379 49 c 0
 383 53 385 54 387 54 c 0
 393 54 398 49 398 43 c 0
 398 37 393 27 387 21 c 0
 366 0 339 -14 318 -14 c 0
 287 -14 263 3 245 38 c 1
 242 38 l 1
 198 2 160 -14 117 -14 c 0
164 34 m 0
 190 34 208 43 223 58 c 0
 230 65 235 74 236 99 c 2
 238 148 l 2
 239 163 237 169 229 169 c 0
 226 169 220 168 209 164 c 0
 138 138 115 110 115 87 c 0
 115 52 140 34 164 34 c 0
EndSplineSet
EndChar

StartChar: sterling
Encoding: 163 163 96
Width: 515
Flags: W
HStem: -14 31<213.49 334.715> 372 42<216.535 333.647>
VStem: 75 70<69.4872 342.455 355.051 621.865> 405 75<110.853 291.063>
LayerCount: 2
Fore
SplineSet
259 -14 m 0
 230 -14 199 -8 173 -1 c 0
 144 7 120 15 113 15 c 0
 105 15 97 8 91 2 c 0
 88 -1 85 -3 82 -3 c 0
 76 -3 68 2 68 9 c 0
 68 21 75 56 75 81 c 2
 75 566 l 2
 75 601 56 627 29 639 c 0
 23 642 16 646 16 654 c 0
 16 661 23 663 28 664 c 0
 54 669 120 696 133 702 c 0
 137 704 140 705 142 705 c 0
 145 705 148 702 148 698 c 0
 148 693 145 649 145 593 c 2
 145 388 l 2
 145 362 147 356 154 355 c 1
 195 389 256 414 300 414 c 0
 401 414 480 328 480 217 c 0
 480 80 390 -14 259 -14 c 0
282 17 m 0
 358 17 405 94 405 195 c 0
 405 272 362 372 267 372 c 0
 214 372 174 353 145 326 c 1
 145 132 l 2
 145 62 212 17 282 17 c 0
EndSplineSet
EndChar

StartChar: currency
Encoding: 164 164 97
Width: 407
Flags: W
HStem: -15 60<180.332 307.274> 377 37<164.065 263.89>
VStem: 35 69<125.033 282.32>
LayerCount: 2
Fore
SplineSet
213 -15 m 0
 112 -15 35 69 35 180 c 0
 35 310 129 414 246 414 c 0
 289 414 328 402 360 379 c 0
 368 373 372 367 372 360 c 0
 372 343 346 319 329 319 c 0
 322 319 316 324 308 330 c 0
 279 352 238 377 214 377 c 0
 149 377 104 310 104 212 c 0
 104 118 171 45 256 45 c 0
 295 45 319 56 351 88 c 0
 354 91 358 93 361 93 c 0
 367 93 372 87 372 79 c 0
 372 71 367 61 357 48 c 0
 325 7 274 -15 213 -15 c 0
EndSplineSet
EndChar

StartChar: yen
Encoding: 165 165 98
Width: 506
Flags: W
HStem: -14 52<179.572 299.052> 21 24<433.488 502.885> 379 35<170.44 293.672> 639 25<293.013 331.248>
VStem: 35 71<114.478 287.604> 352 70<67.1094 328.417 400.004 628.241>
LayerCount: 2
Fore
SplineSet
357 -19 m 0x7c
 354 -19 346 -12 346 -9 c 0
 346 4 351 34 351 51 c 2
 351 57 l 1
 331 26 286 -14 220 -14 c 0xbc
 106 -14 35 89 35 190 c 0
 35 306 120 414 260 414 c 0
 287 414 317 408 332 403 c 0
 338 401 342 400 345 400 c 0
 348 400 352 406 352 424 c 2
 352 566 l 2
 352 620 334 633 302 639 c 0
 296 640 293 646 293 652 c 0
 293 657 295 662 301 664 c 0
 360 679 390 693 409 701 c 0
 414 703 419 704 422 704 c 0
 426 704 428 702 429 698 c 0
 429 686 422 652 422 562 c 2
 422 110 l 2
 422 64 428 45 443 45 c 0
 450 45 469 46 486 48 c 0
 499 49 504 47 504 39 c 0
 504 30 497 21 490 21 c 0
 453 16 420 7 373 -13 c 0
 362 -19 361 -19 357 -19 c 0x7c
256 38 m 0
 291 38 326 58 351 87 c 1
 352 267 l 2
 352 321 303 379 229 379 c 0
 183 379 106 346 106 213 c 0
 106 62 212 38 256 38 c 0
EndSplineSet
EndChar

StartChar: brokenbar
Encoding: 166 166 99
Width: 390
Flags: W
HStem: -15 61<174.086 299.389> 257 31<109.637 284.97> 385 29<161.117 258.964>
VStem: 30 64<133.835 256.062> 294 66<277.5 358.559>
LayerCount: 2
Fore
SplineSet
213 -15 m 0
 103 -15 30 72 30 203 c 0
 30 318 118 414 223 414 c 0
 303 414 360 362 360 288 c 0
 360 267 351 257 330 257 c 2
 119 257 l 2
 100 257 94 249 94 220 c 0
 94 124 163 46 248 46 c 0
 288 46 321 62 346 91 c 0
 351 98 353 99 357 99 c 0
 362 99 365 95 365 89 c 0
 365 76 359 62 347 47 c 0
 317 8 266 -15 213 -15 c 0
121 288 m 2
 212 288 l 2
 244 288 264 289 286 293 c 0
 292 294 294 301 294 315 c 0
 294 353 255 385 208 385 c 0
 162 385 109 338 109 298 c 0
 109 291 113 288 121 288 c 2
EndSplineSet
EndChar

StartChar: section
Encoding: 167 167 100
Width: 318
Flags: W
HStem: -3 27<24.2499 78.7903 173.684 248.75> 352 48<160 307.395> 665 41<228.339 333.384>
VStem: 90 70<33.4395 350 406 542.922>
LayerCount: 2
Fore
SplineSet
44 -3 m 0
 31 -3 24 0 24 8 c 0
 24 18 33 21 47 24 c 0
 78 31 90 41 90 68 c 2
 90 350 l 1
 77 350 59 350 38 352 c 0
 34 353 24 363 24 370 c 0
 24 373 29 375 31 376 c 2
 90 406 l 1
 90 637 223 706 310 706 c 0
 384 706 420 681 420 646 c 0
 420 619 404 606 386 606 c 0
 374 606 365 617 352 629 c 0
 335 646 312 665 268 665 c 0
 205 665 160 611 160 498 c 2
 160 410 l 2
 160 402 165 400 171 400 c 2
 296 400 l 2
 303 400 309 395 309 389 c 0
 309 380 307 368 303 360 c 0
 301 355 297 352 294 352 c 2
 179 352 l 2
 163 352 160 347 160 339 c 2
 160 68 l 2
 160 41 172 30 226 24 c 0
 240 22 249 18 249 8 c 0
 249 0 242 -3 229 -3 c 0
 189 -3 162 2 127 2 c 0
 92 2 84 -3 44 -3 c 0
EndSplineSet
EndChar

StartChar: dieresis
Encoding: 168 168 101
Width: 435
Flags: W
HStem: -290 40<135.317 276.047> 106 35<159.887 251.359> 349 39<366.1 440.191> 386 30<158.849 244.218>
VStem: 11 75<-208.451 -105.888> 40 66<25 79.9028 198.608 332.983> 295 65<201.982 340.571> 357 61<-155.235 -68.0179>
LayerCount: 2
Fore
SplineSet
428 388 m 0xe4
 435 388 441 382 441 373 c 0
 441 368 437 360 431 354 c 0
 428 351 425 349 423 349 c 2
 396 349 l 2
 378 349 368 346 366 341 c 0
 363 332 360 313 360 295 c 0
 360 193 287 106 201 106 c 0
 183 106 165 109 148 116 c 1
 124 104 106 86 106 74 c 0xe6
 106 46 151 29 236 24 c 0
 359 17 418 -16 418 -77 c 0
 418 -180 303 -290 195 -290 c 0
 81 -290 11 -244 11 -170 c 0xe9
 11 -135 21 -113 44 -95 c 0
 63 -79 96 -54 128 -28 c 1
 64 -16 40 6 40 44 c 0
 40 57 47 68 63 81 c 0
 102 110 111 117 119 129 c 1
 73 156 39 205 39 258 c 0
 39 351 122 416 213 416 c 0xd4
 252 416 278 403 306 395 c 0
 338 386 353 385 373 385 c 0
 389 385 418 388 428 388 c 0xe4
207 141 m 0
 257 141 295 199 295 275 c 0
 295 333 249 386 200 386 c 0xd2
 153 386 111 331 111 270 c 0
 111 200 155 141 207 141 c 0
357 -109 m 0xc9
 357 -65 313 -44 207 -37 c 0
 191 -36 177 -35 164 -33 c 1
 106 -72 86 -104 86 -155 c 0
 86 -208 140 -250 209 -250 c 0
 249 -250 280 -241 304 -223 c 0
 337 -198 357 -155 357 -109 c 0xc9
EndSplineSet
EndChar

StartChar: copyright
Encoding: 169 169 102
Width: 515
Flags: W
HStem: -3 27<19.291 71.3797 166.714 215.629 296.286 344.612 441.734 491.586> 362 52<228.455 321.254>
VStem: 85 70<32.0327 335.273 351.42 626.703> 358 70<31.9098 325.919>
LayerCount: 2
Fore
SplineSet
39 -3 m 0
 27 -3 19 0 19 8 c 0
 19 16 25 19 42 24 c 0
 62 30 84 38 85 65 c 2
 85 566 l 2
 85 602 75 632 41 638 c 0
 35 639 32 644 32 652 c 0
 32 658 34 662 40 664 c 0
 68 673 118 689 151 703 c 0
 153 704 155 705 157 705 c 0
 161 705 164 702 164 698 c 0
 164 686 155 669 155 562 c 2
 155 388 l 2
 155 367 157 360 162 351 c 1
 193 374 251 414 314 414 c 0
 379 414 428 356 428 278 c 2
 428 68 l 2
 428 41 449 30 469 24 c 0
 483 20 492 16 492 8 c 0
 492 0 486 -3 472 -3 c 0
 432 -3 429 2 394 2 c 0
 359 2 356 -3 316 -3 c 0
 302 -3 296 0 296 8 c 0
 296 17 304 19 319 24 c 0
 339 31 358 41 358 68 c 2
 358 272 l 2
 358 322 308 362 265 362 c 0
 240 362 201 355 182 340 c 0
 161 323 155 309 155 268 c 2
 155 65 l 2
 156 38 174 30 194 24 c 0
 208 20 216 16 216 8 c 0
 216 0 211 -3 196 -3 c 0
 156 -3 155 2 120 2 c 0
 85 2 79 -3 39 -3 c 0
EndSplineSet
EndChar

StartChar: ordfeminine
Encoding: 170 170 103
Width: 245
Flags: W
HStem: -3 27<24.3057 79.6694 171.375 225.674> 516 101<83.1171 165.823>
VStem: 74 101<525.117 607.823> 90 70<31.0813 341.886>
LayerCount: 2
Fore
SplineSet
124 516 m 0xe0
 96 516 74 538 74 566 c 0
 74 595 96 617 124 617 c 0
 153 617 175 595 175 566 c 0
 175 538 153 516 124 516 c 0xe0
44 -3 m 0
 32 -3 24 0 24 8 c 0
 24 18 36 21 47 24 c 0
 75 31 90 38 90 62 c 2
 90 279 l 2
 90 315 79 347 45 352 c 0
 38 353 35 357 35 365 c 0
 35 372 38 376 44 377 c 0
 97 389 132 413 149 427 c 0
 154 431 159 434 163 434 c 0
 167 434 169 432 169 429 c 0
 169 413 160 339 160 294 c 2
 160 62 l 2xd0
 160 39 176 31 203 24 c 0
 214 21 226 18 226 8 c 0
 226 0 219 -3 206 -3 c 0
 168 -3 160 2 125 2 c 0
 90 2 83 -3 44 -3 c 0
EndSplineSet
EndChar

StartChar: guillemotleft
Encoding: 171 171 104
Width: 226
Flags: W
HStem: -287 27<-19.3848 18.4884> 516 101<75.1171 157.823>
VStem: 66 101<525.117 607.823> 89 70<-125.075 340.129>
LayerCount: 2
Fore
SplineSet
116 516 m 0xe0
 88 516 66 538 66 566 c 0
 66 595 88 617 116 617 c 0
 145 617 167 595 167 566 c 0
 167 538 145 516 116 516 c 0xe0
1 -287 m 0
 -6 -287 -20 -284 -20 -277 c 0
 -20 -269 -11 -261 -9 -260 c 0
 15 -254 38 -237 57 -197 c 0
 86 -136 89 0 89 69 c 2
 89 279 l 2
 89 315 77 345 43 352 c 0
 38 353 35 359 35 365 c 0
 35 370 38 376 42 377 c 0
 92 389 127 415 146 427 c 0
 153 431 157 434 159 434 c 0
 163 434 166 432 166 429 c 0
 162 388 159 320 159 275 c 2
 159 91 l 2xd0
 159 29 158 -72 129 -152 c 0
 104 -220 41 -287 1 -287 c 0
EndSplineSet
EndChar

StartChar: logicalnot
Encoding: 172 172 105
Width: 469
Flags: W
HStem: -3 27<19.3057 71.766 164.421 212.685 254.143 293.768 423.515 478.593> 206 19<155 171.891> 378 22<273.093 309.401> 384 28<389.323 447.893>
VStem: 85 70<32.0327 205.999 225.002 627.924>
LayerCount: 2
Fore
SplineSet
42 -3 m 0xd8
 27 -3 19 0 19 8 c 0
 19 18 31 20 42 24 c 0
 62 30 85 38 85 65 c 2
 85 566 l 2
 85 613 73 631 40 639 c 0
 34 640 31 646 31 652 c 0
 31 658 34 663 39 664 c 0
 90 676 119 689 149 702 c 0
 153 704 155 705 158 705 c 0
 162 705 164 702 164 696 c 0
 164 682 155 647 155 562 c 2
 155 234 l 2
 155 228 157 225 160 225 c 0
 168 225 181 232 196 245 c 0
 250 292 289 333 302 348 c 0
 309 356 311 360 311 363 c 0
 311 370 297 375 285 378 c 0
 276 380 273 382 273 388 c 0
 273 395 281 400 295 400 c 2
 344 400 l 2xe8
 375 400 416 412 435 412 c 0
 444 412 449 408 449 402 c 0
 449 394 438 388 424 384 c 0
 399 377 376 364 358 353 c 0
 345 345 278 289 230 247 c 0
 226 243 224 240 224 237 c 0
 224 235 225 232 227 230 c 0
 278 166 353 91 374 72 c 0
 396 51 429 33 449 26 c 0
 463 21 479 18 479 8 c 0
 479 -1 471 -3 459 -3 c 0
 407 -3 340 0 272 0 c 0
 258 0 254 4 254 9 c 0
 254 17 262 22 271 25 c 0
 286 30 298 36 298 48 c 0
 298 52 295 57 291 62 c 2
 170 199 l 2
 166 204 164 206 160 206 c 0
 157 206 155 204 155 199 c 0
 154 180 154 158 154 135 c 0
 154 112 154 88 155 65 c 0
 155 38 170 30 190 24 c 0
 201 20 213 18 213 8 c 0
 213 -2 195 -3 190 -3 c 0
 151 -3 155 2 120 2 c 0
 85 2 81 -3 42 -3 c 0xd8
EndSplineSet
EndChar

StartChar: uni00AD
Encoding: 173 173 106
Width: 240
Flags: W
HStem: -3 27<20.0556 73.9702 166.03 219.944>
VStem: 85 70<31.1488 627.687>
LayerCount: 2
Fore
SplineSet
39 -3 m 0
 32 -3 19 -2 19 6 c 0
 19 16 31 20 42 24 c 0
 62 30 85 35 85 62 c 2
 85 566 l 2
 85 605 72 632 39 639 c 0
 34 640 31 646 31 652 c 0
 31 658 34 663 38 664 c 0
 89 676 119 691 151 703 c 0
 153 704 155 705 157 705 c 0
 160 705 162 701 162 698 c 0
 162 686 155 652 155 562 c 2
 155 62 l 2
 155 35 178 30 198 24 c 0
 209 20 221 16 221 6 c 0
 221 -2 208 -3 201 -3 c 0
 162 -3 155 2 120 2 c 0
 85 2 78 -3 39 -3 c 0
EndSplineSet
EndChar

StartChar: registered
Encoding: 174 174 107
Width: 778
Flags: W
HStem: -3 27<24.3497 78.6472 171.03 225.694 287.314 342.563 435.843 491.65 553.282 608.293 700.03 754.65> 367 47<229.814 347 496.451 621.5>
VStem: 90 70<31.1488 335.036> 354 70<31.541 334.103> 619 70<31.1488 332.312>
LayerCount: 2
Fore
SplineSet
44 -3 m 0
 33 -3 24 -1 24 8 c 0
 24 17 34 20 47 24 c 0
 66 30 90 35 90 62 c 2
 90 277 l 2
 90 313 86 343 52 349 c 0
 46 350 43 354 43 362 c 0
 43 370 46 373 51 374 c 0
 105 387 117 403 153 426 c 0
 155 427 158 430 162 430 c 0
 165 430 168 427 168 423 c 0
 168 414 163 378 163 359 c 0
 163 353 164 348 165 347 c 2
 167 347 l 1
 197 376 246 414 323 414 c 0
 371 414 402 396 423 345 c 1
 426 345 l 1
 469 383 524 414 589 414 c 0
 654 414 689 345 689 275 c 2
 689 62 l 2
 689 35 712 30 732 24 c 0
 745 20 755 17 755 8 c 0
 755 0 750 -3 735 -3 c 0
 695 -3 691 2 656 2 c 0
 621 2 613 -3 573 -3 c 0
 561 -3 553 0 553 8 c 0
 553 18 563 21 576 24 c 0
 597 29 619 35 619 62 c 2
 619 272 l 2
 619 320 582 367 539 367 c 0
 505 367 477 360 452 340 c 0
 434 326 424 303 424 268 c 2
 424 62 l 2
 424 35 449 29 469 24 c 0
 482 21 492 17 492 8 c 0
 492 0 485 -3 472 -3 c 0
 432 -3 425 2 390 2 c 0
 355 2 347 -3 307 -3 c 0
 296 -3 287 0 287 8 c 0
 287 18 299 20 310 24 c 0
 330 30 354 35 354 62 c 2
 354 272 l 2
 354 320 317 367 274 367 c 0
 240 367 212 360 187 340 c 0
 168 326 160 302 160 268 c 2
 160 62 l 2
 160 35 183 30 203 24 c 0
 214 20 226 18 226 8 c 0
 226 0 218 -3 206 -3 c 0
 166 -3 160 2 125 2 c 0
 90 2 84 -3 44 -3 c 0
EndSplineSet
EndChar

StartChar: macron
Encoding: 175 175 108
Width: 528
Flags: W
HStem: -3 27<24.2101 78.9702 171.03 225.668 304.056 357.97 450.03 504.003> 366 48<228.999 338.812>
VStem: 90 70<30.7063 325.762> 369 70<31.1488 335.799>
LayerCount: 2
Fore
SplineSet
44 -3 m 0
 32 -3 24 0 24 8 c 0
 24 18 32 20 47 24 c 0
 67 29 90 35 90 62 c 2
 90 277 l 2
 90 313 87 340 53 349 c 0
 47 351 43 354 43 362 c 0
 43 369 46 373 52 374 c 0
 98 386 124 404 152 425 c 0
 156 428 159 430 163 430 c 0
 166 430 168 427 168 423 c 0
 168 414 163 378 163 359 c 0
 163 353 164 348 165 347 c 0
 212 392 263 414 326 414 c 0
 391 414 439 353 439 275 c 2
 439 62 l 2
 439 35 462 30 482 24 c 0
 493 20 505 16 505 6 c 0
 505 -2 493 -3 485 -3 c 0
 445 -3 440 2 405 2 c 0
 370 2 363 -3 323 -3 c 0
 316 -3 303 -2 303 6 c 0
 303 16 315 20 326 24 c 0
 346 30 369 35 369 62 c 2
 369 272 l 2
 369 330 333 365 279 366 c 0
 231 366 196 349 168 326 c 0
 163 321 160 311 160 303 c 2
 160 62 l 2
 160 35 183 29 203 24 c 0
 219 20 226 16 226 8 c 0
 226 0 219 -3 206 -3 c 0
 166 -3 160 2 125 2 c 0
 90 2 84 -3 44 -3 c 0
EndSplineSet
EndChar

StartChar: degree
Encoding: 176 176 109
Width: 495
Flags: W
HStem: -14 30<203.025 317.686> 383 31<177.889 291.342>
VStem: 35 82<109.934 279.37> 378 82<111.572 289.08>
LayerCount: 2
Fore
SplineSet
234 -14 m 0
 122 -14 35 70 35 187 c 0
 35 298 131 414 254 414 c 0
 370 414 460 321 460 213 c 0
 460 96 384 -14 234 -14 c 0
255 16 m 0
 300 16 338 32 358 71 c 0
 374 102 378 150 378 189 c 0
 378 284 322 383 237 383 c 0
 201 383 173 374 149 343 c 0
 122 309 117 258 117 210 c 0
 117 111 175 16 255 16 c 0
EndSplineSet
EndChar

StartChar: plusminus
Encoding: 177 177 110
Width: 519
Flags: W
HStem: -285 27<19.9975 73.9702 172.131 235.003> -14 31<227.473 322.672> 369 45<232.033 339.995>
VStem: 85 70<-246.875 17.9674 86.2615 336.424> 404 80<127.023 298.226>
LayerCount: 2
Fore
SplineSet
40 -285 m 0
 33 -285 19 -284 19 -276 c 0
 19 -266 31 -262 42 -258 c 0
 62 -252 85 -247 85 -220 c 2
 85 287 l 2
 85 302 72 353 39 360 c 0
 34 361 31 367 31 373 c 0
 31 379 34 384 38 385 c 0
 89 397 122 412 154 425 c 0
 155 425 155 426 156 426 c 0
 159 426 162 421 162 417 c 0
 162 405 157 373 157 357 c 0
 157 353 157 349 158 348 c 1
 177 367 257 414 320 414 c 0
 423 414 484 319 484 225 c 0
 484 106 385 -14 259 -14 c 0
 231 -14 179 0 159 18 c 0
 156 18 155 -27 155 -33 c 2
 155 -220 l 2
 155 -247 193 -252 213 -258 c 0
 224 -262 236 -266 236 -276 c 0
 236 -284 222 -285 214 -285 c 0
 175 -285 155 -280 120 -280 c 0
 85 -280 79 -285 40 -285 c 0
274 17 m 0
 313 17 404 59 404 193 c 0
 404 347 311 369 268 369 c 0
 220 369 158 331 158 317 c 0
 158 259 155 190 155 166 c 0
 155 85 220 17 274 17 c 0
EndSplineSet
EndChar

StartChar: uni00B2
Encoding: 178 178 111
Width: 522
Flags: W
HStem: -285 27<312.056 365.97 461.69 521.003> -14 53<191.053 311.347> 382 32<198.653 318.636>
VStem: 35 82<112.735 280.438> 377 70<-248.32 42.9948 62.939 335.223>
LayerCount: 2
Fore
SplineSet
331 -285 m 0
 324 -285 311 -284 311 -276 c 0
 311 -266 323 -262 334 -258 c 0
 354 -252 377 -247 377 -220 c 2
 377 13 l 2
 377 36 375 43 371 43 c 0
 368 43 365 44 362 41 c 0
 345 26 288 -14 235 -14 c 0
 131 -14 35 54 35 178 c 0
 35 319 135 414 282 414 c 0
 350 414 405 392 410 392 c 0
 424 392 429 402 436 417 c 0
 437 418 440 421 443 421 c 0
 449 421 459 416 459 411 c 0
 459 398 447 352 447 295 c 2
 447 -220 l 2
 447 -247 479 -252 499 -258 c 0
 510 -262 522 -266 522 -276 c 0
 522 -284 510 -285 502 -285 c 0
 462 -285 448 -280 412 -280 c 0
 377 -280 371 -285 331 -285 c 0
272 39 m 0
 316 39 361 61 378 80 c 1
 378 116 378 250 377 275 c 0
 375 335 323 382 257 382 c 0
 185 382 117 320 117 205 c 0
 117 72 212 39 272 39 c 0
EndSplineSet
EndChar

StartChar: uni00B3
Encoding: 179 179 112
Width: 334
Flags: W
HStem: -3 27<29.2179 79.1431 179.701 236.682> 348 66<217.503 308.124>
VStem: 90 71<35.8108 329.917>
LayerCount: 2
Fore
SplineSet
49 -3 m 0
 35 -3 29 0 29 8 c 0
 29 18 37 20 52 24 c 0
 77 30 90 43 90 62 c 2
 90 277 l 2
 90 313 82 342 49 349 c 0
 44 350 39 356 39 362 c 0
 39 368 44 373 48 374 c 0
 83 385 126 410 147 423 c 0
 155 428 159 430 162 430 c 0
 165 430 167 427 167 423 c 0
 167 416 166 380 164 348 c 0
 164 347 165 346 166 346 c 0
 198 385 242 414 281 414 c 0
 309 414 329 400 329 382 c 0
 329 362 310 330 290 330 c 0
 282 330 272 334 262 339 c 0
 251 343 240 348 230 348 c 0
 198 348 161 331 161 264 c 2
 161 62 l 2
 161 44 181 34 214 24 c 0
 228 20 237 17 237 8 c 0
 237 0 231 -3 217 -3 c 0
 177 -3 165 2 130 2 c 0
 95 2 89 -3 49 -3 c 0
EndSplineSet
EndChar

StartChar: acute
Encoding: 180 180 113
Width: 323
Flags: W
HStem: -14 27<106.123 194.213> 386 28<129.148 214.037>
VStem: 47 60<278.853 366.281> 223 68<40.6028 130.779>
LayerCount: 2
Fore
SplineSet
144 -14 m 0
 103 -14 65 -1 40 22 c 1
 33 36 30 79 29 102 c 0
 29 108 35 111 42 111 c 0
 47 111 53 109 54 104 c 0
 71 38 114 13 153 13 c 0
 192 13 223 42 223 81 c 0
 223 117 202 138 142 175 c 0
 74 217 47 249 47 299 c 0
 47 363 92 414 182 414 c 0
 222 414 249 404 262 395 c 1
 272 380 281 344 281 316 c 0
 281 311 276 309 271 309 c 0
 263 309 254 313 252 318 c 0
 234 362 209 386 171 386 c 0
 138 386 107 365 107 327 c 0
 107 296 122 276 176 245 c 0
 253 201 291 170 291 108 c 0
 291 36 231 -14 144 -14 c 0
EndSplineSet
EndChar

StartChar: mu
Encoding: 181 181 114
Width: 314
Flags: W
HStem: -14 55<173.591 262.431> 352 48<156.312 303.775>
VStem: 85 70<58.7654 351.595>
LayerCount: 2
Fore
SplineSet
189 -14 m 0
 124 -14 85 26 85 105 c 2
 85 337 l 2
 85 348 79 352 53 352 c 2
 47 352 l 2
 40 352 35 362 35 372 c 0
 35 375 40 382 42 383 c 0
 81 410 113 441 131 463 c 0
 137 470 141 475 148 475 c 0
 154 475 162 473 161 464 c 2
 156 419 l 2
 154 404 163 400 180 400 c 2
 294 400 l 2
 299 400 304 390 304 378 c 0
 304 366 299 352 294 352 c 2
 195 352 l 2
 161 352 155 351 155 324 c 2
 155 127 l 2
 155 73 178 41 221 41 c 0
 260 41 278 47 295 59 c 0
 296 60 298 61 299 61 c 0
 304 61 306 54 306 47 c 0
 306 36 250 -14 189 -14 c 0
EndSplineSet
EndChar

StartChar: paragraph
Encoding: 182 182 115
Width: 527
Flags: W
HStem: -19 56<186.992 285.45> 21 27<456.48 516.994> 365 32<280.029 350.896>
VStem: 85 70<71.1627 353.726> 368 70<45.8513 57 77.7796 352.364>
LayerCount: 2
Fore
SplineSet
366 -19 m 0xb8
 361 -19 359 -16 359 -11 c 0
 359 2 364 34 364 51 c 2
 364 57 l 1
 312 6 261 -14 199 -14 c 0
 134 -14 85 27 85 105 c 2
 85 308 l 2
 85 337 72 353 42 365 c 0
 35 367 29 370 29 381 c 0
 29 393 36 396 44 397 c 0
 89 400 106 404 143 413 c 0
 147 414 148 414 151 414 c 0
 157 414 162 411 161 400 c 0
 157 369 155 353 155 323 c 2
 155 128 l 2
 155 80 196 37 239 37 c 0xb8
 273 37 298 38 323 57 c 0
 338 68 368 91 368 132 c 2
 368 315 l 2
 368 356 321 365 301 365 c 0
 289 365 280 368 280 382 c 0
 280 394 290 397 301 397 c 0
 362 398 388 403 424 413 c 0
 427 414 431 415 434 415 c 0
 441 415 447 411 447 404 c 0
 447 402 446 399 445 395 c 0
 443 388 438 342 438 326 c 2
 438 95 l 2
 438 59 446 45 456 45 c 0
 466 45 492 48 502 48 c 0
 509 48 517 47 517 35 c 0
 517 24 511 22 503 21 c 0x78
 451 14 415 -1 386 -13 c 0
 382 -15 372 -19 366 -19 c 0xb8
EndSplineSet
EndChar

StartChar: periodcentered
Encoding: 183 183 116
Width: 438
Flags: W
HStem: 378 27<155.71 192.076 271.785 313.345 397.433 442.165>
VStem: 320 123<330.5 400>
LayerCount: 2
Fore
SplineSet
214 -21 m 2
 209 -21 199 8 196 17 c 0
 187 39 179 65 171 87 c 0
 141 170 106 247 74 329 c 0
 64 353 43 374 23 380 c 0
 12 384 5 387 5 396 c 0
 5 404 18 405 25 405 c 0
 64 405 63 400 98 400 c 0
 133 400 134 405 173 405 c 0
 180 405 193 404 193 396 c 0
 193 386 182 382 170 378 c 0
 156 373 150 356 150 337 c 0
 150 328 151 318 154 310 c 2
 233 100 l 2
 234 99 235 99 236 100 c 2
 312 295 l 2
 317 308 320 325 320 336 c 0
 320 362 312 371 294 378 c 0
 277 384 271 387 271 396 c 0
 271 404 282 405 291 405 c 0
 306 405 329 400 364 400 c 0
 399 400 404 405 423 405 c 0
 433 405 443 404 443 396 c 0
 443 387 436 383 420 378 c 0
 400 372 372 344 358 311 c 2
 280 123 l 2
 275 112 242 24 242 24 c 1
 242 24 227 -12 220 -21 c 1
 214 -21 l 2
EndSplineSet
EndChar

StartChar: cedilla
Encoding: 184 184 117
Width: 685
Flags: W
HStem: 378 27<6.05563 53.3292 162.927 199.997 252.997 299.151 402.984 449.944 518.056 561.145 647.56 689.003>
VStem: 326 68<275.812 361.27> 575 115<329.5 400>
LayerCount: 2
Fore
SplineSet
226 -23 m 0
 223 -23 220 -20 219 -16 c 2
 80 329 l 2
 70 355 48 372 28 378 c 0
 17 382 5 386 5 396 c 0
 5 404 18 405 25 405 c 0
 50 405 72 400 98 400 c 0
 126 400 153 405 181 405 c 0
 186 405 201 404 201 396 c 0
 201 386 189 382 178 378 c 0
 164 374 157 357 157 338 c 0
 157 329 159 320 162 312 c 2
 240 111 l 2
 241 108 243 107 245 107 c 0
 247 107 249 108 250 111 c 2
 318 273 l 2
 325 290 326 306 326 321 c 0
 326 350 298 369 275 378 c 0
 264 382 252 386 252 396 c 0
 252 404 264 405 272 405 c 0
 290 405 310 400 347 400 c 0
 384 400 409 405 431 405 c 0
 438 405 451 404 451 396 c 0
 451 386 439 382 428 378 c 0
 413 373 394 366 394 342 c 0
 394 334 396 324 401 312 c 2
 476 119 l 2
 479 112 482 108 484 108 c 0
 487 108 489 111 492 118 c 2
 568 295 l 2
 573 306 575 325 575 334 c 0
 575 358 555 373 540 378 c 0
 529 382 517 386 517 396 c 0
 517 404 530 405 537 405 c 0
 566 405 576 400 612 400 c 0
 649 400 648 405 670 405 c 0
 678 405 690 404 690 396 c 0
 690 386 678 382 667 378 c 0
 647 372 627 342 614 312 c 2
 477 -16 l 2
 475 -20 472 -23 468 -23 c 0
 465 -23 462 -20 460 -16 c 2
 356 242 l 2
 354 247 352 250 350 251 c 0
 348 251 346 248 343 241 c 2
 234 -16 l 2
 232 -20 229 -23 226 -23 c 0
EndSplineSet
EndChar

StartChar: uni00B9
Encoding: 185 185 118
Width: 430
Flags: W
HStem: -4 27<10.8293 59.5132 225.072 269.25 376 424.171> 378 27<28.6054 74.1812 165.28 203.839 357.953 411.003>
LayerCount: 2
Fore
SplineSet
30 -4 m 0
 22 -4 10 -3 10 5 c 0
 10 16 22 20 33 23 c 0
 53 29 72 41 100 80 c 2
 177 187 l 2
 186 198 184 202 179 210 c 2
 97 335 l 2
 81 361 71 371 51 377 c 0
 40 380 28 384 28 395 c 0
 28 405 46 404 51 404 c 0
 90 404 81 400 130 400 c 0
 154 400 158 402 181 402 c 0
 186 402 204 403 204 393 c 0
 204 385 195 382 186 379 c 0
 176 376 165 373 165 362 c 0
 165 355 170 343 178 330 c 2
 224 261 l 2
 227 256 230 257 233 261 c 2
 284 338 l 2
 289 345 292 353 292 360 c 0
 292 367 289 373 279 376 c 0
 268 380 256 384 256 394 c 0
 256 404 274 403 279 403 c 0
 289 403 313 400 329 400 c 0
 366 400 375 405 392 405 c 0
 400 405 412 404 412 396 c 0
 412 386 400 382 389 378 c 0
 369 372 337 358 318 331 c 2
 255 236 l 2
 253 233 252 228 256 223 c 2
 353 65 l 2
 369 39 382 29 402 23 c 0
 413 20 425 16 425 5 c 0
 425 -3 413 -4 405 -4 c 0
 364 -4 371 0 321 0 c 0
 297 0 271 -2 248 -2 c 0
 231 -2 225 3 225 8 c 0
 225 20 234 24 250 28 c 0
 264 32 278 38 278 52 c 0
 278 57 276 63 272 70 c 2
 213 166 l 2
 212 167 208 167 207 166 c 2
 141 67 l 2
 139 64 136 56 136 48 c 0
 136 39 140 29 150 26 c 0
 161 22 173 18 173 8 c 0
 173 -2 155 -1 150 -1 c 0
 139 -1 113 1 97 1 c 0
 60 1 48 -4 30 -4 c 0
EndSplineSet
EndChar

StartChar: ordmasculine
Encoding: 186 186 119
Width: 438
Flags: W
HStem: -285 86<17.5102 114.448> 378 27<6.05563 49.8994 152.137 193.546 399.046 441.944>
VStem: 13 116<-271.156 -206.881> 322 121<327 400>
LayerCount: 2
Fore
SplineSet
64 -285 m 0
 38 -285 13 -274 13 -244 c 0
 13 -220 25 -199 46 -199 c 0
 61 -199 75 -205 86 -205 c 0
 94 -205 100 -202 105 -194 c 0
 127 -159 161 -93 190 -16 c 0
 192 -10 193 -2 193 7 c 0
 193 18 192 28 189 36 c 2
 73 329 l 2
 63 353 48 372 28 378 c 0
 17 382 5 386 5 396 c 0
 5 404 18 405 25 405 c 0
 65 405 63 400 98 400 c 0
 133 400 134 405 174 405 c 0
 182 405 194 402 194 394 c 0
 194 384 176 375 165 372 c 0
 151 368 145 359 145 340 c 0
 145 332 150 319 153 312 c 2
 234 112 l 2
 235 109 237 106 240 106 c 0
 242 106 244 109 245 112 c 2
 314 295 l 2
 318 304 322 322 322 332 c 0
 322 357 314 365 302 370 c 0
 291 375 273 384 273 394 c 0
 273 402 286 405 293 405 c 0
 311 405 327 400 364 400 c 0
 401 400 401 405 423 405 c 0
 430 405 443 404 443 396 c 0
 443 386 431 382 420 378 c 0
 400 372 374 343 361 311 c 2
 225 -13 l 2
 221 -22 170 -148 129 -244 c 0
 117 -271 93 -285 64 -285 c 0
EndSplineSet
EndChar

StartChar: guillemotright
Encoding: 187 187 120
Width: 377
Flags: W
HStem: -5 38<124.728 292.781> 368 33<101.002 246.22>
VStem: 35 22<291.683 308.547>
LayerCount: 2
Fore
SplineSet
39 -5 m 0
 34 -5 25 7 25 12 c 0
 25 17 48 51 62 70 c 0
 129 166 180 242 253 358 c 0
 256 362 259 368 244 368 c 2
 145 371 l 2
 126 372 109 360 101 352 c 0
 86 337 71 312 57 294 c 0
 49 286 31 293 35 304 c 0
 41 322 54 373 54 398 c 0
 54 408 65 416 69 416 c 0
 72 416 78 412 84 407 c 0
 90 402 109 401 127 401 c 0
 142 401 156 402 165 402 c 0
 234 402 290 403 351 405 c 0
 356 405 361 397 358 393 c 0
 344 376 333 363 320 343 c 2
 125 48 l 2
 119 38 125 33 134 33 c 2
 252 33 l 2
 267 33 282 41 297 56 c 0
 313 72 332 100 352 129 c 0
 358 138 374 133 374 122 c 0
 374 114 349 25 344 9 c 0
 342 0 336 -5 328 -5 c 0
 299 -5 228 0 119 0 c 0
 91 0 56 -5 39 -5 c 0
EndSplineSet
EndChar

StartChar: Oslash
Encoding: 216 216 121
Width: 448
Flags: W
HStem: -14 52<332.273 420.606> -14 48<87.5937 216.463> 365 49<165.318 281.448>
VStem: 37 42<40.9348 104.497> 40 77<280.888 323.689> 123 42<34.4744 117.331> 238 39.9648<71.6486 168.996 200.77 352.184> 313.016 41.9844<43.6942 358.395>
LayerCount: 2
Fore
SplineSet
117 -14 m 0x6f
 81 -14 37 35 37 72 c 0x77
 37 114 59 135 108 155 c 2
 210 197 l 2
 236 208 237 210 238 237 c 2
 240 301 l 2
 241 336 219 365 181 365 c 0
 161 365 139 358 126 347 c 0
 118 341 116 330 116 318 c 2
 117 300 l 2
 117 290 71 265 51 265 c 0
 44 265 40 269 40 274 c 0
 40 295 55 321 80 343 c 0
 125 384 214 414 254 414 c 0
 302 414 361 376 360 325 c 2
 355 85 l 2
 354 57 369 38 391 38 c 0
 408 38 419 41 428 49 c 0
 432 53 434 54 436 54 c 0
 442 54 447 49 447 43 c 0
 447 37 442 27 436 21 c 0
 415 0 388 -14 367 -14 c 0
 336 -14 288 3 270 38 c 1
 267 38 l 1xaf
 223 2 160 -14 117 -14 c 0x6f
189 34 m 0
 202 34 215 43 225 58 c 0
 230.491210938 66.2373046875 235 74 236 99 c 2
 238 148 l 2
 239 163 236 169 228 169 c 0
 225 169 212.310546875 161.09375 203 154 c 0
 182 138 165 110 165 87 c 0
 165 52 177 34 189 34 c 0
127.518554688 117.616210938 m 1
 83.9013671875 99.6552734375 79 93.2548828125 79 72 c 0
 79 60.0634765625 107.732421875 28.873046875 117.060546875 27.9990234375 c 0
 122.143554688 28.021484375 127.708007812 28.3671875 133.612304688 29.03125 c 0
 125.104492188 48.083984375 123 70.6708984375 123 87 c 0
 123 97.607421875 124.619140625 107.857421875 127.518554688 117.616210938 c 1
277.96484375 97.287109375 m 1
 296.532226562 82.130859375 300.805664062 57.0576171875 320.688476562 43.12890625 c 5
 315.625976562 55.1142578125 312.505859375 71.92578125 313.015625 86.1865234375 c 2
 318.008789062 325.875 l 2
 318.307617188 341.109375 292.522460938 368.799804688 258.405273438 371.815429688 c 1
 274.28125 352.454101562 282.727539062 325.84765625 281.981445312 299.744140625 c 0
 279.959960938 235.06640625 280.619140625 162.3046875 277.96484375 97.287109375 c 1
EndSplineSet
EndChar

StartChar: Thorn
Encoding: 222 222 122
Width: 460
Flags: W
HStem: -290 40<126.325 276.047> 106 35<166.323 243.57> 349 39<300.77 348.583 391.1 465.191> 386 30<164.807 238.326>
VStem: 11 75<-214.551 -106.765> 15 42<218.368 311.101> 40 66<17.4468 79.9028> 94 42<193.252 333.202> 271 42<207.714 352.148> 343 42<226.761 348.005> 357 61<-155.431 -49.5781>
LayerCount: 2
Fore
SplineSet
453 388 m 0xe480
 460 388 466 382 466 373 c 0
 466 368 462 360 456 354 c 0
 453 351 450 349 448 349 c 2
 421 349 l 2
 403 349 393 346 391 341 c 0
 388 332 385 313 385 295 c 0
 385 193 287 106 201 106 c 0
 183 106 165 109 148 116 c 1
 124 104 106 86 106 74 c 0xe2c0
 106 46 152 54 237 49 c 0
 360 42 418 -16 418 -77 c 0
 418 -180 303 -290 195 -290 c 0
 81 -290 11 -244 11 -180 c 0xe8a0
 11 -145 21 -113 44 -95 c 0
 63 -79 95 -79 127 -53 c 1
 63 -41 40 6 40 44 c 0xe280
 40 57 47 68 63 81 c 0
 102 110 111 117 119 129 c 1
 73 156 15 205 15 258 c 0
 15 351 122 416 213 416 c 0xd480
 252 416 278 403 306 395 c 0
 338 386 378 385 398 385 c 0
 414 385 443 388 453 388 c 0xe480
207 141 m 0
 257 141 271 199 271 275 c 0
 271 333 249 386 200 386 c 0
 153 386 136 331 136 270 c 0xd180
 136 200 155 141 207 141 c 0
357 -124 m 0xc8a0
 357 -80 312 -69 206 -62 c 0
 190 -61 176 -60 163 -58 c 1
 105 -97 86 -114 86 -165 c 0
 86 -218 140 -250 209 -250 c 0
 249 -250 280 -241 304 -223 c 0
 337 -198 357 -170 357 -124 c 0xc8a0
100.63671875 333.952148438 m 4
 74.2373046875 312.728515625 57 285.423828125 57 258 c 4
 57 241.21875 76.1796875 215.05078125 103.072265625 191.90625 c 4
 96.150390625 218.443359375 94 246.509765625 94 270 c 4xc580
 94 288.505859375 95.5400390625 311.395507812 100.63671875 333.952148438 c 4
308.296875 206.904296875 m 4
 329.051757812 232.032226562 343 262.936523438 343 295 c 4xc0c0
 343 313.896484375 344.834960938 328.930664062 348.583007812 345.16015625 c 5
 333.549804688 346.596679688 316.389648438 348.930664062 299.479492188 353.266601562 c 4
 309.301757812 327.259765625 313 298.689453125 313 275 c 4
 313 254.590820312 312.130859375 230.549804688 308.296875 206.904296875 c 4
358.168945312 -46.5107421875 m 4
 343.765625 -20.345703125 307.498046875 2.8837890625 233.284179688 7.107421875 c 4
 178.708007812 10.318359375 140.578125 2.6494140625 97.318359375 18.7236328125 c 5
 104.395507812 2.86328125 119.478515625 -9.076171875 138.758789062 -12.087890625 c 4
 151 -14 161.465820312 -15.1318359375 172.731445312 -16.7421875 c 4
 182.166992188 -18.1943359375 194.16015625 -19.1337890625 210.125 -20.1318359375 c 4
 266.395507812 -23.84765625 319.545898438 -26.291015625 358.168945312 -46.5107421875 c 4
EndSplineSet
EndChar

StartChar: agrave
Encoding: 224 224 123
Width: 294
Flags: W
HStem: -3 27<24.3057 79.6694 220.375 274.674> 2 42<130.083 169.036> 352 25<35.0088 70.5029> 490.75 42<118.624 180.947> 600.25 42<118.648 180.777>
VStem: 73.75 42<535.624 597.948> 90 42<43.9617 340.852> 167 42<43.7352 367.437> 183.25 42<535.648 597.777>
LayerCount: 2
Fore
SplineSet
148.75 490.75 m 0x3c80
 106.75 490.75 73.75 523.75 73.75 565.75 c 0
 73.75 609.25 106.75 642.25 148.75 642.25 c 0
 192.25 642.25 225.25 609.25 225.25 565.75 c 0
 225.25 523.75 192.25 490.75 148.75 490.75 c 0x3c80
44 -3 m 0xbb
 32 -3 24 0 24 8 c 0
 24 18 36 21 47 24 c 0
 75 31 90 38 90 62 c 2
 90 279 l 2
 90 315 79 347 45 352 c 0
 38 353 35 357 35 365 c 0
 35 372 38 376 44 377 c 0
 97 389 181 413 198 427 c 0
 203 431 208 434 212 434 c 0
 216 434 218 432 218 429 c 0
 218 413 209 339 209 294 c 2
 209 62 l 2
 209 39 225 31 252 24 c 0
 263 21 275 18 275 8 c 0
 275 0 268 -3 255 -3 c 0xbb
 217 -3 185 2 150 2 c 0x7b
 115 2 83 -3 44 -3 c 0xbb
148.75 532.75 m 0
 169.928710938 532.75 183.25 547.08984375 183.25 565.75 c 0
 183.25 586.543945312 169.548828125 600.25 148.75 600.25 c 0
 130.090820312 600.25 115.75 586.9296875 115.75 565.75 c 0x3c80
 115.75 546.709960938 129.708984375 532.75 148.75 532.75 c 0
130.083007812 43.5576171875 m 1
 135.600585938 43.7841796875 143.317382812 44 150 44 c 0
 156.685546875 44 161.713867188 43.8837890625 169.036132812 43.59375 c 1
 168.36328125 46.5029296875 167 56.427734375 167 62 c 2
 167 294 l 2
 167 317.278320312 168.853515625 342.529296875 171.064453125 369.037109375 c 1
 155.0859375 363.500976562 134.125976562 357.075195312 114.616210938 351.625976562 c 1
 128.044921875 329.2421875 132 302.641601562 132 279 c 2
 132 62 l 2x7b
 132 55.81640625 131.6953125 51.21484375 130.083007812 43.5576171875 c 1
EndSplineSet
EndChar

StartChar: aacute
Encoding: 225 225 124
Width: 276
Flags: W
HStem: -287 27<-19.3848 18.4884> 352 25<35.0088 67.5501> 490.75 42<110.624 172.947> 600.25 42<110.648 172.777>
VStem: 65.75 42<535.624 597.948> 89 42<-139.406 339.218> 166 42<-113.767 369.015> 175.25 42<535.648 597.777>
LayerCount: 2
Fore
SplineSet
140.75 490.75 m 0xf9
 98.75 490.75 65.75 523.75 65.75 565.75 c 0
 65.75 609.25 98.75 642.25 140.75 642.25 c 0
 184.25 642.25 217.25 609.25 217.25 565.75 c 0
 217.25 523.75 184.25 490.75 140.75 490.75 c 0xf9
1 -287 m 0
 -6 -287 -20 -284 -20 -277 c 0
 -20 -269 -11 -261 -9 -260 c 0
 15 -254 38 -237 57 -197 c 0
 86 -136 89 0 89 69 c 2
 89 279 l 2
 89 315 77 345 43 352 c 0
 38 353 35 359 35 365 c 0
 35 370 38 376 42 377 c 0
 92 389 176 415 195 427 c 0
 202 431 206 434 208 434 c 0
 212 434 215 432 215 429 c 0
 211 388 208 320 208 275 c 2
 208 91 l 2xf6
 208 29 211.380859375 -73.7265625 178 -152 c 0
 149 -220 41 -287 1 -287 c 0
140.75 532.75 m 0
 161.928710938 532.75 175.25 547.08984375 175.25 565.75 c 0
 175.25 586.543945312 161.548828125 600.25 140.75 600.25 c 0
 122.090820312 600.25 107.75 586.9296875 107.75 565.75 c 0xf9
 107.75 546.709960938 121.708984375 532.75 140.75 532.75 c 0
108.358398438 -177.96875 m 1
 122.528320312 -163.650390625 134.2578125 -147.50390625 139.366210938 -135.524414062 c 0
 167.567382812 -69.3974609375 166 27.76953125 166 91 c 2
 166 275 l 2
 166 303.020507812 166.977539062 335.624023438 168.78125 370.637695312 c 1
 152.93359375 365.094726562 133.803710938 358.947265625 112.015625 352.483398438 c 1
 126.462890625 329.95703125 131 303.413085938 131 279 c 2
 131 69 l 2xf6
 131 8.34375 129.859375 -100.10546875 108.358398438 -177.96875 c 1
EndSplineSet
EndChar

StartChar: Yacute
Encoding: 221 221 125
Width: 368
Flags: W
HStem: -3 27<24.2499 78.7903 223.684 298.75> 2 42<129.24 170.863> 352 48<210 357.395> 665 41<267.527 383.384>
VStem: 90 42<44.0586 350 406 519.465> 168 42<44.0297 352 400 555.373>
LayerCount: 2
Fore
SplineSet
44 -3 m 0xbc
 31 -3 24 0 24 8 c 0
 24 18 33 21 47 24 c 0
 78 31 90 41 90 68 c 2
 90 350 l 1
 77 350 59 350 38 352 c 0
 34 353 24 363 24 370 c 0
 24 373 29 375 31 376 c 2
 90 406 l 1
 90 637 273 706 360 706 c 0
 434 706 470 681 470 646 c 0
 470 619 454 606 436 606 c 0
 424 606 415 617 402 629 c 0
 385 646 362 665 318 665 c 0
 255 665 210 611 210 498 c 2
 210 410 l 2
 210 402 215 400 221 400 c 2
 346 400 l 2
 353 400 359 395 359 389 c 0
 359 380 357 368 353 360 c 0
 351 355 347 352 344 352 c 2
 229 352 l 2
 213 352 210 347 210 339 c 2
 210 68 l 2
 210 41 222 30 276 24 c 0
 290 22 299 18 299 8 c 0
 299 0 292 -3 279 -3 c 0xbc
 239 -3 187 2 152 2 c 0x7c
 117 2 84 -3 44 -3 c 0xbc
132 68 m 2
 132 59.5732421875 131.8515625 54.8671875 129.240234375 43.435546875 c 1
 135.784179688 43.732421875 144.333007812 44 152 44 c 0x7c
 158.326171875 44 162.883789062 43.9091796875 170.86328125 43.6513671875 c 1
 168.846679688 51.708984375 168 60.673828125 168 68 c 2
 168 498 l 2
 168 519.74609375 169.427734375 539.258789062 172.50390625 558.482421875 c 1
 148.873046875 521.838867188 132 473.033203125 132 406 c 2
 132 68 l 2
EndSplineSet
EndChar

StartChar: Ucircumflex
Encoding: 219 219 126
Width: 555
Flags: W
HStem: -14 52<178.245 297.623 391.478 432.814> 21 24<479.471 551.885> 379 35<203.556 310.779> 639 25<292.013 331.853>
VStem: 35 42<106.686 276.145> 113 42<112.669 319.852> 351 42<37.8906 57 66.2031 341.238 400.004 627.504> 429 42<48.8496 649.33>
LayerCount: 2
Fore
SplineSet
356 -19 m 0x7f
 353 -19 345 -12 345 -9 c 0
 345 4 350 34 350 51 c 2
 350 57 l 1
 330 26 285 -14 219 -14 c 0xbf
 105 -14 35 89 35 190 c 0
 35 306 119 414 259 414 c 0
 286 414 316 408 331 403 c 0
 337 401 341 400 344 400 c 0
 347 400 351 406 351 424 c 2
 351 566 l 2
 351 620 333 633 301 639 c 0
 295 640 292 646 292 652 c 0
 292 657 294 662 300 664 c 0
 359 679 439 693 458 701 c 0
 463 703 468 704 471 704 c 0
 475 704 477 702 478 698 c 0
 478 686 471 652 471 562 c 2
 471 110 l 2
 471 64 477 45 492 45 c 0
 499 45 518 46 535 48 c 0
 548 49 553 47 553 39 c 0
 553 30 546 21 539 21 c 0
 502 16 419 7 372 -13 c 0
 361 -19 360 -19 356 -19 c 0x7f
280 38 m 0
 303 38 329 61 350 90 c 1
 351 267 l 2
 351 321 327 379 253 379 c 0
 207 379 155 343 155 213 c 0
 155 77 236 38 280 38 c 0
185.821289062 32.1826171875 m 0
 145.374023438 65.6083984375 113 123.754882812 113 213 c 0
 113 256.004882812 118.958007812 292.174804688 129.419921875 321.6640625 c 0
 95.3818359375 287.770507812 77 240.22265625 77 190 c 0
 77 117.043945312 119.723632812 49.3623046875 185.821289062 32.1826171875 c 0
393 566 m 0
 391.499023438 366.865234375 392 268.7109375 392 51 c 3
 392 46.294921875 391.87890625 43.8154296875 391.477539062 37.890625 c 1
 405.918945312 41.8447265625 420.206054688 45.0537109375 435.685546875 48.03125 c 1
 430.379882812 65.4482421875 429 85.44921875 429 110 c 2
 429 562 l 2
 429 600.258789062 430.176757812 627.911132812 431.711914062 650.387695312 c 1
 415.515625 646.721679688 398.419921875 643.13671875 376.612304688 638.45703125 c 1
 388.995117188 617.861328125 393 593.639648438 393 566 c 0
EndSplineSet
EndChar

StartChar: ecircumflex
Encoding: 234 234 127
Width: 343
Flags: W
HStem: -14 27<112.164 201.107> 386 28<144.315 227.98>
VStem: 47 42<229.853 301.99> 269 42<87.0218 179.655>
LayerCount: 2
Fore
SplineSet
154 -14 m 0
 113 -14 65 -1 40 22 c 1
 33 36 30 79 29 102 c 0
 29 108 35 111 42 111 c 0
 47 111 53 109 54 104 c 0
 71 38 124 13 163 13 c 0
 202 13 223 42 223 81 c 0
 223 107 199 127 139 154 c 0
 66.1142578125 186.798828125 47 249 47 299 c 0
 47 363 102 414 192 414 c 0
 232 414 269 404 282 395 c 1
 292 380 301 344 301 316 c 0
 301 311 296 309 291 309 c 0
 283 309 274 313 272 318 c 0
 254 362 219 386 181 386 c 0
 148 386 127 365 127 327 c 0
 127 306 145 287 199 266 c 0
 281.654296875 233.856445312 311 170 311 108 c 0
 311 36 241 -14 154 -14 c 0
264.88671875 85.3935546875 m 1
 267.302734375 91.7021484375 269 99.7138671875 269 108 c 0
 269 148.540039062 254.51953125 185.774414062 213.533203125 211.952148438 c 0
 205.041015625 217.375976562 195.20703125 222.411132812 183.77734375 226.85546875 c 0
 137.93359375 244.68359375 103.428710938 262.541015625 89.0791015625 302.3125 c 1
 89.0439453125 301.50390625 89 300.083984375 89 299 c 0
 89 259.2421875 101.841796875 216.778320312 156.235351562 192.30078125 c 0
 206.93359375 169.486328125 248.69140625 148.551757812 261.790039062 103.662109375 c 0
 263.583007812 97.515625 264.447265625 92.6611328125 264.88671875 85.3935546875 c 1
EndSplineSet
EndChar

StartChar: Ugrave
Encoding: 217 217 128
Width: 565
Flags: W
HStem: -14 31<245.913 349.964> 15 48<115.681 168.26> 372 42<266.599 392.399>
VStem: 75 42<60.5916 620.87> 153 42<60.4064 342.455 355.051 656.085> 405 42<76.9559 302.691> 488 42<121.758 311.571>
LayerCount: 2
Fore
SplineSet
309 -14 m 0xbe
 280 -14 224 -8 198 -1 c 0
 169 7 145 15 138 15 c 0x7e
 130 15 97 8 91 2 c 0
 88 -1 85 -3 82 -3 c 0
 76 -3 68 2 68 9 c 0
 68 21 75 56 75 81 c 2
 75 566 l 2
 75 601 56 627 29 639 c 0
 23 642 16 646 16 654 c 0
 16 661 23 663 28 664 c 0
 54 669 170 696 183 702 c 0
 187 704 190 705 192 705 c 0
 195 705 198 702 198 698 c 0
 198 693 195 649 195 593 c 2
 195 388 l 2
 195 362 197 356 204 355 c 1
 245 389 306 414 350 414 c 0
 463 414 530 328 530 217 c 0
 530 80 452 -14 309 -14 c 0xbe
307 17 m 0xbe
 373 17 405 94 405 195 c 0
 405 272 377 372 292 372 c 0
 259 372 224 353 195 326 c 1
 195 132 l 2
 195 62 237 17 307 17 c 0xbe
153 132 m 0
 153.822265625 300.551757812 153.354492188 431.216796875 153 599 c 0
 153 620.438476562 153.36328125 637.67578125 153.9453125 656.084960938 c 1
 136.791992188 651.749023438 116.043945312 646.744140625 95.970703125 642.060546875 c 1
 108.329101562 623.956054688 117 598.169921875 117 572 c 2
 117 87 l 2
 117 77.7685546875 116.361328125 69.25390625 115.450195312 60.166015625 c 1
 121.51953125 61.3681640625 128.9375 63 138 63 c 0x7e
 149.380859375 63 159.013671875 61.07421875 168.865234375 58.2177734375 c 0
 158.564453125 79.93359375 153 104.928710938 153 132 c 0
427.1484375 69.1806640625 m 0
 467.666015625 101.161132812 488 153.889648438 488 223 c 0
 488 301.212890625 452.182617188 356.799804688 390.071289062 373.081054688 c 0
 435.13671875 325.029296875 447 245.489257812 447 195 c 0
 447 153.139648438 441.504882812 107.778320312 427.1484375 69.1806640625 c 0
EndSplineSet
EndChar

StartChar: Uacute
Encoding: 218 218 129
Width: 435
Flags: W
HStem: -15 42<147.811 287.374> 39 42<196.911 286.621> 377 37<189.672 281.89>
VStem: 35 42<103.508 285.979> 98 42<141.054 303.059>
LayerCount: 2
Fore
SplineSet
231 -15 m 0
 110 -15 35 67 35 208 c 0
 35 338 147 414 264 414 c 0
 307 414 346 402 378 379 c 0
 386 373 390 367 390 360 c 0
 390 343 364 319 347 319 c 0
 340 319 334 324 326 330 c 0
 297 352 256 377 232 377 c 0
 177 377 140 298 140 230 c 0
 140 136 189 81 274 81 c 0
 313 81 347 92 379 124 c 0
 382 127 386 129 389 129 c 0
 395 129 400 123 400 115 c 0
 400 107 392.754882812 98.4521484375 385 84 c 0
 363 43 322 -15 231 -15 c 0
231 27 m 0
 255.634765625 27 273.110351562 31.83984375 288.318359375 39.4306640625 c 1
 285.139648438 39.240234375 278.51953125 39 274 39 c 0
 164.5625 39 98 118.868164062 98 230 c 0
 98 255.09375 101.547851562 278.444335938 109.278320312 303.9140625 c 1
 89.5908203125 279.05078125 77 247.534179688 77 208 c 0
 77 84.0068359375 135.022460938 27 231 27 c 0
EndSplineSet
EndChar

StartChar: Udieresis
Encoding: 220 220 130
Width: 428
Flags: W
HStem: -15 42<144.855 283.137> 40 42<182.783 283.191> 257 42<329.357 359.922> 257 31<141.332 278.988> 385 29<182.441 267.895>
VStem: 30 42<102.289 284.778> 88 42<134.186 256.443> 288 42<299.242 343.709>
LayerCount: 2
Fore
SplineSet
231 -15 m 0xdf
 91 -15 30 82 30 213 c 0
 30 328 136 414 241 414 c 0
 321 414 403 362 403 288 c 0
 403 267 394 257 373 257 c 2
 155 257 l 2
 136 257 130 249 130 220 c 0
 130 124 181 82 266 82 c 0
 306 82 349 98 374 127 c 0
 379 134 381 135 385 135 c 0
 390 135 393 131 393 125 c 0
 393 112 389.038085938 97.3779296875 379 81 c 0
 360 50 314 -15 231 -15 c 0xdf
153 288 m 2
 230 288 l 2
 262 288 258 289 280 293 c 0
 286 294 288 301 288 315 c 0
 288 353 273 385 226 385 c 0
 180 385 141 338 141 298 c 0
 141 291 145 288 153 288 c 2
99.029296875 296.311523438 m 4
 82.18359375 272.09765625 72 243.567382812 72 213 c 4
 72 95.4853515625 118.701171875 27 231 27 c 4
 251.981445312 27 268.6015625 32.3408203125 283.587890625 40.79296875 c 5
 279.366210938 40.4228515625 271.616210938 40 266 40 c 4
 162.317382812 40 88 102.833984375 88 220 c 4
 88 235.876953125 87.4052734375 258.430664062 103.811523438 277.40625 c 4
 101.01953125 283.033203125 99.2734375 289.352539062 99.029296875 296.311523438 c 4
329.357421875 299 m 4xef
 359.921875 299 l 5
 356.780273438 314.725585938 344.663085938 331.109375 326.727539062 344.361328125 c 4
 328.958007812 334.412109375 330 324.4375 330 315 c 4
 330 312.850585938 330.301757812 306.69921875 329.357421875 299 c 4xef
EndSplineSet
EndChar

StartChar: germandbls
Encoding: 223 223 131
Width: 565
Flags: W
HStem: -3 27<19.291 71.3797 216.714 265.629 297.286 345.612 491.734 541.586> 2 41.5029<123.895 165.9 397.658 439.475> 371.993 42.0068<364.96 409.234> 638 26<32.0239 66.271>
VStem: 85 42<43.9583 626.987> 163 42<43.9583 334.49 351.42 653.545> 359 42<44.0586 338.3> 436 42<43.7949 344.106>
LayerCount: 2
Fore
SplineSet
39 -3 m 0xbf
 27 -3 19 0 19 8 c 0
 19 16 25 19 42 24 c 0
 62 30 84 38 85 65 c 2
 85 566 l 2
 85 602 75 632 41 638 c 0
 35 639 32 644 32 652 c 0
 32 658 34 662 40 664 c 0
 68 673 143 689 176 703 c 0
 178 704 205 705 207 705 c 0
 211 705 214 702 214 698 c 0
 214 686 205 669 205 562 c 2
 205 388 l 2
 205 367 207 360 212 351 c 1
 243 374 301 414 364 414 c 0
 429 414 478 356 478 278 c 2
 478 68 l 2
 478 41 499 30 519 24 c 0
 533 20 542 16 542 8 c 0
 542 0 536 -3 522 -3 c 0xbf
 482 -3 454 2 419 2 c 0x7f
 384 2 357 -3 317 -3 c 0
 303 -3 297 0 297 8 c 0
 297 17 305 19 320 24 c 0
 340 31 359 41 359 68 c 2
 359 272 l 2
 359 322 333 362 290 362 c 0
 265 362 251 355 232 340 c 0
 211 323 205 309 205 268 c 2
 205 65 l 2
 206 38 224 30 244 24 c 0
 258 20 266 16 266 8 c 0
 266 0 261 -3 246 -3 c 0xbf
 206 -3 180 2 145 2 c 0x7f
 110 2 79 -3 39 -3 c 0xbf
163 562 m 0
 163 604.73828125 164.370117188 633.571289062 166.206054688 654.911132812 c 1
 149.475585938 649.640625 128.215820312 643.939453125 109.313476562 639.063476562 c 1
 123.469726562 616.215820312 127 589.654296875 127 566 c 2
 127 64.22265625 l 2
 126.67578125 55.4619140625 126.403320312 52.9658203125 123.89453125 43.5029296875 c 1x7f
 130.19921875 43.775390625 137.80859375 44 145 44 c 0
 152.6171875 44 157.208984375 43.8828125 165.900390625 43.4912109375 c 1
 164.8046875 47.755859375 163 56.0810546875 163 64.22265625 c 3
 163 251.8046875 166.48828125 377.817382812 163 562 c 0
364.959960938 371.993164062 m 1
 390.134765625 345.299804688 401 308.6953125 401 272 c 2
 401 68 l 2
 401 59.4326171875 400.436523438 53.654296875 397.658203125 43.474609375 c 1
 403.43359375 43.7412109375 411.682617188 44 419 44 c 0
 426.360351562 44 431.244140625 43.876953125 439.474609375 43.5185546875 c 1
 437.9296875 48.83203125 436 59.919921875 436 68 c 2
 436 278 l 2
 436 339.026367188 400.728515625 371.432617188 364.959960938 371.993164062 c 1
EndSplineSet
EndChar

StartChar: acircumflex
Encoding: 226 226 132
Width: 562
Flags: W
HStem: -3 27<19.3057 71.766 214.421 262.685 279.143 318.768 516.515 571.593> 2 42<124.193 165.29 364.642 439.35> 206 19<205 221.209> 415 22<366.093 402.401> 421 28<482.323 540.893> 639 25<31.0088 64.6633>
VStem: 85 42<43.9583 627.804> 162 43<43.9583 205.999 225.002 647.28> 323 42<41.5002 81.4369>
LayerCount: 2
Fore
SplineSet
42 -3 m 0xa780
 27 -3 19 0 19 8 c 0
 19 18 31 20 42 24 c 0
 62 30 85 38 85 65 c 2
 85 566 l 2
 85 613 73 631 40 639 c 0
 34 640 31 646 31 652 c 0
 31 658 34 663 39 664 c 0
 90 676 169 689 199 702 c 0
 203 704 205 705 208 705 c 0
 212 705 214 702 214 696 c 0
 214 682 205 647 205 562 c 2
 205 234 l 2
 205 228 207 225 210 225 c 0
 218 225 274 276 289 289 c 0
 343 336 382 370 395 385 c 0
 402 393 404 397 404 400 c 0
 404 407 390 412 378 415 c 0
 369 417 366 419 366 425 c 0
 366 432 374 437 388 437 c 2
 437 437 l 2xb780
 468 437 509 449 528 449 c 0
 537 449 542 445 542 439 c 0
 542 431 531 425 517 421 c 0
 492 414 469 401 451 390 c 0
 438 382 368 320 320 278 c 0
 316 274 312 268 312 265 c 0
 312 263 313 260 315 258 c 0
 366 194 446 91 467 72 c 0
 489 51 522 33 542 26 c 0
 556 21 572 18 572 8 c 0
 572 -1 564 -3 552 -3 c 0
 500 -3 365 0 297 0 c 0
 283 0 279 4 279 9 c 0
 279 17 287 22 296 25 c 0
 311 30 323 36 323 48 c 0
 323 52 320 57 316 62 c 2
 220 199 l 2
 216 204 214 206 210 206 c 0
 207 206 205 204 205 199 c 0
 204 180 204 158 204 135 c 0
 204 112 204 88 205 65 c 0
 205 38 220 30 240 24 c 0
 251 20 263 18 263 8 c 0
 263 -2 245 -3 240 -3 c 0xaf80
 201 -3 180 2 145 2 c 0x6780
 110 2 81 -3 42 -3 c 0xa780
163 562 m 0
 163 598.899414062 164.608398438 626.620117188 166.59375 648.500976562 c 1
 149.91015625 644.51171875 132.69140625 640.875976562 112.140625 636.637695312 c 1
 123.75390625 616.287109375 127 591.5859375 127 566 c 2
 127 65 l 2
 127 57.677734375 126.297851562 51.3896484375 124.193359375 43.5068359375 c 1
 128.875976562 43.71875 138.07421875 44 145 44 c 0x6780
 152.416015625 44 157.602539062 43.8623046875 165.290039062 43.498046875 c 1
 164.233398438 48.3125 163.143554688 55.5244140625 162.998046875 64.13671875 c 0
 162.055664062 86.4755859375 162 112.399414062 162 135 c 0
 162 269.098632812 163 418.436523438 163 562 c 0
264.15625 209.172851562 m 1
 349.706054688 87.0869140625 l 2
 352.9921875 82.8408203125 365 70.9150390625 365 48 c 0
 365 45.66015625 364.984375 44.8671875 364.641601562 41.4541015625 c 1
 388.663085938 41.1474609375 412.918945312 40.7763671875 439.349609375 40.3681640625 c 1
 409.538085938 67.6943359375 340.325195312 158.65625 286.668945312 226.153320312 c 1
 280.236328125 221.169921875 271.479492188 214.518554688 264.15625 209.172851562 c 1
EndSplineSet
EndChar

StartChar: atilde
Encoding: 227 227 133
Width: 290
Flags: W
HStem: -3 27<20.0556 73.9702 216.03 269.944> 2 42<124.94 165.06> 639 25<31.0088 63.7365>
VStem: 85 42<43.9408 626.743> 163 42<43.9278 648.313>
LayerCount: 2
Fore
SplineSet
39 -3 m 0xb8
 32 -3 19 -2 19 6 c 0
 19 16 31 20 42 24 c 0
 62 30 85 35 85 62 c 2
 85 566 l 2
 85 605 72 632 39 639 c 0
 34 640 31 646 31 652 c 0
 31 658 34 663 38 664 c 0
 89 676 169 691 201 703 c 0
 203 704 205 705 207 705 c 0
 210 705 212 701 212 698 c 0
 212 686 205 652 205 562 c 2
 205 62 l 2
 205 35 228 30 248 24 c 0
 259 20 271 16 271 6 c 0
 271 -2 258 -3 251 -3 c 0xb8
 212 -3 180 2 145 2 c 0x78
 110 2 78 -3 39 -3 c 0xb8
124.940429688 43.5517578125 m 1
 130.787109375 43.7919921875 138.225585938 44 145 44 c 0x78
 152.086914062 44 157.126953125 43.8779296875 165.059570312 43.5517578125 c 1
 164.099609375 47.966796875 163 56.0478515625 163 62 c 2
 163 562 l 2
 163 599.676757812 164.12109375 626.6953125 165.643554688 649.379882812 c 1
 149.3515625 645.466796875 130.052734375 641.209960938 109.940429688 636.860351562 c 1
 122.474609375 615.962890625 127 590.356445312 127 566 c 2
 127 62 l 2
 127 55.5947265625 126.759765625 51.923828125 124.940429688 43.5517578125 c 1
EndSplineSet
EndChar

StartChar: adieresis
Encoding: 228 228 134
Width: 827
Flags: W
HStem: -3 27<24.3497 78.6472 221.03 275.694 287.314 342.563 485.843 541.65 553.282 608.293 749.03 803.65> 2 41.5469<129.895 170.06 393.891 434.121 658.984 698.035> 349 25<43.0088 74.1613> 372 42<281.449 421.885 547.973 673.961>
VStem: 90 42<43.9278 342.369> 171 42<43.9278 324.425 347.433 363.743> 354 42<43.9278 350.925> 432 42<43.7798 316.006> 619 42<43.9189 350.922> 696 42<43.9278 349.705>
LayerCount: 2
Fore
SplineSet
44 -3 m 0x8fc0
 33 -3 24 -1 24 8 c 0
 24 17 34 20 47 24 c 0
 66 30 90 35 90 62 c 2
 90 277 l 2
 90 313 86 343 52 349 c 0
 46 350 43 354 43 362 c 0
 43 370 46 373 51 374 c 0xafc0
 105 387 167 403 203 426 c 0
 205 427 208 430 212 430 c 0
 215 430 218 427 218 423 c 0
 218 414 213 378 213 359 c 0
 213 353 214 348 215 347 c 2
 217 347 l 1
 247 376 296 414 373 414 c 0
 421 414 452 396 473 345 c 1
 476 345 l 1
 519 383 573 414 638 414 c 0
 703 414 739 345 739 275 c 2
 738 62 l 2
 738 35 761 30 781 24 c 0
 794 20 804 17 804 8 c 0
 804 0 799 -3 784 -3 c 0x9fc0
 744 -3 716 2 681 2 c 0x4fc0
 646 2 613 -3 573 -3 c 0
 561 -3 553 0 553 8 c 0
 553 18 563 21 576 24 c 0
 597 29 619 35 619 62 c 2
 619 272 l 2
 619 320 607 367 564 367 c 0
 530 367 520 358 502 340 c 0
 485.875 323.875 474 303 474 268 c 2
 474 62 l 2
 474 35 499 29 519 24 c 0
 532 21 542 17 542 8 c 0
 542 0 535 -3 522 -3 c 0x8fc0
 482 -3 450 2 415 2 c 0x4fc0
 380 2 347 -3 307 -3 c 0
 296 -3 287 0 287 8 c 0
 287 18 299 20 310 24 c 0
 330 30 354 35 354 62 c 2
 354 272 l 2
 354 320 342 367 299 367 c 0
 265 367 251.610351562 359.389648438 237 340 c 0
 218.944335938 316.037109375 210 302 210 268 c 2
 210 62 l 2
 210 35 233 30 253 24 c 0
 264 20 276 18 276 8 c 0
 276 0 268 -3 256 -3 c 0x8fc0
 216 -3 185 2 150 2 c 0x4fc0
 115 2 84 -3 44 -3 c 0x8fc0
178.513671875 325.227539062 m 1
 171.850585938 340.646484375 171 349.90625 171 359 c 0
 171 360.961914062 171.006835938 361.560546875 171.092773438 364.643554688 c 1
 154.63671875 358.5859375 138.2578125 353.456054688 118.942382812 348.041015625 c 1
 131.458984375 323.94921875 132 298.293945312 132 277 c 2
 132 62 l 2
 132 55.7177734375 131.565429688 50.8349609375 129.89453125 43.546875 c 1x4fc0
 135.958007812 43.7978515625 143.15234375 44 150 44 c 0
 157.125 44 162.026367188 43.880859375 170.059570312 43.548828125 c 1
 169.098632812 47.970703125 168 56.0458984375 168 62 c 2
 168 268 l 2
 168 288.80078125 171.268554688 308.146484375 178.513671875 325.227539062 c 1
439.232421875 316.69921875 m 1
 434.163085938 329.008789062 l 2
 418.629882812 366.732421875 407.182617188 372 373 372 c 0x1fc0
 372 372 372.9140625 372.001953125 370.979492188 371.9921875 c 1
 392.607421875 341.021484375 396 304.087890625 396 272 c 2
 396 62 l 2
 396 55.59765625 395.728515625 51.7646484375 393.890625 43.5107421875 c 1
 400.723632812 43.796875 407.7890625 44 415 44 c 0
 421.836914062 44 425.938476562 43.91015625 434.12109375 43.5908203125 c 1
 433.225585938 47.55078125 432 56.087890625 432 62 c 2
 432 268 l 2
 432 285.3515625 434.521484375 301.939453125 439.232421875 316.69921875 c 1
635.982421875 371.98828125 m 1
 657.609375 341.018554688 661 304.087890625 661 272 c 2
 661 62 l 2
 661 55.400390625 660.958007812 53.146484375 658.984375 43.470703125 c 1
 665.858398438 43.7705078125 673.508789062 44 681 44 c 0
 687.043945312 44 691.422851562 43.9091796875 698.03515625 43.662109375 c 1
 697.1171875 47.88671875 696 55.9931640625 696 62.0986328125 c 2
 697 275.098632812 l 2
 697 336.834960938 666.557617188 372 638 372 c 0
 637.444335938 372 636.653320312 371.98828125 635.982421875 371.98828125 c 1
EndSplineSet
EndChar

StartChar: aring
Encoding: 229 229 135
Width: 578
Flags: W
HStem: -3 27<24.2101 78.9702 221.03 275.668 304.056 357.97 500.03 554.003> 2 41.5488<129.95 170.05 408.932 449.052> 366 48<278.706 401.06>
VStem: 90 42<43.9407 341.198> 171 42<43.7619 325.762 347.142 363.743> 369 42<43.9278 346.5> 447 42<43.9278 344.267>
LayerCount: 2
Fore
SplineSet
44 -3 m 0xbe
 32 -3 24 0 24 8 c 0
 24 18 32 20 47 24 c 0
 67 29 90 35 90 62 c 2
 90 277 l 2
 90 313 87 340 53 349 c 0
 47 351 43 354 43 362 c 0
 43 369 46 373 52 374 c 0
 98 386 174 404 202 425 c 0
 206 428 209 430 213 430 c 0
 216 430 218 427 218 423 c 0
 218 414 213 378 213 359 c 0
 213 353 214 348 215 347 c 0
 262 392 313 414 376 414 c 0
 441 414 489 353 489 275 c 2
 489 62 l 2
 489 35 512 30 532 24 c 0
 543 20 555 16 555 6 c 0
 555 -2 543 -3 535 -3 c 0xbe
 495 -3 465 2 430 2 c 0x7e
 395 2 363 -3 323 -3 c 0
 316 -3 303 -2 303 6 c 0
 303 16 315 20 326 24 c 0
 346 30 369 35 369 62 c 2
 369 272 l 2
 369 330 347.008789062 366 304 366 c 0
 274 366 246 349 218 326 c 0
 213 321 210 311 210 303 c 2
 210 62 l 2
 210 35 233 29 253 24 c 0
 269 20 276 16 276 8 c 0
 276 0 269 -3 256 -3 c 0xbe
 216 -3 185 2 150 2 c 0x7e
 115 2 84 -3 44 -3 c 0xbe
174.524414062 334.860351562 m 1
 171.296875 344.54296875 171 350.834960938 171 359 c 0
 171 360.745117188 171.020507812 362.059570312 171.079101562 364.1484375 c 1
 154.594726562 358.366210938 136.817382812 353.057617188 118.8359375 348.102539062 c 1
 131.94140625 323.630859375 132 298.153320312 132 277 c 2
 132 62 l 2
 132 55.5712890625 131.767578125 51.984375 129.950195312 43.548828125 c 1
 135.885742188 43.794921875 143.188476562 44 150 44 c 0
 157.119140625 44 162.0390625 43.880859375 170.049804688 43.548828125 c 1x7e
 169.083007812 48.0400390625 168 56.0205078125 168 62 c 2
 168 303 l 2
 168 313.936523438 170.213867188 324.375976562 174.524414062 334.860351562 c 1
381.951171875 371.708007812 m 1
 403.887695312 344.221679688 411 308.896484375 411 272 c 2
 411 62 l 2
 411 55.5703125 410.771484375 51.9755859375 408.931640625 43.5087890625 c 1
 415.412109375 43.7841796875 422.82421875 44 430 44 c 0
 436.764648438 44 441.512695312 43.890625 449.051757812 43.587890625 c 1
 448.109375 47.9228515625 447 56.0693359375 447 62 c 2
 447 275 l 2
 447 334.19140625 413.740234375 368.284179688 381.951171875 371.708007812 c 1
EndSplineSet
EndChar

StartChar: ae
Encoding: 230 230 136
Width: 545
Flags: W
HStem: -14 30<232.059 325.842> 383 31<215.649 312.334>
VStem: 35 42<115.572 255.99> 125 42<89.991 304.115> 378 42<88.2691 308.07> 468 42<133.516 277.03>
LayerCount: 2
Fore
SplineSet
259 -14 m 0
 147 -14 35 70 35 187 c 0
 35 298 156 414 279 414 c 0
 395 414 510 321 510 213 c 0
 510 96 409 -14 259 -14 c 0
280 16 m 0
 315 16 340.7578125 35.71875 362 71 c 0
 374.942382812 92.4951171875 378 150 378 189 c 3
 378 284 347 383 262 383 c 0
 226 383 208.075195312 365.376953125 194 343 c 0
 177.135742188 316.188476562 167 258 167 210 c 0
 167 111 200 16 280 16 c 0
412.706054688 86.828125 m 4
 448.275390625 121.448242188 468 167.294921875 468 213 c 4
 468 258.374023438 437.143554688 304.7421875 392.096679688 335.60546875 c 4
 413.162109375 289.490234375 420 233.696289062 420 189 c 4
 420 159.911132812 421.009765625 121.12890625 412.706054688 86.828125 c 4
135.051757812 305.815429688 m 4
 100.045898438 270.810546875 77 226.923828125 77 187 c 4
 77 134.032226562 108.908203125 87.1240234375 154.9140625 58.23046875 c 4
 132.657226562 104.509765625 125 162.07421875 125 210 c 4
 125 240.985351562 127.744140625 274.915039062 135.051757812 305.815429688 c 4
EndSplineSet
EndChar

StartChar: ccedilla
Encoding: 231 231 137
Width: 569
Flags: W
HStem: -285 27<19.9975 73.9702 222.131 285.003> -280 42<124.94 165.508> -14 31<257.561 338.327> 360 25<31.0088 58.4629> 369 45<279.023 404.539>
VStem: 85 42<-238.063 342.54> 163 42<-238.072 17.9674 71.7581 342.878 351.049 369.809> 405 42<89.8782 304.482> 492 42<136.146 307.529>
LayerCount: 2
Fore
SplineSet
40 -285 m 0xa780
 33 -285 19 -284 19 -276 c 0
 19 -266 31 -262 42 -258 c 0
 62 -252 85 -247 85 -220 c 2
 85 287 l 2
 85 302 72 353 39 360 c 0
 34 361 31 367 31 373 c 0
 31 379 34 384 38 385 c 0
 89 397 172 412 204 425 c 0
 205 425 205 426 206 426 c 0
 209 426 212 421 212 417 c 0
 212 405 207 376 207 360 c 0xb780
 207 356 207 352 208 351 c 1
 227 370 307 414 370 414 c 0
 473 414 534 319 534 225 c 0
 534 94 435 -14 309 -14 c 0
 281 -14 229 0 209 18 c 0
 206 18 205 -27 205 -33 c 2
 205 -220 l 2
 205 -247 243 -252 263 -258 c 0
 274 -262 286 -266 286 -276 c 0
 286 -284 272 -285 264 -285 c 0xaf80
 225 -285 180 -280 145 -280 c 0x6780
 110 -280 79 -285 40 -285 c 0xa780
299 17 m 0
 338 17 405 70 405 193 c 0
 405 336 336 369 293 369 c 0x2f80
 245 369 208 331 208 317 c 0
 208 259 205 190 205 166 c 0
 205 85 245 17 299 17 c 0
165 360 m 0x7780
 165 364 165.025390625 364.459960938 165.34765625 370.068359375 c 1
 147.305664062 365.747070312 127.107421875 361.375 105.7109375 356.814453125 c 1
 120.913085938 331.192382812 127 306.642578125 127 287 c 2
 127 -220 l 2
 127 -226.407226562 126.760742188 -230.071289062 124.940429688 -238.452148438 c 1
 130.528320312 -238.21875 138.235351562 -238 145 -238 c 0
 151.907226562 -238 157.504882812 -238.129882812 165.5078125 -238.424804688 c 1
 164.296875 -233.69921875 163 -226.068359375 163 -220 c 0
 163 21.8369140625 165 107.037109375 165 360 c 0x7780
422.021484375 69.8115234375 m 0
 464.538085938 105.62109375 492 161.38671875 492 225 c 0
 492 297.6875 450.180664062 360.747070312 387.41015625 370.649414062 c 0
 421.66796875 336.749023438 447 279.716796875 447 193 c 0
 447 144.786132812 437.526367188 103.279296875 422.021484375 69.8115234375 c 0
EndSplineSet
EndChar

StartChar: egrave
Encoding: 232 232 138
Width: 572
Flags: W
HStem: -285 27<312.056 365.97 511.69 571.003> -280 42<416.94 457.332> -14 53<182.598 311.634> 350.039 41.9609<395.955 458.133> 382 32<231.713 335.816>
VStem: 35 42<99.4562 269.666> 125 42<108.009 315.786> 377 42<-238.062 42.9948 60.9244 345.392> 455 42<-238.072 349.268>
LayerCount: 2
Fore
SplineSet
331 -285 m 0xa780
 324 -285 311 -284 311 -276 c 0
 311 -266 323 -262 334 -258 c 0
 354 -252 377 -247 377 -220 c 2
 377 13 l 2
 377 36 375 43 371 43 c 0
 368 43 365 44 362 41 c 0
 345 26 288 -14 235 -14 c 0
 131 -14 35 54 35 178 c 0
 35 335 160 414 307 414 c 0xaf80
 375 414 455 392 460 392 c 0
 474 392 479 402 486 417 c 0
 487 418 490 421 493 421 c 0
 499 421 509 416 509 411 c 0
 509 398 497 352 497 295 c 2
 497 -220 l 2
 497 -247 529 -252 549 -258 c 0
 560 -262 572 -266 572 -276 c 0
 572 -284 560 -285 552 -285 c 0xb780
 512 -285 473 -280 437 -280 c 0x6780
 402 -280 371 -285 331 -285 c 0xa780
297 39 m 0
 337 39 361 63 378 82 c 1
 378 118 378 250 377 275 c 0
 375 335 345 382 282 382 c 0
 213 382 167 320 167 205 c 0
 167 82 237 39 297 39 c 0
394.595703125 362.155273438 m 4
 410.037109375 336.794921875 417.975585938 306.4140625 418.971679688 276.5390625 c 4
 426.028320312 100.245117188 419 -42.796875 419 -220 c 4
 419 -226.407226562 418.760742188 -230.072265625 416.940429688 -238.451171875 c 5
 422.8984375 -238.205078125 430.182617188 -238 437 -238 c 4
 444.037109375 -238 449.239257812 -238.1171875 457.33203125 -238.418945312 c 5
 455.962890625 -232.516601562 455 -226.163085938 455 -220 c 6
 455 295 l 6
 455 315.064453125 456.340820312 333.629882812 458.1328125 350.0390625 c 5x7780
 447.2578125 350.553710938 423.686523438 356.555664062 394.595703125 362.155273438 c 4
197.451171875 31.509765625 m 4
 155.4765625 64.443359375 125 121.49609375 125 205 c 4
 125 250.265625 132.329101562 291.940429688 146.759765625 326.51171875 c 4
 103.065429688 293.997070312 77 244.262695312 77 178 c 4
 77 95.12109375 128.952148438 44.7412109375 197.451171875 31.509765625 c 4
EndSplineSet
EndChar

StartChar: eacute
Encoding: 233 233 139
Width: 384
Flags: W
HStem: -3 27<29.2179 79.1431 229.701 286.682> 2 42<129.794 171.646> 348 66<267.503 358.124>
VStem: 90 42<43.8867 339.859> 169 42<44.0915 328.659 346.001 368.109>
LayerCount: 2
Fore
SplineSet
49 -3 m 0xb8
 35 -3 29 0 29 8 c 0
 29 18 37 20 52 24 c 0
 77 30 90 43 90 62 c 2
 90 277 l 2
 90 313 82 342 49 349 c 0
 44 350 39 356 39 362 c 0
 39 368 44 373 48 374 c 0
 83 385 176 410 197 423 c 0
 205 428 209 430 212 430 c 0
 215 430 217 427 217 423 c 0
 217 416 216 380 214 348 c 0
 214 347 215 346 216 346 c 0
 248 385 292 414 331 414 c 0
 359 414 379 400 379 382 c 0
 379 362 360 330 340 330 c 0
 332 330 322 334 312 339 c 0
 301 343 290 348 280 348 c 0
 248 348 211 331 211 264 c 2
 211 62 l 2
 211 44 231 34 264 24 c 0
 278 20 287 17 287 8 c 0
 287 0 281 -3 267 -3 c 0xb8
 227 -3 190 2 155 2 c 0x78
 120 2 89 -3 49 -3 c 0xb8
129.793945312 43.3056640625 m 1
 137.346679688 43.6845703125 146.346679688 44 155 44 c 0x78
 160.62109375 44 165.991210938 43.8896484375 171.646484375 43.6953125 c 1
 170.700195312 46.9580078125 169 56.21484375 169 62 c 2
 169 264 l 2
 169 307.215820312 172 309.83203125 172 348 c 2
 172 349.311523438 l 1
 172.08203125 350.620117188 l 2
 172.461914062 356.705078125 172.649414062 360.014648438 173.0625 368.109375 c 1
 156.145507812 362.43359375 135.647460938 356.184570312 115.328125 350.168945312 c 1
 129.630859375 326.104492188 132 300.338867188 132 277 c 2
 132 62 l 2
 132 55.6328125 131.618164062 51.1669921875 129.793945312 43.3056640625 c 1
EndSplineSet
EndChar

StartChar: edieresis
Encoding: 235 235 140
Width: 351
Flags: W
HStem: -14 55<174.861 299.431> 352 48<193.312 316.775> 352 41<35.3574 71.1471>
VStem: 73 42<61.6951 351.549> 150 42<59.7806 350.688>
LayerCount: 2
Fore
SplineSet
226 -14 m 0xd8
 161 -14 73 26 73 105 c 2
 73 337 l 2
 73 348 67 352 56 352 c 2
 50 352 l 2
 43 352 35 366 35 376 c 0
 35 385 37.19921875 391.227539062 45 393 c 0xb8
 88.9990234375 402.99609375 150 441 168 463 c 0
 174 470 178 475 185 475 c 0
 191 475 199 473 198 464 c 2
 193 419 l 2
 191 404 200 400 217 400 c 2
 307 400 l 2
 312 400 317 390 317 378 c 0
 317 366 312 352 307 352 c 2
 232 352 l 2
 198 352 192 351 192 324 c 2
 192 127 l 2
 192 73 215 41 258 41 c 0
 297 41 315 47 332 59 c 0
 333 60 335 61 336 61 c 0
 341 61 343 54 343 47 c 0
 343 36 287 -14 226 -14 c 0xd8
176.446289062 37.021484375 m 1
 157.408203125 61.6123046875 150 93.4404296875 150 127 c 2
 150 324 l 2
 150 334.384765625 148.203125 357.856445312 165.985351562 376.104492188 c 1
 160.223632812 382.041015625 155.8359375 389.610351562 153.438476562 397.135742188 c 1
 138.446289062 387.412109375 123.668945312 378.932617188 105.235351562 370.264648438 c 1
 111.189453125 361.029296875 115 346.637695312 115 337 c 2
 115 105 l 2
 115 75.4267578125 137.323242188 51.1220703125 176.446289062 37.021484375 c 1
EndSplineSet
EndChar

StartChar: igrave
Encoding: 236 236 141
Width: 576
Flags: W
HStem: -19 56<187.364 296.956 404.349 448.173> 365 32<29.0051 68.7891 279.029 349.896>
VStem: 85 42<56.3052 352.994> 162 42<54.4189 365.294> 367 42<36.2365 57 77.4448 352> 445 42<46.9302 363.875>
LayerCount: 2
Fore
SplineSet
365 -19 m 0
 360 -19 358 -16 358 -11 c 0
 358 2 363 34 363 51 c 2
 363 57 l 1
 311 6 285 -14 223 -14 c 0
 158 -14 85 27 85 105 c 2
 85 308 l 2
 85 337 72 353 42 365 c 0
 35 367 29 370 29 381 c 0
 29 393 36 396 44 397 c 0
 89 400 155 404 192 413 c 0
 196 414 197 414 200 414 c 0
 206 414 211 411 210 400 c 0
 206 369 204 353 204 323 c 2
 204 128 l 2
 204 80 220 37 263 37 c 0
 297 37 312 45 325 57 c 0
 338.66796875 69.6171875 367 91 367 132 c 2
 367 315 l 2
 367 356 320 365 300 365 c 0
 288 365 279 368 279 382 c 0
 279 394 289 397 300 397 c 0
 361 398 437 403 473 413 c 0
 476 414 480 415 483 415 c 0
 490 415 496 411 496 404 c 0
 496 402 495 399 494 395 c 0
 492 388 487 342 487 326 c 2
 487 95 l 2
 487 59 495 45 505 45 c 0
 515 45 541 48 551 48 c 0
 558 48 566 47 566 35 c 0
 566 24 560 22 552 21 c 0
 500 14 414 -3 385 -13 c 0
 380.772460938 -14.4580078125 371 -19 365 -19 c 0
187.447265625 33.4287109375 m 1
 167.012695312 61.7705078125 162 96.1796875 162 128 c 2
 162 323 l 2
 162 339.158203125 162.559570312 352.158203125 163.704101562 365.293945312 c 1
 149.434570312 363.345703125 131.453125 361.458007812 113.84765625 359.942382812 c 1
 123.163085938 343.724609375 127 325.595703125 127 308 c 2
 127 105 l 2
 127 69.2744140625 150.665039062 44.970703125 187.447265625 33.4287109375 c 1
405 57 m 2
 405 51 l 2
 405 45.6845703125 404.814453125 42.3642578125 404.348632812 35.9375 c 1
 417.599609375 39.1435546875 432.8515625 42.509765625 451.29296875 46.240234375 c 1
 446.744140625 60.951171875 445 76.1669921875 445 95 c 2
 445 326 l 2
 445 337.021484375 446.165039062 350.291992188 447.6640625 365.188476562 c 1
 432.145507812 362.912109375 415.502929688 361.096679688 396.810546875 359.557617188 c 1
 397.235351562 358.840820312 399.099609375 355.608398438 400.090820312 353.634765625 c 0
 405.883789062 342.098632812 409 328.6953125 409 315 c 2
 409 132 l 2
 409 108.690429688 405 84.4267578125 405 57 c 2
EndSplineSet
EndChar

StartChar: iacute
Encoding: 237 237 142
Width: 465
Flags: W
HStem: 358 42<106.378 164.079> 378 27<209.71 246.076 298.785 340.345 424.433 469.165>
VStem: 162 42<310 359.112> 347 123<330.5 400>
LayerCount: 2
Fore
SplineSet
214 -21 m 0x70
 196.797851562 13.4052734375 184.634765625 49.5048828125 171 87 c 0
 141 170 106 247 74 329 c 0
 64 353 43 374 23 380 c 0
 12 384 5 387 5 396 c 0
 5 404 18 405 25 405 c 0x70
 64 405 90 400 125 400 c 0xb0
 160 400 188 405 227 405 c 0
 234 405 247 404 247 396 c 0
 247 386 236 382 224 378 c 0
 210 373 204 356 204 337 c 0
 204 328 205 318 208 310 c 2
 273 137 l 2
 273.900390625 134.604492188 277.026367188 135.493164062 278 138 c 2
 339 295 l 2
 344 308 347 325 347 336 c 0
 347 362 339 371 321 378 c 0
 304 384 298 387 298 396 c 0
 298 404 309 405 318 405 c 0x70
 333 405 356 400 391 400 c 0xb0
 426 400 431 405 450 405 c 0
 460 405 470 404 470 396 c 0
 470 387 463 383 447 378 c 0
 427 372 399 344 385 311 c 2
 307 123 l 2
 298.491210938 104.28125 264.8984375 8.8466796875 247 -21 c 0
 240.4140625 -31.9833984375 219.727539062 -32.4541015625 214 -21 c 0x70
236.171875 38.810546875 m 5
 243.349609375 56.400390625 251.483398438 77.5029296875 257.65625 93.6220703125 c 5
 257.65625 93.6220703125 239.837890625 105.846679688 233.68359375 122.227539062 c 2
 168.68359375 295.227539062 l 2
 162.791015625 310.942382812 162 324.962890625 162 337 c 0
 162 344.84375 162.206054688 349.184570312 164.079101562 359.595703125 c 1
 152.174804688 358.75390625 139.084960938 358 125 358 c 0xb0
 118.309570312 358 113.7109375 358.10546875 106.377929688 358.407226562 c 1
 107.501953125 356.362304688 110.780273438 349.928710938 112.953125 344.712890625 c 0
 144.8046875 263.092773438 179.658203125 186.603515625 210.499023438 101.276367188 c 0
 217.67578125 81.5419921875 229.094726562 57.1865234375 236.171875 38.810546875 c 5
EndSplineSet
EndChar

StartChar: icircumflex
Encoding: 238 238 143
Width: 718
Flags: W
HStem: 358 42<112.575 184.166 352.584 420.802> 378 27<6.05563 53.3292 229.927 251.702 267.432 299.353 469.984 516.944 551.056 594.145 680.56 722.003>
VStem: 182 42<271.889 359.586> 251 17<386 404> 419 42<277.651 358.688> 608 115<329.5 400>
LayerCount: 2
Fore
SplineSet
249 -23 m 0x7c
 236 -23 220.666015625 -20.134765625 219 -16 c 2
 80 329 l 2
 70 355 48 372 28 378 c 0
 17 382 5 386 5 396 c 0
 5 404 18 405 25 405 c 0x7c
 50 405 105 400 131 400 c 0xbc
 159 400 220 405 248 405 c 0
 253 405 268 404 268 396 c 0
 268 386 256 382 245 378 c 0
 231 374 224 357 224 338 c 0
 224 329 226 320 229 312 c 2
 287 163 l 2
 288 160 294 159 296 159 c 0
 298 159 304 160 305 163 c 2
 343 253 l 2
 345.586914062 259.283203125 345 266 341.2109375 275 c 10
 310.3515625 351 l 2
 303 366 288.162109375 372.458007812 274 378 c 0
 263 382 251 386 251 396 c 0
 251 404 263 405 271 405 c 0x7c
 289 405 343 400 380 400 c 0xbc
 417 400 476 405 498 405 c 0
 505 405 518 404 518 396 c 0
 518 386 506 382 495 378 c 0
 480 373 461 366 461 342 c 0
 461 334 463 324 468 312 c 2
 525 165 l 2
 528 158 536 157 538 157 c 0
 541 157 543 160 546 167 c 2
 601 295 l 2
 606 306 608 325 608 334 c 0
 608 358 588 373 573 378 c 0
 562 382 550 386 550 396 c 0
 550 404 563 405 570 405 c 0x7c
 599 405 609 400 645 400 c 0xbc
 682 400 681 405 703 405 c 0
 711 405 723 404 723 396 c 0
 723 386 711 382 700 378 c 0
 680 372 660 342 647 312 c 2
 510 -16 l 2
 508.131835938 -20.47265625 502 -23 491 -23 c 0
 478 -23 461 -20 459 -16 c 2
 374 194 l 2
 372 199 364 200 362 201 c 0
 360 201 358 198 355 191 c 2
 267 -16 l 2
 265 -20 258 -23 249 -23 c 0x7c
382.44140625 238.512695312 m 1
 388.692382812 235.833007812 405.485351562 228.375976562 412.963867188 209.678710938 c 2
 487.709960938 30.4248046875 l 1
 523.3984375 115.869140625 l 1
 518.837890625 117.37109375 495.504882812 127.200195312 486.106445312 149.130859375 c 2
 429.106445312 296.130859375 l 2
 422.861328125 311.552734375 419 327.088867188 419 342 c 0
 419 347.970703125 419.24609375 351.538085938 420.801757812 359.181640625 c 1
 407.927734375 358.57421875 392.315429688 358 380 358 c 0xbc
 371.038085938 358 363.061523438 358.211914062 352.583984375 358.62890625 c 1
 380.024414062 291.049804688 l 2
 385.44140625 278.18359375 389.545898438 257.956054688 382.44140625 238.512695312 c 1
280.989257812 117.553710938 m 1
 276.04296875 119.416992188 254.057617188 129.17578125 247.860351562 147.764648438 c 2
 189.765625 297.0078125 l 2
 185.1015625 309.447265625 182 322.65234375 182 338 c 0
 182 345.508789062 182.50390625 351.732421875 184.166015625 360.135742188 c 1
 164.892578125 359.063476562 145.3046875 358 131 358 c 0
 125.2578125 358 119.580078125 358.171875 112.575195312 358.470703125 c 1
 114.596679688 354.645507812 117.446289062 348.637695312 119.081054688 344.387695312 c 2
 245.397460938 33.8330078125 l 1
 280.989257812 117.553710938 l 1
EndSplineSet
EndChar

StartChar: idieresis
Encoding: 239 239 144
Width: 498
Flags: W
HStem: -4 27<10.8293 59.5132 225.072 269.25 444 492.171> 0 42<319.12 386.158> 358 42<131.767 194.466> 378 27<28.6054 74.1812 233.28 271.839 424.953 478.003>
VStem: 278 42<41.6271 92.7082>
LayerCount: 2
Fore
SplineSet
30 -4 m 0x88
 22 -4 10 -3 10 5 c 0
 10 16 22 20 33 23 c 0
 53 29 72 41 100 80 c 2
 177 187 l 2
 186 198 184 202 179 210 c 2
 97 335 l 2
 81 361 71 371 51 377 c 0
 40 380 28 384 28 395 c 0
 28 405 46 404 51 404 c 0
 90 404 115 400 164 400 c 0
 188 400 226 402 249 402 c 0
 254 402 272 403 272 393 c 0
 272 385 263 382 254 379 c 0
 244 376 233 373 233 362 c 0
 233 355 238 343 246 330 c 2
 292 261 l 2
 295 256 297 257 300 261 c 2
 351 338 l 2
 356 345 359 353 359 360 c 0
 359 367 356 373 346 376 c 0
 335 380 323 384 323 394 c 0
 323 404 341 403 346 403 c 0
 356 403 380 400 396 400 c 0xa8
 433 400 442 405 459 405 c 0
 467 405 479 404 479 396 c 0
 479 386 467 382 456 378 c 0
 436 372 404 358 385 331 c 2
 323 236 l 2
 321 233 320 228 324 223 c 2
 421 65 l 2
 437 39 450 29 470 23 c 0
 481 20 493 16 493 5 c 0
 493 -3 481 -4 473 -4 c 0x98
 432 -4 405 0 355 0 c 0x48
 331 0 271 -2 248 -2 c 0
 231 -2 225 3 225 8 c 0
 225 20 234 24 250 28 c 0
 264 32 278 38 278 52 c 0
 278 57 276 63 272 70 c 2
 213 166 l 2
 212 167 208 167 207 166 c 2
 141 67 l 2
 139 64 136 56 136 48 c 0
 136 39 140 29 150 26 c 0
 161 22 207 18 207 8 c 0
 207 -2 155 -1 150 -1 c 0
 139 -1 113 1 97 1 c 0
 60 1 48 -4 30 -4 c 0x88
210.630859375 307.337890625 m 0
 197.955078125 325.306640625 192.8125 335.580078125 191.100585938 358.486328125 c 1
 182.077148438 358.229492188 172.158203125 358 164 358 c 0
 152.022460938 358 142.02734375 358.209960938 131.766601562 358.57421875 c 1
 192.571289062 265.8828125 249.231445312 180.3828125 308.133789062 91.419921875 c 1
 314.805664062 79.7431640625 320 68.421875 320 52 c 0
 320 47.9833984375 320.141601562 48.5986328125 319.120117188 41.4345703125 c 1
 331.258789062 41.7080078125 346.374023438 42 355 42 c 0x68
 366.583984375 42 375.05859375 41.8447265625 386.158203125 41.4912109375 c 1
 385.23046875 42.98828125 l 1
 327.602539062 135.491210938 280 209 210.630859375 307.337890625 c 0
EndSplineSet
EndChar

StartChar: eth
Encoding: 240 240 145
Width: 472
Flags: W
HStem: -285 86<51.5102 149.026> 358 42<105.457 172.735> 378 27<6.05563 49.8994 220.137 261.546 433.046 475.944>
VStem: 47 116<-271.156 -206.881> 171 42<280.903 359.122> 356 121<327 400>
LayerCount: 2
Fore
SplineSet
98 -285 m 0xbc
 72 -285 47 -274 47 -244 c 0
 47 -220 59 -199 80 -199 c 0
 95 -199 109 -205 120 -205 c 0
 128 -205 134 -202 139 -194 c 0
 161 -159 178 -126 211 -49 c 0
 213.075195312 -44.1572265625 214.896484375 -28.9169921875 207 -9 c 2
 73 329 l 2
 63 353 48 372 28 378 c 0
 17 382 5 386 5 396 c 0
 5 404 18 405 25 405 c 0xbc
 65 405 97 400 132 400 c 0xdc
 167 400 202 405 242 405 c 0
 250 405 262 402 262 394 c 0
 262 384 244 375 233 372 c 0
 219 368 213 359 213 340 c 0
 213 332 218 319 221 312 c 2
 284 157 l 2
 285 154 289 152 292 152 c 0
 294 152 296 155 297 158 c 2
 348 295 l 2
 351 304 356 322 356 332 c 0
 356 357 348 365 336 370 c 0
 325 375 307 384 307 394 c 0
 307 402 320 405 327 405 c 0xbc
 345 405 361 400 398 400 c 0xdc
 435 400 435 405 457 405 c 0
 464 405 477 404 477 396 c 0
 477 386 465 382 454 378 c 0
 434 372 408 343 395 311 c 2
 259 -13 l 2
 255 -22 204 -148 163 -244 c 0
 151 -271 127 -285 98 -285 c 0xbc
236.18359375 31.39453125 m 5
 269.670898438 111.172851562 l 6
 267.622070312 112.3671875 249.248046875 128.71484375 245.090820312 141.185546875 c 2
 182.25390625 295.784179688 l 2
 178.82421875 303.896484375 171 317.822265625 171 340 c 0
 171 346.663085938 171.157226562 350.873046875 172.735351562 359.564453125 c 1
 160.361328125 358.76953125 145.916992188 358 132 358 c 0xdc
 122.779296875 358 114.340820312 358.291992188 105.45703125 358.7578125 c 1
 107.486328125 354.767578125 109.71484375 350.083984375 111.909179688 344.817382812 c 2
 236.18359375 31.39453125 l 5
EndSplineSet
EndChar

StartChar: ntilde
Encoding: 241 241 146
Width: 393
Flags: W
HStem: -5 38<183.422 308.781> 0 42<93.8882 141.62> 361.256 43.7441<250.808 298.147> 368 33<97.0024 207.35>
VStem: 31 22<291.683 308.547>
LayerCount: 2
Fore
SplineSet
39 -5 m 0x88
 34 -5 25 7 25 12 c 0
 25 17 50.59375 49.3388671875 62 70 c 0
 115 166 152 242 213 358 c 0
 215.327148438 362.42578125 219 368 204 368 c 2
 141 371 l 2
 122 372 105 360 97 352 c 0
 82 337 67 312 53 294 c 0
 45 286 27 293 31 304 c 0
 37 322 50 373 50 398 c 0
 50 408 61 416 65 416 c 0
 68 416 74 412 80 407 c 0
 86 402 105 401 123 401 c 0x98
 138 401 152 402 161 402 c 0
 230 402 306 403 367 405 c 0
 372 405 377 397 374 393 c 0
 360 376 349 363 336 343 c 2
 181 48 l 2
 175 38 181 33 190 33 c 2
 268 33 l 2
 283 33 298 41 313 56 c 0
 329 72 348 100 368 129 c 0
 374 138 390 133 390 122 c 0
 390 114 365 25 360 9 c 0
 358 0 352 -5 344 -5 c 0xa8
 315 -5 244 0 135 0 c 0x48
 107 0 56 -5 39 -5 c 0x88
93.224609375 40.275390625 m 1
 107.366210938 41.166015625 122.533203125 42 135 42 c 0
 136 42 135.575195312 42 136.575195312 42 c 0
 136.98828125 49.5478515625 138.622070312 57.9853515625 144.8984375 69.587890625 c 2
 298.147460938 361.255859375 l 1x68
 284.911132812 361.009765625 271.09765625 360.791015625 257.16796875 360.614257812 c 1
 255.17578125 345.608398438 250.173828125 338.453125 250.173828125 338.453125 c 1
 189.487304688 223.049804688 152.368164062 146.787109375 98.7685546875 49.7001953125 c 0
 96.841796875 46.2099609375 96.462890625 45.556640625 93.224609375 40.275390625 c 1
EndSplineSet
EndChar

StartChar: w
Encoding: 119 119 147
Width: 609
Flags: W
HStem: -5 40<270.001 505.925> -5 29<27.3563 55 55.0799 94.228> 0 45<163.281 223.604> 605 45<169.509 223.314> 622 31<37.0745 116.488 288.822 380.926>
VStem: 130 45<47.25 604.748> 215 45<45.7627 603.382> 566 34<139.048 159.894>
LayerCount: 2
Fore
SplineSet
55 -5 m 2x47
 37 -5 27 0 27 7 c 0
 27 19 45 23 49 24 c 0
 101 34 130 52 130 96 c 2
 130 560 l 2
 130 608 119 613 69 622 c 0
 46 626 36 633 36 642 c 0
 36 650 48 653 65 653 c 0x4f
 119 653 158 650 202 650 c 0x17
 251 650 299 653 353 653 c 0
 370 653 382 650 382 642 c 0
 382 633 372 626 349 622 c 0
 299 613 260 606 260 567 c 2
 260 96 l 2
 260 55 271 35 337 35 c 2
 436 35 l 2x8f
 472 35 501 49 514 61 c 0
 540 84 549 96 566 132 c 0
 569 140 579 162 588 162 c 0
 596 162 600 152 600 144 c 0
 600 142 599 140 599 139 c 0
 585 87 576 54 572 12 c 0
 571 3 568 -5 558 -5 c 0x47
 424 -5 315 0 215 0 c 0x27
 165 0 55 -5 55 -5 c 2x47
163.28125 44.080078125 m 1
 180.744140625 44.5712890625 201.046875 45 215 45 c 0
 218.028320312 45 219.579101562 44.998046875 223.604492188 44.98828125 c 1
 216.56640625 61.46875 215 80.5439453125 215 96 c 2
 215 567 l 2
 215 579.896484375 217.294921875 592.478515625 223.314453125 605.166015625 c 1
 217.7421875 605.084960938 208.915039062 605 202 605 c 0x37
 190.8203125 605 180.376953125 605.177734375 169.508789062 605.456054688 c 1
 174.111328125 590.348632812 175 575.647460938 175 560 c 2
 175 96 l 2
 175 78.0302734375 172.04296875 61.4404296875 163.28125 44.080078125 c 1
EndSplineSet
EndChar

